<?xml version="1.0" standalone="no"?>
<!DOCTYPE svg PUBLIC "-//W3C//DTD SVG 1.1//EN" "http://www.w3.org/Graphics/SVG/1.1/DTD/svg11.dtd">
<svg xmlns="http://www.w3.org/2000/svg">
<metadata>Copyright (C) 2016 by original authors @ fontello.com</metadata>
<defs>
<font id="kims" horiz-adv-x="1000" >
<font-face font-family="kims" font-weight="400" font-stretch="normal" units-per-em="1000" ascent="850" descent="-150" />
<missing-glyph horiz-adv-x="1000" />
<glyph glyph-name="fashion" unicode="&#xe800;" d="M1078 850h-240l-5-8c-51-88-145-143-247-143s-196 55-246 143l-5 8h-241c-52 0-94-42-94-94v-201c0-52 42-95 94-95h75v-481c0-69 56-125 125-125h585c68 0 125 56 125 125v481h74c52 0 95 43 95 95v201c0 52-43 94-95 94l0 0z m-525-531c0 55 45 100 100 100 56 0 101-45 101-100 0-56-45-101-101-101-55 0-100 45-100 101l0 0z m251-302c-46 0-84 37-84 84 0 46 38 84 84 84 46 0 84-38 84-84 0-47-38-84-84-84l0 0z m0 0" horiz-adv-x="1173" />

<glyph glyph-name="kims-logo" unicode="&#xe801;" d="M608 244c-10 0-17-9-17-19 0-10 6-19 17-19 10 0 16 9 16 19 0 10-6 19-16 19z m-108 606c-276 0-500-224-500-500 0-276 224-500 500-500 276 0 500 224 500 500 0 276-224 500-500 500z m-314-647c-12 0-19 10-19 22 0 11 7 22 20 22 4 0 8-2 11-3l-2-3c-3 2-6 3-10 3-10 0-16-9-16-19 0-10 6-19 17-19 4 0 7 2 10 4l2-3c-3-2-7-4-13-4z m80 1h-20v42h4v-39h16v-3z m-4 83l-54 79v-79h-42v172h42v-72l55 72h45l-61-79 64-93h-49z m73-83h-21v42h20v-3h-17v-15h15v-3h-15v-18h18v-3z m75 0l-4 11h-20l-4-11h-4l16 42h4l16-42h-4z m7 83h-42v172h42v-172z m74-83h-3l-25 36v-36h-3v42h3l25-36v36h3v-42z m117-1c-13 0-20 10-20 22 0 11 7 22 20 22 12 0 20-10 20-22 0-12-8-22-20-22z m31 165c-1 13-2 22-2 25h-1c-1-3-3-13-7-24l-25-82h-41l-25 82c-3 10-6 21-7 24h-1c0-3 0-14-2-25l-10-81h-37l24 172h40l32-103c4-11 7-26 8-28h1l8 28 34 103h40l24-172h-43l-10 81z m69-164h-4l-25 36v-36h-3v42h4l24-36v36h4v-42z m71 0h-20v42h3v-39h17v-3z m56 16v-16h-3v16l-14 26h3l12-23h0l12 23h4l-14-26z m-38 64c-29 0-47 11-55 17l17 29c4-3 17-13 36-13 17 0 25 7 25 17 0 13-18 16-38 27-21 10-36 24-36 52 0 30 25 49 57 49 29 0 45-9 52-15l-16-29c-6 4-19 11-33 11-13 0-20-6-20-16 0-12 13-15 31-24 23-10 43-21 43-52 0-33-24-53-63-53z" horiz-adv-x="1000" />

<glyph glyph-name="logo" unicode="&#xe802;" d="M685 416v13c0 0 105 39 105 151 0 112-118 231-349 231h-441v-922h520c244 0 376 132 376 283 0 191-211 244-211 244z m-382 145h138c20 0 33-14 33-33 0-20-13-33-33-33h-138v66z m217-421h-217v118h217c33 0 60-26 60-59 0-33-27-59-60-59z m1574-14c-105 0-210 106-210 224 0 118 105 224 210 224 93 0 132-40 172-92l303 39c-53 171-211 329-461 329-290 0-527-237-527-500 0-64 14-126 39-184h-421v645h-303v-922h751v225c90-154 263-264 461-264 263 0 447 184 487 355l-303 40c-39-66-92-119-198-119z m1436 685h-369l-250-277v277h-303v-922h303v251l92 98 211-349h343l-343 566 316 356z m264-277c0 20 20 40 66 40 66 0 92-27 118-79l303 39c-39 171-184 316-408 316-250 0-395-145-395-303 0-329 500-276 500-355 0-33-33-66-92-66-92 0-132 40-158 106l-303-40c53-197 198-342 448-342 263 0 421 158 421 329 0 329-500 276-500 355z m1080-52h-263v329h-303v-922h303v316h263v-316h303v922h-303v-329z m1265-27c0 204-152 356-396 356h-500v-922h303v211h197c244 0 396 151 396 355z m-396-92h-197v184h197c47 0 93-46 93-92 0-46-46-92-93-92z m402-223c-72 0-138-66-138-139 0-72 66-138 138-138 73 0 139 66 139 138 0 73-66 139-139 139z" horiz-adv-x="6284" />

<glyph glyph-name="meat" unicode="&#xe803;" d="M903-24c-103 0-220 37-348 111-103 60-209 79-303 96-96 17-193 35-252 101 7-268 300-147 582-311 347-200 559-90 591 146-56-91-150-143-270-143l0 0z m0 0m-607 345c90-14 191-31 292-84 106-56 202-84 284-84 73 0 133 24 174 68 39 42 60 104 60 176 0 220-235 399-523 399-325 0-511-113-511-310 0-128 89-143 224-165l0 0z m74 357c81 0 147-51 147-114 0-63-66-114-147-114-81 0-147 51-147 114 0 63 66 114 147 114l0 0z m0 0m212-544c377-219 596-69 596 210 0 280-267 506-596 506-329 0-582-118-582-397 0-279 297-154 582-319l0 0z m1 687c302 0 548-190 548-424 0-79-23-146-67-193-46-50-112-76-192-76-86 0-186 30-295 87-98 51-197 67-284 81-138 23-246 40-246 190 0 213 195 335 536 335l0 0z m0 0m-140-257c0-31-33-56-73-56-40 0-73 25-73 56 0 32 33 57 73 57 40 0 73-25 73-57l0 0z m0 0" horiz-adv-x="1185" />

<glyph glyph-name="nature" unicode="&#xe804;" d="M847 842c-5 8-15 10-23 6-103-49-253-150-366-347 65-100 122-228 152-392 4 163 36 516 235 709 6 7 7 17 2 24l0 0z m0 0m-677-141c-4 2-7 3-11 3-5 0-10-2-13-6-6-7-7-17-1-24 200-256 144-698 128-800 0-5 1-11 5-15 3-4 8-7 14-7h257c5 0 10 2 13 6 4 3 5 8 5 13-6 498-250 733-397 830l0 0z m0 0m-156-447c-4 3-9 2-12-1-3-3-3-8 0-11 95-122 68-332 61-380-1-2 0-5 2-7 2-2 4-3 7-3h122c2 0 4 1 6 3 1 2 2 4 2 6-3 236-118 347-188 393l0 0z m0 0m901 151c-4 4-11 5-16 2-96-63-256-217-260-543 0-3 1-6 4-8 2-2 5-4 8-4h168c4 0 7 2 10 5 2 2 3 6 2 9-10 67-46 356 84 523 4 5 4 12 0 16l0 0z m0 0" horiz-adv-x="918" />

<glyph glyph-name="networking" unicode="&#xe805;" d="M707 850h-611c-49 0-96-49-96-98v-747c0-49 40-103 88-103h42v-19c0-19 15-33 33-33h41c18 0 33 14 33 33v19h324v-19c0-19 15-33 33-33h41c18 0 33 14 33 33v19h39c49 0 91 54 91 103v746c0 49-43 99-91 99l0 0z m-618-132v30c0 16 12 28 27 28h95c16 0 28-12 28-28v-30c0-16-12-28-28-28h-95c-15 0-27 12-27 28l0 0z m308-648c-159 0-288 128-288 287 0 159 129 288 288 288 159 0 288-129 288-288 0-159-129-287-288-287l0 0z m0 0m0 507c-121 0-219-98-219-220 0-121 98-219 219-219 122 0 220 98 220 219 0 122-98 220-220 220l0 0z m0-352c-73 0-132 60-132 132 0 73 59 133 132 133 73 0 132-60 132-133 0-72-59-132-132-132l0 0z m0 0m-55 175c-17-14-28-35-28-59 0-44 36-79 79-79 34 0 63 22 74 52-51 13-95 44-125 86l0 0z m0 0" horiz-adv-x="798" />

<glyph glyph-name="social-media" unicode="&#xe806;" d="M502 850c-277 0-502-225-502-502 0-249 181-455 418-495v390h-121v140h121v104c0 120 74 185 181 185 51 0 95-3 108-5v-126h-74c-59 0-70-27-70-68v-89h139l-18-141h-121v-393c249 30 441 242 441 498 0 277-225 502-502 502l0 0z m0 0" horiz-adv-x="1004" />

<glyph glyph-name="telephone" unicode="&#xe807;" d="M1146 489c-2-8-2-15-4-22-17-40-48-73-71-110-30-47-280 54-248 117 12 24 60 88 63 114 4 23-27 41-55 43-75 6-170 1-249 0-2 0-4 0-6 0-2 0-5 0-7 0-79 1-174 6-248 0-28-2-59-20-56-43 4-26 51-90 64-114 32-63-219-164-248-117-23 37-54 70-71 110-3 7-3 14-4 22-37 164 105 332 318 349 82 7 164 10 245 12v0c3 0 5 0 7 0 2 0 4 0 6 0v0c82-2 164-5 245-12 214-17 356-185 319-349l0 0z m-147-567c3-40-23-72-57-72h-732c-34 0-60 32-58 72l22 359c77 18 176 66 212 125 20 33 23 70 6 101-4 9-12 21-21 35 0 1 0 1 0 1h398c0 0 0-1 0-1-5-12-7-22-6-29-1-2-3-4-4-6-16-31-14-68 6-101 36-59 135-107 213-125l21-359z m-283 373c-77 76-202 76-278 0-77-77-77-202 0-278 69-70 178-76 255-20l-48 48c-51-31-117-25-160 19-51 50-51 133 0 184 51 50 133 50 184 0 43-43 49-110 19-159l48-49c56 77 49 186-20 255l0 0z m0 0" horiz-adv-x="1160" />

<glyph glyph-name="three" unicode="&#xe808;" d="M1000 850h-893c-59 0-107-48-107-107 0-59 48-107 107-107h893c59 0 107 48 107 107 0 59-48 107-107 107l0 0z m0 0m0-393h-893c-59 0-107-48-107-107 0-59 48-107 107-107h893c59 0 107 48 107 107 0 59-48 107-107 107l0 0z m0 0m0-393h-893c-59 0-107-48-107-107 0-59 48-107 107-107h893c59 0 107 48 107 107 0 59-48 107-107 107l0 0z m0 0" horiz-adv-x="1107" />

<glyph glyph-name="tomato" unicode="&#xe809;" d="M190 555c5-3 13-2 18 3 30 29 83 72 145 90 10 3 22 1 31-4 9-5 16-14 19-24l26-100c2-7 8-12 15-12 7 0 13 5 15 12l26 100c3 10 10 19 19 24 10 5 21 7 31 4 62-18 115-61 146-90 4-4 12-5 18-2 5 3 9 9 8 16-6 34-22 60-43 81-41 40-101 59-135 67-5 1-10 2-15 3-8 1-15 6-19 13-3 8-3 16 1 23l28 49c5 9 4 19-1 28-5 9-14 14-24 14-12 0-24-7-30-18l-42-77c-10-18-27-30-47-33-9-1-18-3-25-4-37-10-103-30-143-79-15-18-26-40-31-68-1-7 3-13 9-16l0 0z m0 0m537 67c6-14 11-29 14-44 3-22-7-43-26-53-19-10-43-6-58 8-25 24-74 65-131 82-3 0-4 0-5-1-1-1-2-2-2-3l-27-100c-5-22-25-37-48-37-23 0-43 15-48 37l-27 100c0 1-1 2-2 3-1 1-2 1-3 1-58-17-108-59-133-82-9-9-21-14-35-14-8 0-15 2-22 6-19 9-30 30-27 51 2 11 5 21 8 30-95-65-155-167-155-303 0-250 203-453 453-453 251 0 454 203 454 453 0 148-71 256-180 319l0 0z m-629-456c-20 0-35 15-35 35 0 19 15 35 35 35 19 0 35-16 35-35 0-20-16-35-35-35l0 0z m55 264c-25-30-35-77-32-140 0-19-15-38-34-38h-1c-18 0-34 17-34 36-3 80 12 140 47 184 11 15 33 18 48 6 15-12 17-33 6-48l0 0z m0 0" horiz-adv-x="906" />

<glyph glyph-name="tool" unicode="&#xe80a;" d="M813 450c0 221-182 400-407 400-224 0-406-179-406-400 0-103 40-196 104-267h-2c0 0 152-183 242-302l6-2c13-17 33-29 56-29 22 0 41 10 53 25l10 6c90 118 242 302 242 302h-3c65 71 105 164 105 267l0 0z m-407-267c-149 0-271 120-271 267 0 147 122 267 271 267 150 0 271-120 271-267 0-147-121-267-271-267l0 0z m0 0" horiz-adv-x="812" />

<glyph glyph-name="t-shirt" unicode="&#xe80b;" d="M808 795l-14-14v14h-69c-30-48-95-81-171-81-75 0-140 33-171 81h-68v-14l-14 14-245-246 134-134 125 125v-625h479v625l125-125 134 134-245 246z m0 0m0 0l-14-14v14h-69c-30-48-95-81-171-81-75 0-140 33-171 81h-68v-14l-14 14-245-246 134-134 125 125v-625h479v625l125-125 134 134-245 246z m0 0" horiz-adv-x="1134" />

<glyph glyph-name="web" unicode="&#xe80c;" d="M725 274c23 22 40 47 51 76 11 28 17 57 17 86 0 29-6 58-17 87-11 28-28 54-51 76-22 23-47 39-76 50-28 11-57 16-87 16-29 0-58-5-86-16-29-11-54-27-76-50-23-22-40-48-51-76-11-29-17-58-17-87 0-29 6-58 17-86 11-29 28-54 51-76 22-23 47-40 76-51 28-11 57-17 86-17 30 0 59 6 87 17 29 11 54 28 76 51l0 0z m131 456c40-41 71-87 91-138 20-51 30-103 30-156s-10-104-30-155c-20-51-51-97-91-138-33-32-69-58-109-78-40-20-81-33-124-39-42-7-85-6-128 1-43 7-85 21-124 41l-186-187c-11-10-23-18-36-23-13-6-27-8-41-8-14 0-28 2-41 8-13 5-25 13-35 23-11 11-19 23-24 36-5 13-8 27-8 41 0 14 3 28 8 41 5 13 13 25 24 36l180 180c-26 40-43 82-53 128-11 46-13 91-9 137 5 45 17 90 37 133 20 43 48 82 82 117 41 39 87 69 138 90 51 20 103 30 155 30 53 0 105-10 156-30 51-21 97-51 138-90l0 0z m0 0" horiz-adv-x="977" />

<glyph glyph-name="arrows-mist" unicode="&#xe80d;" d="M0 34c0-12 5-24 14-33l135-135c9-9 22-14 34-14 13 0 25 5 34 14l451 451c9 9 14 21 14 34 0 13-5 25-14 34l-451 451c-9 9-21 14-34 14-12 0-25-5-34-14l-135-135c-9-9-14-22-14-34 0-13 5-25 14-34l282-282-282-282c-9-9-14-22-14-35l0 0z m0 0" horiz-adv-x="682" />

<glyph glyph-name="arrow-go" unicode="&#xe80e;" d="M1520 390l-644 448c-26 22-46 13-46-21v-187c0-34-27-61-61-61l-398 0h-311v-1c-33 0-60-27-60-60v-317c0-33 27-61 60-61l703 2h7c33-1 60-28 60-61v-188c0-33 20-42 46-21l644 449c25 22 25 57 0 79l0 0z m0 0" horiz-adv-x="1540" />

<glyph glyph-name="arrows-left" unicode="&#xe80f;" d="M67 99c45-77 105-137 182-182 77-45 160-67 251-67 91 0 174 22 251 67 77 45 137 105 182 182 45 77 67 160 67 251 0 91-22 174-67 251-45 77-105 137-182 182-77 45-160 67-251 67-91 0-174-22-251-67-77-45-137-105-182-182-45-77-67-160-67-251 0-91 22-174 67-251l0 0z m171 280l295 296c9 8 18 12 30 12s21-4 29-12l66-66c8-9 13-19 13-30s-5-21-13-29l-200-200 200-200c8-8 13-18 13-29 0-11-5-21-13-29l-66-67c-8-8-18-12-29-12-12 0-21 4-30 12l-295 296c-9 8-13 18-13 29 0 11 4 21 13 29l0 0z m0 0" horiz-adv-x="1000" />

<glyph glyph-name="arrows-right" unicode="&#xe810;" d="M933 601c-45 77-105 137-182 182-77 45-160 67-251 67-91 0-174-22-251-67-77-45-137-105-182-182-45-77-67-160-67-251 0-91 22-174 67-251 45-77 105-137 182-182 77-45 160-67 251-67 91 0 174 22 251 67 77 45 137 105 182 182 45 77 67 160 67 251 0 91-22 174-67 251l0 0z m-171-280l-295-296c-8-8-18-12-29-12s-22 4-30 12l-66 67c-8 8-13 18-13 29s5 21 13 29l200 200-200 200c-8 8-13 18-13 29 0 11 5 21 13 30l66 66c8 8 18 12 30 12 11 0 21-4 29-12l295-296c9-8 13-18 13-29 0-11-4-21-13-29l0 0z m0 0" horiz-adv-x="1000" />

<glyph glyph-name="bathroom" unicode="&#xe811;" d="M1006 850c-34 0-64-16-83-40h-733c-20 24-50 40-84 40-58 0-106-48-106-106s48-106 106-106c37 0 70 18 89 47h0v-766c0-38 32-69 71-69h562c38 0 67 31 67 69v51h-585v715h72v-574c0-38 32-69 71-69h394c38 0 68 31 68 69v574h3c19-29 51-47 88-47 59 0 106 47 106 106s-47 106-106 106l0 0z m0 0" horiz-adv-x="1112" />

<glyph glyph-name="drink" unicode="&#xe812;" d="M660 428v69c0 26-21 46-46 46h-118c24 31 34 61 29 91-5 37-32 67-55 92-33 38-51 60-35 91 5 10 3 22-6 29-9 6-22 5-30-2-106-105-50-173-9-223 27-32 43-53 37-78h-136c24 31 34 61 30 91-6 37-32 67-55 92-33 38-51 60-35 91 5 10 2 22-7 29-9 6-22 5-29-2-107-105-50-173-9-223 26-32 42-53 37-78h-177c-26 0-46-20-46-46v-477c0-88 71-159 159-159h341c81 0 147 59 158 137 109 11 195 103 195 215 0 112-85 204-193 215l0 0z m-455-385c0-26-21-46-46-46s-45 20-45 46v341c0 25 20 45 45 45s46-20 46-45v-341z m455 47v246c58-11 102-62 102-123 0-61-44-112-102-123l0 0z m0 0" horiz-adv-x="865" />

<glyph glyph-name="location" unicode="&#xe813;" d="M324 850c-179 0-324-148-324-331 0-73 46-193 140-366 67-122 133-224 135-228l49-75 48 74c2 5 68 107 135 229 94 173 140 293 140 366 0 183-145 331-323 331z m0-500c-93 0-168 77-168 172s75 171 168 171 167-77 167-171-75-172-167-172z" horiz-adv-x="647" />

<glyph glyph-name="lang" unicode="&#xe814;" d="M500 850c-276 0-500-224-500-500 0-276 224-500 500-500 276 0 500 224 500 500 0 276-224 500-500 500z m1-915c-231 0-418 188-418 418 0 50 10 97 26 142 24-21 133-108 214-71 92 43 72 49 95 26 23-22 75-26 82-68 6-43-59-56-72-111-13-56 49-196 170-275 23-15 46-23 67-27-51-22-106-34-164-34z m286 115c-26 63-70 176-59 211 17 49 85 72-32 82-118 9-79-10-118 52-39 62-65 59-65 88 0 29 6 46 39 23 32-23 55-49 26 29-29 79-36 66-52 128-17 62 0 65 6 85 3 9 6 15 5 20 214-19 382-196 382-415 0-119-51-227-132-303z" horiz-adv-x="1000" />

<glyph glyph-name="user" unicode="&#xe815;" d="M800 135l-159 80c-15 7-24 22-24 39v57c4 4 8 10 12 15 20 30 37 62 49 97 23 11 39 34 39 60v67c0 16-6 32-17 44v88c1 10 5 64-35 109-34 39-90 59-165 59s-131-20-165-59c-40-45-36-99-35-109v-88c-11-12-17-28-17-44v-67c0-20 10-39 25-51 16-61 48-106 59-121v-55c0-16-9-31-23-39l-149-81c-48-26-78-77-78-132v-54c0-79 250-100 383-100s383 21 383 100v51c0 57-31 109-83 134z" horiz-adv-x="1000" />
</font>
</defs>
</svg>
