<?xml version="1.0" standalone="no"?>
<!DOCTYPE svg PUBLIC "-//W3C//DTD SVG 1.1//EN" "http://www.w3.org/Graphics/SVG/1.1/DTD/svg11.dtd" >
<svg xmlns="http://www.w3.org/2000/svg">
<metadata></metadata>
<defs>
<font id="tt_firsmedium_italic" horiz-adv-x="1248" >
<font-face units-per-em="2048" ascent="1638" descent="-410" />
<missing-glyph horiz-adv-x="404" />
<glyph horiz-adv-x="0" />
<glyph horiz-adv-x="0" />
<glyph horiz-adv-x="682" />
<glyph unicode="&#xd;" horiz-adv-x="0" />
<glyph unicode=" "  horiz-adv-x="404" />
<glyph unicode="&#x09;" horiz-adv-x="404" />
<glyph unicode="&#xa0;" horiz-adv-x="404" />
<glyph unicode="!" horiz-adv-x="554" d="M67 81q6 44 41.5 74t79 30t69 -30t19.5 -74q-5 -43 -40 -73.5t-79 -30.5q-43 0 -69 30.5t-21 73.5zM181 472l9 314l113 811h163l-115 -811l-78 -314h-92z" />
<glyph unicode="&#x22;" horiz-adv-x="740" d="M192 1042l11 243l42 312h128l-42 -312l-58 -243h-81zM528 1042l11 243l42 312h128l-42 -312l-58 -243h-81z" />
<glyph unicode="#" horiz-adv-x="1504" d="M-7 451l18 139h301l176 417h-265l18 139h312l189 451h152l-190 -451h382l189 451h151l-190 -451h266l-18 -139h-313l-175 -417h276l-18 -139h-324l-190 -451h-150l190 451h-382l-190 -451h-150l189 451h-254zM463 590h382l175 417h-382z" />
<glyph unicode="$" horiz-adv-x="1237" d="M46 510l155 22q51 -231 338 -231q88 0 161 19.5t120.5 53t75.5 74t34 84.5t-17.5 76.5t-68 52.5t-104 35.5t-125.5 29.5t-132 31t-124 43.5t-100 62.5t-62 93.5t-9 131.5q20 143 140.5 241t300.5 106l33 232h150l-32 -232q67 -3 124 -21t100 -47.5t75 -69.5t52.5 -86.5 t30.5 -99.5l-153 -23q-12 46 -34 81.5t-58.5 65t-94 45.5t-133.5 16q-84 0 -149.5 -16t-107 -45t-65 -65.5t-29.5 -81.5q-7 -48 16 -83.5t67 -57.5t103.5 -38.5t125.5 -31t132 -31t124 -42t100.5 -59.5t63 -88t10.5 -125q-9 -65 -49.5 -128t-103 -114t-148.5 -85.5 t-180 -42.5l-32 -231h-150l32 231q-87 4 -158 34t-118.5 80t-78.5 108t-48 126z" />
<glyph unicode="%" horiz-adv-x="1643" d="M128 0l1205 1597h173l-1205 -1597h-173zM128 1250q16 112 76.5 203t146.5 140.5t179 49.5q55 0 104.5 -18.5t87.5 -53t64.5 -83t35 -108.5t0.5 -130q-16 -113 -76.5 -204t-146 -140t-178.5 -49q-69 0 -128.5 29t-100 80t-58.5 125t-6 159zM264 1196q1 -26 6.5 -49.5 t14.5 -43.5t21.5 -36.5t27.5 -30t32 -22.5t35.5 -13.5t38.5 -4.5q81 0 154.5 72.5t88.5 181.5q8 54 -3 102.5t-35.5 81t-59 51.5t-73.5 19q-81 0 -155 -72.5t-90 -181.5q-4 -28 -3 -54zM812 347q12 85 50.5 159t92.5 125t121.5 80t136.5 29t128.5 -29t100 -80t58.5 -125 t6 -159q-16 -113 -76.5 -204t-146.5 -140t-179 -49q-69 0 -128 29t-99.5 80t-58.5 125t-6 159zM951 347q-16 -109 37 -181.5t134 -72.5t155 72.5t90 181.5q15 109 -38 181.5t-134.5 72.5t-155 -72.5t-88.5 -181.5z" />
<glyph unicode="&#x26;" horiz-adv-x="1365" d="M33 405q9 68 33 131.5t56.5 112.5t71.5 93t80 75.5t81.5 58.5t76 44t62.5 29t43 18l16 5v11l-224 452l20 162h926l-21 -151h-740v-11l736 -1435h-186l-73 139h-12q-8 -8 -23 -22.5t-64 -50t-103 -63t-136.5 -50t-166.5 -22.5q-115 0 -207.5 36.5t-150.5 100t-83.5 150.5 t-11.5 187zM194 405q-8 -65 11 -124t59.5 -103t103.5 -70.5t139 -26.5q65 0 131 20.5t114 49.5t86.5 57.5t58.5 49.5l19 20l-298 579q-8 -3 -21.5 -8t-53.5 -23.5t-77.5 -41t-84.5 -61t-83 -82.5t-65 -106t-39 -130z" />
<glyph unicode="'" horiz-adv-x="404" d="M192 1042l11 243l42 312h128l-42 -312l-58 -243h-81z" />
<glyph unicode="(" horiz-adv-x="797" d="M115 671q16 112 49 219.5t75.5 195t93 169.5t102.5 146t103.5 119t96 94t78.5 67t54 41l19 14l54 -116q-10 -7 -27.5 -21t-68.5 -62t-99 -101t-109.5 -138.5t-109.5 -175.5t-89 -209t-59 -242q-17 -129 -10 -242t32 -209t59 -174.5t72 -139t69.5 -101.5t52.5 -62l21 -21 l-86 -115q-19 15 -50 44t-107 130.5t-128.5 215.5t-83.5 297t-4 377z" />
<glyph unicode=")" horiz-adv-x="797" d="M-86 -278q10 7 27.5 21t68.5 62t99 101.5t109.5 138.5t109.5 175t89 209.5t58 241.5q17 129 10.5 242t-31.5 209.5t-59 175t-71.5 138.5t-69.5 101t-52 62l-21 21l86 116q19 -15 49.5 -44.5t106 -130.5t128 -215.5t82.5 -297.5t3 -377q-15 -111 -48 -218.5t-75.5 -195.5 t-93 -170t-102.5 -145.5t-103 -119t-95 -94.5t-78 -66.5t-54 -41.5l-20 -13z" />
<glyph unicode="*" horiz-adv-x="855" d="M146 1215l16 116h278l37 266h115l-36 -266h277l-16 -116h-232l130 -232l-101 -69l-139 243l-208 -243l-84 69l194 232h-231z" />
<glyph unicode="+" horiz-adv-x="971" d="M18 636l22 150h369l54 382h138l-53 -382h371l-21 -150h-370l-53 -382h-139l53 382h-371z" />
<glyph unicode="," horiz-adv-x="358" d="M-77 -208l97 197q-2 1 -5.5 3t-12.5 10t-15.5 18t-11 26.5t-1.5 34.5q7 44 42.5 74t78.5 30t69 -30t19 -74q-2 -20 -13.5 -43.5t-22.5 -35.5l-10 -13l-144 -197h-70z" />
<glyph unicode="-" horiz-adv-x="913" d="M18 636l22 150h821l-21 -150h-822z" />
<glyph unicode="." horiz-adv-x="346" d="M-37 81q6 44 41.5 74t79 30t69.5 -30t19 -74q-5 -43 -40 -73.5t-79 -30.5q-43 0 -69 30.5t-21 73.5z" />
<glyph unicode="/" horiz-adv-x="879" d="M-69 0l846 1597h162l-846 -1597h-162z" />
<glyph unicode="0" horiz-adv-x="1665" d="M108.5 508.5q-18.5 133.5 2.5 290.5q22 152 80 289.5t141.5 241.5t184.5 180.5t212.5 116.5t222 40t211 -40.5t179.5 -115.5t133.5 -181.5t72.5 -240t-2 -290.5q-18 -128 -62.5 -245t-106.5 -211.5t-140 -172.5t-164.5 -130t-180.5 -80.5t-186 -28.5q-110 0 -211 40.5 t-180 115t-133.5 181.5t-73 240.5zM270 555.5q14 -111.5 56 -199.5t103 -149t137.5 -93.5t160 -32.5t169 32t165 95t145.5 148t113 200t65 243q18 132 3.5 243t-56.5 199t-103 149t-138 93t-160 32t-168.5 -31.5t-165 -94t-145 -148t-112.5 -200t-66 -242.5 q-17 -132 -3 -243.5z" />
<glyph unicode="1" horiz-adv-x="693" d="M118 1180l21 139q47 0 95 15t88.5 42t73.5 61.5t54.5 76t26.5 83.5h150l-222 -1597h-162l181 1296q-5 -5 -13.5 -12.5t-38 -27.5t-62.5 -35.5t-85 -28t-107 -12.5z" />
<glyph unicode="2" horiz-adv-x="1341" d="M-35 0l19 139q14 100 60 186t112 150t147.5 119.5t169 100.5t175 87t167.5 86t143.5 90.5t105.5 106t51 127.5q20 140 -73 231.5t-262 91.5q-330 0 -484 -300l-157 23q31 72 75.5 135t105 117.5t132.5 93t161.5 61t187.5 22.5q120 0 216.5 -36.5t157.5 -99.5t88.5 -150.5 t13.5 -188.5q-12 -87 -56.5 -162t-109.5 -131.5t-145.5 -107t-168.5 -94t-175.5 -86.5t-167.5 -91t-144.5 -100t-107.5 -121t-54 -149h996l-22 -150h-1157z" />
<glyph unicode="3" horiz-adv-x="1365" d="M-5 393l169 35q20 -76 54.5 -137.5t85.5 -109t123 -74t161 -26.5q118 0 222 52t169.5 139.5t80.5 190.5q14 104 -27 191t-129.5 139t-207.5 52h-219l20 151l561 439v11h-776l21 151h1018l-20 -151l-559 -439l-2 -11q120 0 218 -41.5t160.5 -112.5t90.5 -169t13 -210 q-17 -112 -73 -209.5t-140.5 -169t-199 -112.5t-242.5 -41q-126 0 -228 36t-171 100t-112 146t-61 180z" />
<glyph unicode="4" horiz-adv-x="1365" d="M2 358l21 152l708 1087h174l-708 -1087h717l65 450h162l-65 -450h220l-21 -152h-220l-48 -358h-162l49 358h-892z" />
<glyph unicode="5" horiz-adv-x="1330" d="M-40 393l170 35q21 -76 55 -137t84.5 -109t122.5 -74.5t161 -26.5q118 0 222 52t169.5 139.5t80.5 190.5q14 104 -26.5 191t-129 139t-207.5 52h-428l232 752h809l-21 -151h-671l-143 -450h243q127 0 230 -41.5t168 -112.5t93.5 -169t13.5 -210q-17 -112 -73 -209.5 t-141 -169t-199.5 -112.5t-242.5 -41q-126 0 -228 36t-171 100t-112 146t-61 180z" />
<glyph unicode="6" horiz-adv-x="1365" d="M46 510q10 64 33 128.5t50 110t52.5 82t42.5 54.5l17 18l629 694h185l-492 -544h11q1 1 4 2t12 5t19 7t26 7t33 7t39.5 5t45.5 2q120 0 221 -45t167 -122t96 -184.5t13 -226.5q-17 -120 -77.5 -227t-150.5 -184.5t-208.5 -122.5t-246 -45t-233.5 45t-174 122.5t-99 184.5 t-15 227zM208 510q-16 -121 26.5 -218.5t135.5 -154t218 -56.5t234 56.5t179.5 154.5t86.5 218q17 120 -25.5 217.5t-135.5 153.5t-218.5 56t-234 -56t-179 -153.5t-87.5 -217.5z" />
<glyph unicode="7" horiz-adv-x="1098" d="M104 0l872 1435v11h-868l22 151h1041l-21 -162l-872 -1435h-174z" />
<glyph unicode="8" horiz-adv-x="1433" d="M37 428q10 73 39 136.5t68 106t83 76.5t86.5 54t77 33t56.5 18l21 5v11q-6 1 -16.5 4t-40 16t-55.5 29.5t-56.5 46t-50.5 64.5t-29.5 87t-1.5 111q12 83 63 162t130.5 141t190.5 100t233 38t222.5 -38t162.5 -100t91 -141t18 -162q-9 -59 -33 -110.5t-55.5 -87t-68 -64.5 t-71 -46.5t-62.5 -29t-45 -16.5l-18 -4v-11q8 -2 20.5 -5.5t49 -17.5t69 -33t70 -54t62.5 -77t37.5 -105.5t2.5 -136.5q-14 -95 -71.5 -184.5t-147 -159t-214.5 -111.5t-264 -42q-112 0 -207.5 27t-163 75t-113 110.5t-63 135.5t-6.5 149zM199 428q-10 -65 13 -127t74 -111 t135.5 -79t189.5 -30t198 30t158 79t106.5 111t50.5 127q8 56 -4.5 108.5t-46.5 98t-84 79.5t-122 53t-156 19q-105 0 -198 -29.5t-157.5 -79.5t-105.5 -114.5t-51 -134.5zM380 1226q-7 -53 13.5 -104t63.5 -92.5t114.5 -67t159.5 -25.5q71 0 136.5 16.5t116.5 45t90.5 65.5 t63 78.5t28.5 83.5q7 53 -13.5 104t-63.5 92.5t-114.5 67t-159.5 25.5t-167.5 -25.5t-135 -67t-90.5 -93t-42 -103.5z" />
<glyph unicode="9" horiz-adv-x="1365" d="M106 1088q17 120 77.5 227t150.5 184.5t208.5 122.5t246 45t233.5 -45t174 -122.5t99 -184.5t15 -227q-7 -47 -21.5 -94.5t-32 -85t-37 -72.5t-38 -60t-33.5 -44t-24 -29l-9 -9l-629 -694h-185l492 544h-11q-7 -4 -21.5 -10t-61.5 -15t-98 -9q-119 0 -220 45t-167 122 t-95.5 184.5t-12.5 226.5zM269 1088q-17 -120 25.5 -218t135 -154t218 -56t234 56t179 154t87.5 218q16 120 -26.5 218t-135.5 153.5t-218 55.5t-233.5 -55.5t-179 -153.5t-86.5 -218z" />
<glyph unicode=":" horiz-adv-x="346" d="M-37 81q6 44 41.5 74t79 30t69.5 -30t19 -74q-5 -43 -40 -73.5t-79 -30.5q-43 0 -69 30.5t-21 73.5zM93 996q5 43 39.5 73t77.5 30t69.5 -30t21.5 -73q-7 -44 -41 -75t-77 -31t-70 31t-20 75z" />
<glyph unicode=";" horiz-adv-x="358" d="M-77 -208l97 197q-2 1 -5.5 3t-12.5 10t-15.5 18t-11 26.5t-1.5 34.5q7 44 42.5 74t78.5 30t69 -30t19 -74q-2 -20 -13.5 -43.5t-22.5 -35.5l-10 -13l-144 -197h-70zM104 996q3 28 20.5 52t43.5 37.5t55 13.5q43 0 68.5 -30t20.5 -73q-7 -44 -41 -75t-77 -31t-70 31 t-20 75z" />
<glyph unicode="&#x3c;" horiz-adv-x="1122" d="M37 440l25 174l993 404l-21 -150l-822 -336l-2 -11l729 -336l-20 -150z" />
<glyph unicode="=" horiz-adv-x="994" d="M37 428l18 139h811l-18 -139h-811zM95 845l18 138h810l-18 -138h-810z" />
<glyph unicode="&#x3e;" horiz-adv-x="1122" d="M-18 35l20 150l822 336l2 11l-729 336l21 150l882 -404l-26 -174z" />
<glyph unicode="?" horiz-adv-x="1214" d="M81 1238q39 94 98 170.5t137.5 135t181.5 91t222 32.5q114 0 207 -36.5t151 -97t85 -140.5t14 -167q-9 -70 -35 -128.5t-61 -100t-78 -77t-89 -64.5t-92.5 -57.5t-89 -61t-77 -70t-59 -89.5t-33.5 -115h-139q10 78 35.5 142.5t60 110t76.5 84t86.5 68t88.5 57.5 t84.5 57.5t73.5 63t56 79.5t31 101q5 42 -6 83.5t-38.5 78.5t-66.5 65.5t-92.5 45t-114.5 16.5q-165 0 -278.5 -80.5t-181.5 -219.5zM333 81q7 44 42 74t78 30t69 -30t19 -74q-3 -28 -20 -52t-43 -38t-54 -14q-43 0 -69.5 30.5t-21.5 73.5z" />
<glyph unicode="@" horiz-adv-x="1885" d="M76 503.5q-16 112.5 3 236.5q26 184 115 345t220 276t301 181t354 66q128 0 240.5 -26.5t199.5 -74.5t153.5 -114.5t106.5 -146t55 -170.5t2 -186q-15 -107 -70.5 -202.5t-138 -165.5t-192 -110.5t-228.5 -40.5h-104l11 80h-11q-4 -4 -10.5 -11t-29 -25t-47.5 -32 t-65 -25t-82 -11q-55 0 -106 19.5t-91 55.5t-68 84t-39 109t-2 125q16 107 79.5 199t153 144t181.5 52q31 0 59 -6t48 -15.5t37 -20.5t28 -22t19 -20.5t12 -15.5l3 -6h12l12 82h150l-86 -601q104 0 192 46t147.5 133.5t75.5 200.5q13 94 -5.5 180.5t-69.5 158.5t-127.5 126 t-185 84t-237.5 30q-150 0 -290.5 -55.5t-250 -152t-184.5 -232t-97 -289.5q-21 -154 16 -289.5t119 -231.5t207 -152t274 -56q76 0 151.5 12t130 29t98 34.5t65.5 29.5l22 12l-18 -139q-4 -3 -12 -7t-34 -16t-54 -23t-71 -24.5t-86.5 -23t-99.5 -16.5t-111 -7 q-123 0 -233 30t-197 85t-155.5 133t-108.5 174.5t-56 209zM704 740q-9 -67 16.5 -126.5t74 -93.5t106.5 -34q39 0 76.5 14.5t63 34.5t46 40.5t30.5 35.5l10 14l35 232q-2 5 -6.5 14.5t-21 33.5t-36 42t-53.5 33.5t-73 15.5q-88 0 -170.5 -76.5t-97.5 -179.5z" />
<glyph unicode="A" horiz-adv-x="1550" d="M-69 0l615 1597h671l172 -1597h-163l-49 405h-925l-159 -405h-162zM307 556h857l-95 890h-416z" />
<glyph unicode="B" horiz-adv-x="1561" d="M58 0l222 1597h683q102 0 184.5 -32.5t134.5 -87.5t76 -129q16 -50 15 -105q0 -25 -3 -51q-8 -52 -26 -97t-40.5 -76t-48.5 -56.5t-50 -40.5t-44 -25t-32 -14l-11 -4l-3 -11q5 -1 13 -2t34.5 -6.5t49 -14t56.5 -24t58.5 -37t53.5 -51.5t42 -69q12 -40 22 -90q5 -23 5 -47 q0 -31 -7 -64q-14 -95 -64 -179.5t-125.5 -147.5t-178.5 -99.5t-217 -36.5h-799zM241 150h636q161 0 272 89.5t131 223.5q3 22 3 43q1 41 -11 79q-18 57 -58 99.5t-104 66.5t-145 24h-636zM349 925h521q91 0 164.5 34.5t118 95t55.5 137.5q2 18 2 34q0 86 -60 147 q-72 73 -208 73h-521z" />
<glyph unicode="C" horiz-adv-x="1746" d="M87 570q-8 54 -8 109q0 59 9 120q16 116 63.5 228.5t116 207.5t157 175.5t187 137t206.5 88t214 31.5q114 0 214 -28.5t173.5 -76.5t129.5 -111t88 -131.5t43 -139.5l-165 -23q-14 54 -40.5 104t-70 97t-99 81.5t-131 55t-163.5 20.5q-124 0 -252.5 -57t-233.5 -152.5 t-180 -229.5t-95 -277q-8 -53 -8 -103q0 -44 6 -88q14 -92 47 -172t87 -145t119.5 -112t144.5 -72.5t162 -25.5q117 0 221.5 31.5t184.5 88t141.5 124.5t108.5 150l161 -24q-40 -82 -96.5 -156.5t-135 -141.5t-169 -116t-203.5 -77.5t-235 -28.5q-105 0 -204.5 31.5t-181 88 t-148.5 136.5t-107.5 176.5t-57.5 206.5z" />
<glyph unicode="D" horiz-adv-x="1596" d="M58 0l222 1597h486q188 0 338 -60t244.5 -165.5t134.5 -253.5q25 -93 26 -195q1 -60 -9 -124q-24 -172 -105.5 -320t-205.5 -253.5t-290.5 -165.5t-354.5 -60h-486zM241 150h324q154 0 289 48t234.5 133t164.5 205.5t85 262.5q8 55 8 106q0 82 -20 156q-32 120 -108 205 t-197.5 132.5t-275.5 47.5h-324z" />
<glyph unicode="E" horiz-adv-x="1365" d="M58 0l222 1597h1146l-21 -151h-984l-79 -567h776l-21 -150h-775l-81 -579h983l-21 -150h-1145z" />
<glyph unicode="F" horiz-adv-x="1307" d="M58 0l222 1597h1100l-22 -151h-937l-85 -613h752l-21 -150h-752l-95 -683h-162z" />
<glyph unicode="G" horiz-adv-x="1793" d="M87 568q-8 54 -8 110q0 59 9 121q16 117 63 230t115.5 208t157 175.5t187 136t207 87t214.5 31.5q114 0 214 -28.5t173.5 -76.5t129.5 -111t88 -131.5t43 -139.5l-165 -23q-14 54 -40.5 104t-70 97t-99 81.5t-131 55t-163.5 20.5q-99 0 -202 -35.5t-195 -102t-168.5 -154 t-128 -198t-67.5 -226.5q-8 -53 -8 -103q0 -45 6 -88q14 -92 47 -172t87 -145t119.5 -112t144.5 -72.5t162 -25.5q126 0 250 48t217.5 125.5t157 178t78.5 203.5h-532l21 150h694l-9 -68q-23 -167 -103.5 -313t-199.5 -250t-274 -164t-322 -60q-106 0 -205.5 31t-181 87.5 t-148.5 136t-107 175.5t-57 207z" />
<glyph unicode="H" horiz-adv-x="1584" d="M58 0l222 1597h162l-100 -718h915l99 718h162l-222 -1597h-161l101 729h-914l-102 -729h-162z" />
<glyph unicode="I" horiz-adv-x="508" d="M58 0l222 1597h162l-222 -1597h-162z" />
<glyph unicode="J" horiz-adv-x="1237" d="M-51 301l166 35q21 -112 98 -183.5t202 -71.5q169 0 292 118t152 322l150 1076h162l-151 -1076q-18 -132 -75 -243t-140 -187t-189.5 -118t-222.5 -42q-96 0 -178 31.5t-136.5 84t-88 118t-41.5 136.5z" />
<glyph unicode="K" horiz-adv-x="1433" d="M58 0l222 1597h162l-122 -879l967 879h208l-687 -625l488 -972h-185l-435 857l-387 -347l-69 -510h-162z" />
<glyph unicode="L" horiz-adv-x="1283" d="M58 0l222 1597h162l-201 -1447h925l-20 -150h-1088z" />
<glyph unicode="M" horiz-adv-x="1943" d="M58 0l222 1597h173l519 -764l731 764h174l-223 -1597h-161l190 1354h-12l-734 -764l-516 764h-12l-189 -1354h-162z" />
<glyph unicode="N" horiz-adv-x="1607" d="M58 0l222 1597h173l730 -1319h11l186 1319h161l-222 -1597h-173l-729 1319h-12l-185 -1319h-162z" />
<glyph unicode="O" horiz-adv-x="1873" d="M82 626q-2 30 -2 59q0 56 8 114q17 115 64 227t116 207t159.5 176t191 137.5t213.5 88.5t223 32q96 0 186 -23.5t166.5 -66t142.5 -103t113 -135t79 -161t40 -182.5q3 -36 3 -73q0 -61 -8 -124q-16 -117 -63 -229t-116.5 -207t-160 -175.5t-191 -137t-213 -88 t-223.5 -31.5q-83 0 -163 18t-149.5 51t-131.5 80.5t-111 106.5t-87 128.5t-58.5 148t-27.5 162.5zM249 610q14 -92 47 -172t89 -145.5t123.5 -112.5t150.5 -73t172 -26q132 0 265.5 57.5t240.5 153.5t183 229.5t96 277.5q8 51 8 100q0 45 -7 89q-14 92 -47.5 171.5 t-89.5 145t-124 112.5t-151 72.5t-171 25.5q-132 0 -265.5 -57t-240.5 -153t-182.5 -229t-95.5 -277q-8 -51 -7 -100q-1 -45 6 -89z" />
<glyph unicode="P" horiz-adv-x="1550" d="M58 0l222 1597h671q110 0 202.5 -28t159.5 -79t111 -120.5t60 -156.5q9 -46 9 -96q0 -43 -7 -87q-14 -96 -54 -183.5t-103.5 -157t-144.5 -120.5t-181 -78.5t-210 -27.5h-508l-65 -463h-162zM305 614h510q205 0 343.5 115.5t164.5 299.5q5 35 5 68q0 53 -13 100 q-21 77 -71 132t-130.5 86t-183.5 31h-509z" />
<glyph unicode="Q" horiz-adv-x="1885" d="M82 626q-2 29 -2 59q0 56 8 114q17 115 64 227t116 207t159.5 176t191 137.5t213.5 88.5t223 32q96 0 186 -23.5t166.5 -66t142.5 -103t113 -135t79 -161t40 -182.5q3 -36 3 -73q0 -61 -8 -124q-13 -97 -47.5 -191.5t-74 -159.5t-77.5 -116t-63 -76l-25 -24l208 -243 l-132 -117l-208 243q-9 -7 -27 -19.5t-75.5 -44.5t-118 -56t-150 -44t-177.5 -20q-83 0 -163 18t-149.5 51t-131.5 80.5t-111 106.5t-87 128.5t-58.5 147.5t-27.5 163zM249 610q14 -92 47 -172t89 -145.5t123.5 -112.5t150.5 -73t172 -26q71 0 142.5 15.5t122.5 38t92 44.5 t62 37l20 16l-141 161l132 117l141 -163q7 7 19 20.5t44.5 58.5t59 94t53.5 125t38 154q8 51 8 100q0 45 -7 89q-14 92 -47.5 171.5t-89.5 145t-124 112.5t-151 72.5t-171 25.5q-132 0 -265.5 -57t-240.5 -153t-182.5 -229t-95.5 -277q-8 -51 -8 -100q0 -45 7 -89z" />
<glyph unicode="R" horiz-adv-x="1572" d="M58 0l222 1597h718q128 0 229 -39.5t165 -108.5t90 -165q17 -61 16 -129q0 -38 -5 -79q-12 -83 -42 -154.5t-68.5 -119.5t-82.5 -87t-85.5 -61.5t-75 -37.5t-54.5 -21l-21 -5l243 -590h-172l-237 556h-602l-76 -556h-162zM318 706h554q119 0 219.5 49t162.5 133t77 188 q4 29 4 56q1 72 -27 132q-38 84 -125.5 133t-206.5 49h-555z" />
<glyph unicode="S" horiz-adv-x="1422" d="M9 405l167 23q21 -76 55.5 -137t86.5 -109.5t126.5 -74.5t166.5 -26q105 0 196 28t153.5 75t101.5 107t49 126q2 14 2 28q0 39 -15 73q-20 46 -49.5 74.5t-95 58.5t-109 45t-131.5 41q-75 23 -113.5 35.5t-105 39t-102 49t-80.5 59.5t-65 78q-21 40 -31 96q-6 30 -5 63 q0 28 4 58q12 87 64.5 168.5t133.5 144.5t194.5 101t240.5 38q122 0 218.5 -32t160 -90.5t103.5 -131.5t59 -163l-167 -35q-21 73 -51 125.5t-75.5 93.5t-113 61t-156.5 20q-92 0 -174 -25.5t-138.5 -68t-92.5 -96.5t-44 -110q-2 -15 -2 -28q0 -39 15 -73q20 -46 49.5 -75 t95 -59t109 -44.5t131.5 -40.5q74 -23 112.5 -35.5t105 -39t102 -49t80.5 -59.5t65 -77.5t31 -96.5q6 -29 6 -61q0 -29 -5 -60q-14 -96 -69 -183.5t-142 -155t-209.5 -107.5t-261.5 -40q-131 0 -235 36t-174 101t-112.5 149.5t-59.5 187.5z" />
<glyph unicode="T" horiz-adv-x="1341" d="M108 1446l22 151h1296l-21 -151h-568l-201 -1446h-161l201 1446h-568z" />
<glyph unicode="U" horiz-adv-x="1596" d="M139 590l141 1007h162l-141 -1007q-8 -51 -7 -98q0 -60 12 -113q22 -96 74 -161t132 -101t180 -36q133 0 246 61.5t189.5 178t98.5 269.5l141 1007h163l-141 -1007q-27 -199 -127 -349.5t-253 -230t-338 -79.5q-138 0 -247 46.5t-179 130.5t-98 208q-16 72 -16 154 q0 58 8 120z" />
<glyph unicode="V" horiz-adv-x="1572" d="M176 1597h162l146 -1447h417l548 1447h161l-603 -1597h-671z" />
<glyph unicode="W" horiz-adv-x="2140" d="M176 1597h162l99 -1447h82l513 1447h289l112 -1447h80l503 1447h162l-558 -1597h-335l-112 1435h-34l-514 -1435h-336z" />
<glyph unicode="X" horiz-adv-x="1422" d="M-81 0q115 139 347 416.5t348 416.5l-426 764h185l351 -637h12l527 637h186l-639 -764q284 -517 462 -833h-184l-390 706h-11l-583 -706h-185z" />
<glyph unicode="Y" horiz-adv-x="1480" d="M130 1597h180l410 -879h9l655 879h180l-784 -1065l-74 -532h-162l74 532z" />
<glyph unicode="Z" horiz-adv-x="1376" d="M-46 0l20 162l1211 1273v11h-995l20 151h1192l-20 -162l-1210 -1273v-12h1040l-20 -150h-1238z" />
<glyph unicode="[" horiz-adv-x="728" d="M11 -324l281 1991h509l-21 -152h-347l-239 -1689h347l-20 -150h-510z" />
<glyph unicode="\" horiz-adv-x="879" d="M153 1597h162l403 -1597h-162z" />
<glyph unicode="]" horiz-adv-x="728" d="M-115 -324l20 150h347l238 1689h-346l20 152h509l-280 -1991h-508z" />
<glyph unicode="^" horiz-adv-x="994" d="M97 857l437 740h139l234 -740h-150l-174 554h-9l-327 -554h-150z" />
<glyph unicode="_" horiz-adv-x="821" d="M-176 -428l23 150h820l-24 -150h-819z" />
<glyph unicode="`" horiz-adv-x="566" d="M159 1469l88 139l332 -208l-60 -93z" />
<glyph unicode="a" d="M40 532q13 99 53 189t98 160t129 122.5t150.5 80t158.5 27.5q50 0 95 -11t77.5 -28.5t60 -38.5t45.5 -41.5t30.5 -38t17.5 -28.5l5 -11h12l21 150h151l-148 -1064h-151l21 150h-12q-6 -8 -17 -21t-49 -47t-79.5 -60t-107 -47t-133.5 -21q-99 0 -186 43.5t-146.5 119 t-86.5 184.5q-16 65 -16 135q0 47 7 96zM190 532q-6 -42 -6 -81q0 -51 10 -99q18 -84 61.5 -140t106 -87.5t135.5 -31.5q50 0 98.5 14t86.5 36.5t73 49.5t59.5 54t43 49.5t27.5 36.5l9 14l51 371q-2 5 -5.5 14t-16.5 35.5t-28.5 50.5t-43 53.5t-58.5 50.5t-76 35.5t-94 14.5 q-59 0 -117 -20t-110 -58.5t-94 -91t-71.5 -122.5t-40.5 -148z" />
<glyph unicode="b" horiz-adv-x="1261" d="M35 0l222 1597h150l-95 -683h12q3 4 9 11t25.5 27.5t41.5 39t56.5 41.5t71 39t85 27.5t98.5 11.5q99 0 185.5 -44t146 -119t86.5 -184q17 -67 16 -139q0 -45 -6 -93q-18 -122 -75.5 -231t-138 -184.5t-179.5 -119t-198 -43.5q-50 0 -95 10.5t-77 28t-59.5 38.5t-45 42 t-30 38.5t-18.5 27.5l-5 11h-12l-21 -150h-150zM234 347q2 -5 5 -14.5t16 -36t29 -50.5t43.5 -53t58.5 -50t75.5 -35.5t94.5 -14.5q74 0 145.5 31.5t130 87.5t100.5 140q42 82 56 180q6 42 5 81q0 52 -10 100q-18 83 -61 139.5t-105.5 88t-136.5 31.5q-49 0 -98 -14 t-87 -36.5t-72.5 -49.5t-59 -54.5t-42.5 -49.5t-27 -36l-9 -14z" />
<glyph unicode="c" horiz-adv-x="1191" d="M40 532q9 69 33.5 134.5t60 122.5t80.5 107t98 89t110 67.5t119 43.5t123 15q65 0 123 -12.5t102 -35t80.5 -52t61.5 -65t41 -72.5t23 -75l-156 -35q-8 41 -29 76.5t-55.5 66t-88.5 48t-121 17.5q-103 0 -201 -56t-167.5 -158t-86.5 -226q-6 -37 -6 -72q0 -24 3 -48 q7 -58 26 -107t50.5 -88t71 -67t87 -42.5t99.5 -14.5q71 0 134.5 19.5t112.5 55t86 80.5t62 99l144 -35q-27 -71 -77 -134.5t-119.5 -114t-163 -80t-198.5 -29.5q-107 0 -200.5 45t-157 122t-92.5 185q-18 68 -18 140q0 42 6 86z" />
<glyph unicode="d" horiz-adv-x="1261" d="M40 532q13 99 53 189t98 160t129 122.5t150.5 80t158.5 27.5q50 0 95 -11t77.5 -28.5t60 -38.5t45.5 -41.5t30.5 -38t17.5 -28.5l5 -11h12l95 683h150l-221 -1597h-151l21 150h-12q-6 -8 -17 -21t-49 -47t-79.5 -60t-107 -47t-133.5 -21q-99 0 -186 43.5t-146.5 119 t-86.5 184.5q-16 65 -16 135q0 47 7 96zM190 532q-6 -42 -6 -81q0 -51 10 -99q18 -84 61.5 -140t106 -87.5t135.5 -31.5q50 0 98.5 14t86.5 36.5t73 49.5t59.5 54t43 49.5t27.5 36.5l9 14l51 371q-2 5 -5.5 14t-16.5 35.5t-28.5 50.5t-43 53.5t-58.5 50.5t-76 35.5t-94 14.5 q-59 0 -117 -20t-110 -58.5t-94 -91t-71.5 -122.5t-40.5 -148z" />
<glyph unicode="e" horiz-adv-x="1214" d="M40 532q13 99 53 189t99.5 160t133 122.5t157.5 80t170 27.5q107 0 198.5 -44t153 -119.5t89.5 -183.5q17 -67 16 -140q0 -45 -6 -92l-79 -69h-844v-18q-1 -91 37 -169q42 -84 121.5 -133.5t181.5 -49.5q75 0 141 19.5t115 54t85 77t59 92.5l146 -31q-31 -69 -82 -130.5 t-121 -111.5t-163 -79.5t-197 -29.5q-112 0 -207 43.5t-157 118.5q-62 76 -90 184q-17 66 -17 137q0 46 7 95zM199 601h764v14q0 95 -38 174q-41 85 -118 134t-173.5 49t-187 -49t-156 -134t-91.5 -188z" />
<glyph unicode="f" horiz-adv-x="658" d="M60 925l19 139h162l28 197q23 163 130 261t256 98q47 0 91 -11.5t66 -22.5l21 -12l-53 -139q-6 5 -17.5 13t-49.5 20.5t-79 12.5q-52 0 -97 -25.5t-76.5 -76t-41.5 -118.5l-28 -197h289l-18 -139h-289l-130 -925h-150l130 925h-163z" />
<glyph unicode="g" d="M9 -174l155 35q55 -208 295 -208q98 0 180 43t136.5 125t69.5 190l25 186h-11q-6 -8 -17 -21.5t-48.5 -47.5t-79 -59.5t-106.5 -47t-133 -21.5q-99 0 -186.5 43.5t-147 117t-87.5 177.5q-18 66 -18 136q0 41 6 82q16 114 73 217.5t137 177t179.5 117t197.5 43.5 q50 0 95 -11t77.5 -28.5t60 -38.5t45.5 -41.5t30.5 -38t17.5 -28.5l5 -11h12l21 150h151l-148 -1053q-15 -106 -65 -199t-124 -158t-169 -102.5t-198 -37.5q-97 0 -174.5 25.5t-128.5 70.5t-82.5 99t-45.5 117zM192 556q-5 -36 -5 -70q0 -50 11 -98q20 -78 63 -132 t106.5 -85.5t136.5 -31.5q50 0 98.5 14t86.5 36.5t72 49.5t58.5 54t43 49.5t26.5 36.5l9 14l47 325q-2 5 -5.5 14t-16.5 35.5t-28.5 50.5t-43 53.5t-58.5 50.5t-76 35.5t-94 14.5q-98 0 -190.5 -52.5t-158 -149t-82.5 -214.5z" />
<glyph unicode="h" horiz-adv-x="1237" d="M35 0l222 1597h150l-95 -683h12q7 8 18.5 21.5t51 47t81.5 59.5t106.5 47.5t129.5 21.5q95 0 171 -34t126 -96q49 -61 69 -153q11 -49 11 -105q0 -47 -8 -98l-84 -625h-151l85 625q6 41 6 78q0 107 -52 177q-70 92 -204 92q-47 0 -94.5 -14t-85.5 -36.5t-72.5 -49.5 t-60 -54.5t-44.5 -49.5t-29 -36l-9 -14l-100 -718h-150z" />
<glyph unicode="i" horiz-adv-x="485" d="M53 0l148 1064h150l-148 -1064h-150zM234 1504q2 21 13 40.5t26.5 33.5t36 22t41.5 8q44 0 70 -30q22 -26 22 -60q0 -7 -1 -14q-5 -28 -21.5 -52t-42 -38t-54.5 -14q-43 0 -70 30q-21 24 -21 57q0 8 1 17z" />
<glyph unicode="j" horiz-adv-x="466" d="M-384 -440l53 139q6 -5 17 -12.5t48 -20.5t78 -13q79 0 140 57t74 151l168 1203h151l-169 -1203q-22 -155 -128.5 -251t-253.5 -96q-46 0 -90.5 11.5t-66.5 23.5zM227 1504q5 43 39.5 73.5t78.5 30.5q43 0 69 -30q22 -26 22 -60q0 -7 -1 -14q-7 -43 -41 -73.5t-76 -30.5 q-44 0 -71 30q-21 25 -21 57q0 8 1 17z" />
<glyph unicode="k" horiz-adv-x="1098" d="M35 0l222 1597h150l-153 -1100l634 567h186l-449 -404l347 -660h-162l-294 556h-12l-277 -244l-42 -312h-150z" />
<glyph unicode="l" horiz-adv-x="508" d="M93 0l203 1458h-185l19 139h336l-223 -1597h-150z" />
<glyph unicode="m" horiz-adv-x="1804" d="M23 0l149 1064h150l-21 -150h11q5 8 14 21.5t40.5 47t66 59.5t88 47.5t108.5 21.5q52 0 97 -11.5t75.5 -30t55.5 -40.5t39 -44.5t24 -40.5t13 -30l4 -11h12q5 8 13.5 22t40.5 50t69 63.5t99 50t130 22.5q185 0 283 -125q75 -96 74 -246q0 -44 -6 -93l-90 -647h-151 l91 647q5 39 5 73q1 98 -43 164q-60 88 -181.5 88t-212.5 -89.5t-112 -235.5l-90 -647h-150l90 647q4 31 4 61q0 38 -7 73q-13 62 -43 103t-72.5 64.5t-90.5 23.5q-40 0 -79.5 -14t-71 -36.5t-60 -49.5t-49 -54.5t-35.5 -49.5t-23 -36l-8 -14l-99 -718h-151z" />
<glyph unicode="n" horiz-adv-x="1226" d="M23 0l149 1064h150l-21 -150h11q6 8 18 21.5t51 47t81.5 59.5t106.5 47.5t129 21.5q95 0 171.5 -34t126.5 -96q49 -61 69 -153q11 -51 11 -108q0 -45 -7 -95l-86 -625h-150l86 625q6 41 6 78q0 107 -52 177q-70 92 -204 92q-47 0 -94.5 -14t-85.5 -36.5t-73 -49.5 t-60 -54.5t-44 -49.5t-29 -36l-10 -14l-99 -718h-151z" />
<glyph unicode="o" horiz-adv-x="1272" d="M40 532q9 71 32.5 138t58.5 124t80 106.5t98 88t112 66t124 42t131 14.5q115 0 211.5 -43.5t160 -119.5t91.5 -184q17 -67 17 -141q0 -45 -6 -91q-24 -165 -115.5 -297.5t-228.5 -206.5t-292 -74q-115 0 -212 43.5t-160.5 119.5t-91.5 184q-17 66 -17 137q0 46 7 94z M190 532q-6 -37 -6 -73q0 -53 13 -103q21 -82 68 -139.5t116.5 -90.5t150.5 -33q110 0 210.5 56t170 157.5t87.5 225.5q5 36 5 70q0 55 -13 106q-21 82 -67.5 139.5t-116 91t-150.5 33.5q-110 0 -211 -56.5t-170.5 -158t-86.5 -225.5z" />
<glyph unicode="p" d="M-44 -463l216 1527h150l-21 -150h11q6 8 17 21.5t49 47t79.5 59.5t107 47.5t133.5 21.5q100 0 186.5 -44t146 -119t86.5 -184q17 -67 17 -139q0 -45 -7 -93q-18 -122 -75.5 -231t-138 -184.5t-179 -119t-197.5 -43.5q-50 0 -95 10.5t-77.5 28t-60 38.5t-45 42t-30.5 38.5 t-18 27.5l-5 11h-12l-88 -613h-150zM223 347q1 -5 4.5 -14.5t16.5 -36t28.5 -50.5t43 -53t58.5 -50t75.5 -35.5t94.5 -14.5q73 0 145 31.5t131 87.5t101 139.5t55 180.5q6 42 6 80q0 53 -10 101q-19 83 -61.5 139.5t-105 88t-136.5 31.5q-50 0 -98.5 -14t-86.5 -36.5 t-72.5 -49.5t-59 -54.5t-43 -49.5t-27.5 -36l-9 -14z" />
<glyph unicode="q" d="M40 532q13 99 53 189t98 160t129 122.5t150.5 80t158.5 27.5q50 0 95 -11t77.5 -28.5t60 -38.5t45.5 -41.5t30.5 -38t17.5 -28.5l5 -11h12l21 150h151l-216 -1527h-151l89 613h-12q-6 -8 -17 -21t-49 -47t-79.5 -60t-107 -47t-133.5 -21q-99 0 -186 43.5t-146.5 119 t-86.5 184.5q-16 65 -16 135q0 47 7 96zM190 532q-6 -42 -6 -81q0 -52 10 -99q19 -84 62 -140t105.5 -87.5t135.5 -31.5q50 0 98.5 14t86.5 36.5t73 49.5t59.5 54t43 49.5t27.5 36.5l9 14l51 371q-2 5 -5.5 14t-16.5 35.5t-28.5 50.5t-43 53.5t-58.5 50.5t-76 35.5t-94 14.5 q-59 0 -117 -20t-110 -58.5t-94 -91t-71.5 -122.5t-40.5 -148z" />
<glyph unicode="r" horiz-adv-x="705" d="M23 0l149 1064h150l-21 -150h11q3 4 9 11t26.5 27.5t42.5 39t56.5 41.5t70 39t80.5 27.5t90 11.5h35l-20 -151h-47q-45 0 -90 -13t-81.5 -34.5t-70.5 -47.5t-59 -52t-43.5 -47.5t-27.5 -34.5l-10 -13l-99 -718h-151z" />
<glyph unicode="s" horiz-adv-x="1064" d="M-33 278l156 23q12 -42 35 -77.5t59 -65.5t90.5 -47.5t120.5 -17.5q75 0 138.5 17.5t105 46t66.5 63t30 69.5q1 9 1 18q0 29 -15 53q-20 30 -58.5 50.5t-90 36.5t-109 30.5t-114.5 30.5t-107.5 40.5t-87.5 56.5q-37 31 -55 81q-12 32 -12 72q0 20 3 41q9 61 45 117 t94.5 99.5t144.5 69.5t187 26q59 0 112 -11.5t94 -32t75.5 -46.5t58.5 -56t40 -60t24 -60l-156 -23q-77 150 -266 150q-130 0 -211.5 -53t-91.5 -120q-1 -8 -1 -16q0 -31 16 -55q20 -30 59 -50.5t90.5 -36.5t109 -30.5t114.5 -30.5t107.5 -40.5t87.5 -56.5q36 -31 54 -81 q12 -32 12 -72q0 -20 -3 -41q-9 -66 -48 -126t-102.5 -107t-157 -74.5t-202.5 -27.5q-96 0 -175.5 27.5t-132 74.5t-86 103t-48.5 119z" />
<glyph unicode="t" horiz-adv-x="775" d="M60 925l19 139h162l41 301h151l-42 -301h289l-18 -139h-289l-88 -613q-3 -23 -3 -45q0 -71 34 -115q44 -58 124 -59q41 0 80 11.5t58 22.5l19 12l17 -139q-4 -2 -10.5 -5t-27.5 -11t-42.5 -14t-52 -11t-60.5 -5q-149 0 -229 98q-63 76 -63 193q0 32 5 67l89 613h-163z " />
<glyph unicode="u" horiz-adv-x="1237" d="M84 440l88 624h150l-88 -624q-6 -40 -6 -75q0 -109 54 -179q70 -92 204 -93q47 0 94.5 14t85.5 36.5t72.5 49.5t60 54t44.5 49.5t29 36.5l9 14l100 717h150l-148 -1064h-150l21 150h-12q-6 -8 -18 -21t-51.5 -47t-81.5 -60t-106.5 -47t-129.5 -21q-95 0 -171 34t-126 96 t-70 154q-12 51 -11 108q0 45 7 94z" />
<glyph unicode="v" horiz-adv-x="1144" d="M102 1064h150l68 -925h312l326 925h151l-380 -1064h-544z" />
<glyph unicode="w" horiz-adv-x="1619" d="M102 1064h150l68 -925h69l326 925h255l67 -925h69l327 925h150l-368 -1064h-312l-68 925h-23l-326 -925h-312z" />
<glyph unicode="x" horiz-adv-x="1029" d="M-93 0l470 556l-287 508h173l223 -393h11l334 393h174l-431 -508l316 -556h-172l-252 440h-13l-372 -440h-174z" />
<glyph unicode="y" horiz-adv-x="1144" d="M88 -440l53 139q6 -5 17 -12.5t48.5 -20.5t78.5 -13q40 0 76 17t73 56t73 107.5t72 166.5h-394l-83 1064h150l68 -925h312l326 925h151l-380 -1064q-67 -184 -137 -291t-147 -151t-178 -44q-47 0 -91.5 11.5t-65.5 23.5z" />
<glyph unicode="z" horiz-adv-x="1029" d="M-58 0l21 150l801 764l2 11h-671l18 139h868l-21 -150l-801 -764l-2 -11h718l-18 -139h-915z" />
<glyph unicode="{" horiz-adv-x="714" d="M84 -35q6 46 88 260.5t89 260.5q4 28 -9 55t-40.5 43.5t-61.5 16.5h-66l20 152h68q51 0 94.5 35.5t48.5 79.5q7 46 -15 260t-15 261q13 93 56 157t117.5 98t177.5 34h128l-22 -150h-126q-76 0 -124 -38.5t-57 -100.5q-7 -47 21 -261t21 -260q-6 -45 -24.5 -81 t-39.5 -54.5t-41.5 -31t-33.5 -15.5l-14 -3l-2 -12q5 -1 13.5 -3.5t28.5 -15.5t34.5 -31t23 -54t2.5 -81q-7 -46 -95 -260.5t-95 -260.5q-6 -41 8.5 -72t49 -49t85.5 -18h127l-20 -150h-128q-155 0 -223.5 74.5t-48.5 214.5z" />
<glyph unicode="|" horiz-adv-x="578" d="M58 -232l278 1968h161l-277 -1968h-162z" />
<glyph unicode="}" horiz-adv-x="714" d="M-93 -324l22 150h126q77 0 124.5 38t56.5 101q7 46 -20.5 260.5t-21.5 260.5q7 45 25 81t39 54.5t41.5 30.5t33.5 16l14 3l2 12q-1 0 -4 0.5t-11.5 3.5t-16 7.5t-18.5 12t-18.5 17.5t-16.5 24t-12.5 31.5t-6.5 39.5t2 49q6 38 50.5 149t89.5 222t50 150q9 62 -29 100.5 t-114 38.5h-128l22 150h127q155 0 223.5 -74.5t49.5 -214.5q-7 -47 -89.5 -261t-89.5 -260q-5 -44 28 -79.5t84 -35.5h67l-21 -152h-68q-33 0 -65 -16.5t-53 -43t-25 -55.5q-7 -46 15 -260.5t15 -260.5q-19 -141 -108 -215t-243 -74h-128z" />
<glyph unicode="~" horiz-adv-x="971" d="M40 625q15 102 97 178t170 76q52 0 93.5 -19t69.5 -46.5t54 -54.5t58.5 -46t70.5 -19t78 46t60 128l110 -58q-15 -102 -98 -178t-171 -76q-52 0 -93.5 19t-69 46t-53.5 54t-58.5 46t-70.5 19t-78.5 -46t-60.5 -127z" />
<glyph unicode="&#xa2;" horiz-adv-x="1191" d="M39.5 532.5q15.5 107.5 66 206.5t123.5 173.5t165 125t189 66.5l28 203h151l-29 -201q80 -9 146 -39t110 -73t70.5 -92.5t35.5 -102.5l-156 -35q-8 41 -29 76.5t-55.5 66t-88.5 48t-121 17.5q-103 0 -201 -56t-167.5 -158t-86.5 -226q-10 -63 -3 -120.5t26 -106.5 t50.5 -88t71 -67t87 -42.5t99.5 -14.5q71 0 134.5 19.5t112.5 55t86 80.5t62 99l144 -35q-20 -52 -52 -100t-76.5 -91t-98 -76.5t-120.5 -56t-141 -30.5l-28 -196h-151l28 198q-92 16 -169.5 66.5t-129.5 125t-75 174t-7.5 207z" />
<glyph unicode="&#xa3;" horiz-adv-x="1157" d="M-69 0l20 150h104q87 0 156 61t81 147l59 428h-185l22 151h185l51 359q21 149 125.5 236.5t267.5 87.5q46 0 90.5 -11.5t66.5 -22.5l22 -12l-45 -150q-7 5 -19.5 12.5t-53 20t-81.5 12.5q-86 0 -143 -47t-69 -126l-51 -359h290l-21 -151h-289l-61 -428q-5 -39 -19 -73.5 t-31 -56t-32.5 -37.5t-26.5 -23l-11 -6v-12h707l-22 -150h-1087z" />
<glyph unicode="&#xa5;" horiz-adv-x="1387" d="M130 1597h180l363 -879h10l609 879h180l-666 -961h300l-18 -139h-359l-23 -161h358l-20 -139h-359l-25 -197h-163l26 197h-359l21 139h359l23 161h-359l19 139h301z" />
<glyph unicode="&#xa7;" horiz-adv-x="1110" d="M-9 267l153 22q11 -46 34 -84t58 -69.5t86.5 -49t114.5 -17.5q140 0 228 55t99 130q5 37 -10.5 67t-47 50t-74 38.5t-91 33t-100 32t-99.5 36t-89.5 45.5t-70.5 59.5t-42.5 79.5t-5.5 104q7 42 25 80.5t42.5 66t52 50.5t54.5 38t48.5 25t34.5 15l14 4l2 10q-8 3 -20.5 8 t-43.5 26t-53.5 48t-36.5 76.5t-6 107.5q9 61 45 117t94 100t142 70t181 26q78 0 146.5 -25t115.5 -66.5t79 -89t47 -97.5l-155 -24q-70 163 -255 163q-122 0 -201 -53.5t-88 -120.5q-6 -43 12 -76.5t54 -56.5t83.5 -42t100.5 -37t106 -37.5t99.5 -46.5t80.5 -61t50 -84.5 t7 -113.5q-6 -43 -24.5 -81t-42.5 -65.5t-52 -51t-55 -38.5t-49 -25t-35 -15l-13 -4l-2 -9q4 -2 12 -4.5t31 -12.5t43 -22t44 -33.5t40 -46.5t24 -61t2 -76q-10 -66 -47 -124t-98 -102.5t-152 -70.5t-200 -26q-74 0 -138.5 18.5t-112 49.5t-84.5 74t-59 91.5t-32 102.5z M285 799q-6 -38 7 -70.5t37.5 -54.5t55.5 -39.5t63 -27.5t58.5 -17t43.5 -9l17 -2q3 0 9 1.5t23 7t34 12t40.5 17.5t43.5 23.5t41.5 29.5t37.5 36t28 43t16 50q5 38 -7.5 70.5t-37 54t-55.5 39t-63 27.5t-58.5 17t-43.5 9l-17 2q-3 -1 -8.5 -2t-23 -6.5t-34.5 -12 t-40.5 -17.5t-44 -23t-42 -29.5t-37.5 -36t-28 -42.5t-15 -50z" />
<glyph unicode="&#xa8;" horiz-adv-x="716" d="M164 1504q5 35 37.5 64t67.5 29t60 -29t20 -64q-3 -23 -19.5 -44.5t-40 -35t-46.5 -13.5q-35 0 -59.5 29t-19.5 64zM558 1504q5 35 37.5 64t66.5 29q23 0 43 -13.5t30.5 -35t6.5 -44.5q-5 -35 -38 -64t-67.5 -29t-59 29t-19.5 64z" />
<glyph unicode="&#xa9;" horiz-adv-x="2082" d="M60.5 466q-7.5 94 8.5 194q18 131 70 255.5t128 230t176.5 194t213 150.5t240 96t256.5 34q110 0 213 -25t189 -72t160.5 -113t126.5 -148.5t87.5 -178.5t43.5 -202.5t-6 -220.5q-19 -131 -71 -256t-128.5 -230t-177 -193.5t-213 -150.5t-240 -96.5t-256.5 -34.5 q-96 0 -187 19.5t-170 56t-149 88.5t-124 117t-96 142t-64.5 163.5t-30 180.5zM219 442.5q16 -104.5 54.5 -196t103.5 -166.5t144.5 -129t177.5 -83.5t204 -29.5q90 0 181.5 22t175.5 62.5t162 97t143.5 128t117 152t86 173t48.5 187.5q12 97 4 187.5t-38 172.5t-75 152.5 t-107.5 127.5t-135 97.5t-158 62t-176.5 21.5q-105 0 -211.5 -29.5t-201 -82.5t-179.5 -129.5t-150 -166t-109 -196t-60 -217.5q-17 -113 -1 -217.5zM647 660q15 108 76.5 196t153 137t194.5 49q51 0 95.5 -13t78 -35.5t59.5 -54t42.5 -66.5t25.5 -74l-129 -13 q-12 50 -61 89t-129 39q-97 0 -174.5 -71.5t-92.5 -182.5q-16 -111 40.5 -183t154.5 -72q96 0 159.5 39.5t93.5 99.5l124 -12q-54 -113 -155 -183.5t-240 -70.5q-103 0 -181 49t-114.5 137t-20.5 196z" />
<glyph unicode="&#xaa;" horiz-adv-x="797" d="M102 1064q14 102 100 167t222 65h219q12 87 -30.5 136t-128.5 49q-64 0 -107 -26.5t-81 -77.5l-99 34q40 78 119 132t183 54q139 0 215 -85t57 -216l-60 -439h-128l11 92h-11l-6.5 -6.5t-18.5 -16.5t-29.5 -23t-39 -24.5t-48 -23t-55.5 -16t-62 -6.5q-111 0 -173.5 67 t-48.5 164zM229 1064q-7 -53 24 -84t98 -31q29 0 58.5 7t54.5 18t48.5 24.5t41.5 27t31.5 25t20.5 18.5l8 7l13 104h-208q-174 0 -190 -116z" />
<glyph unicode="&#xab;" horiz-adv-x="971" d="M28 532l317 440h162l-317 -440l192 -439h-162zM444 532l318 440h161l-316 -440l192 -439h-163z" />
<glyph unicode="&#xac;" horiz-adv-x="925" d="M31 718l20 152h810l-55 -407h-151l34 255h-658z" />
<glyph unicode="&#xad;" horiz-adv-x="913" d="M18 636l22 150h821l-21 -150h-822z" />
<glyph unicode="&#xae;" horiz-adv-x="2082" d="M60.5 466q-7.5 94 8.5 194q18 131 70 255.5t128 230t176.5 194t213 150.5t240 96t256.5 34q110 0 213 -25t189 -72t160.5 -113t126.5 -148.5t87.5 -178.5t43.5 -202.5t-6 -220.5q-19 -131 -71 -256t-128.5 -230t-177 -193.5t-213 -150.5t-240 -96.5t-256.5 -34.5 q-96 0 -187 19.5t-170 56t-149 88.5t-124 117t-96 142t-64.5 163.5t-30 180.5zM219 442.5q16 -104.5 54.5 -196t103.5 -166.5t144.5 -129t177.5 -83.5t204 -29.5q90 0 181.5 22t175.5 62.5t162 97t143.5 128t117 152t86 173t48.5 187.5q12 97 4 187.5t-38 172.5t-75 152.5 t-107.5 127.5t-135 97.5t-158 62t-176.5 21.5q-105 0 -211.5 -29.5t-201 -82.5t-179.5 -129.5t-150 -166t-109 -196t-60 -217.5q-17 -113 -1 -217.5zM676 289l104 740h393q120 0 183.5 -70t48.5 -184q-8 -49 -28 -89.5t-44 -63.5t-46.5 -39t-37.5 -21l-15 -6l136 -267h-162 l-118 232h-242l-33 -232h-139zM866 647h254q60 0 104 37.5t53 90.5q4 35 -9.5 64t-43 46.5t-69.5 17.5h-254z" />
<glyph unicode="&#xb0;" horiz-adv-x="740" d="M137 1307.5q17 122.5 113.5 206t226 83.5t204 -83.5t57.5 -206t-115 -206t-227 -83.5q-130 0 -203 83.5t-56 206zM252 1307q-10 -78 36.5 -131.5t124 -53.5t138.5 54t72 131q10 79 -36 132.5t-124 53.5t-139.5 -54t-71.5 -132z" />
<glyph unicode="&#xb1;" horiz-adv-x="994" d="M-28 139l19 139h358l56 382h-359l21 150h359l53 382h139l-53 -382h358l-20 -150h-359l-56 -382h360l-20 -139h-856z" />
<glyph unicode="&#xb4;" horiz-adv-x="566" d="M150 1400l387 208l51 -139l-405 -162z" />
<glyph unicode="&#xb5;" horiz-adv-x="1237" d="M-44 -463l216 1527h150l-88 -624q-23 -162 47.5 -254.5t204.5 -92.5q47 0 94.5 14t85.5 36.5t72.5 49.5t60 54t44.5 49.5t29 36.5l9 14l100 717h150l-148 -1064h-150l21 150h-12q-6 -8 -18 -21t-50.5 -47t-79 -60t-102.5 -47t-124 -21t-112 16.5t-77.5 40t-46.5 47.5 t-25 41l-6 16h-11l-84 -578h-150z" />
<glyph unicode="&#xb6;" horiz-adv-x="913" d="M141 1180q12 81 58 157.5t112.5 133.5t153.5 91.5t178 34.5h331l-20 -151h-209l-268 -1909h-150l172 1227q-80 0 -152 34t-121 90.5t-72.5 133.5t-12.5 158z" />
<glyph unicode="&#xb7;" horiz-adv-x="393" d="M90 810q5 43 40 73.5t78 30.5t69 -30t21 -74q-4 -28 -21.5 -52t-43.5 -38t-54 -14q-44 0 -69.5 30.5t-19.5 73.5z" />
<glyph unicode="&#xb8;" horiz-adv-x="554" d="M-113 -463l80 81l13 -13t36.5 -20.5t60.5 -12.5q34 0 62.5 14t46 37.5t22.5 52.5q5 44 -23 74t-79 30h-80l138 243h116l-79 -151q6 -1 15.5 -4.5t33.5 -18t41 -34.5t28.5 -57t4.5 -82q-13 -97 -86.5 -158.5t-177.5 -61.5q-33 0 -63 8.5t-49 20.5t-33.5 23.5t-21.5 19.5z " />
<glyph unicode="&#xba;" horiz-adv-x="832" d="M123 1215q24 171 137 276.5t263 105.5q73 0 133.5 -27.5t100 -76.5t56 -121t4.5 -157q-24 -171 -137 -276.5t-263 -105.5t-234 105.5t-60 276.5zM250 1215q-9 -59 2.5 -109.5t37 -84.5t63 -53t80.5 -19q90 0 165 74t91.5 191.5t-38 192t-144.5 74.5q-34 0 -68.5 -12 t-65.5 -35t-56 -55t-43 -74.5t-24 -89.5z" />
<glyph unicode="&#xbb;" horiz-adv-x="971" d="M-35 93l317 439l-192 440h162l192 -440l-316 -439h-163zM382 93l316 439l-191 440h162l192 -440l-317 -439h-162z" />
<glyph unicode="&#xf7;" horiz-adv-x="925" d="M18 636l22 139h832l-20 -139h-834zM280 267q5 43 39.5 73.5t78.5 30.5q43 0 69 -30.5t21 -73.5q-7 -44 -42 -74.5t-78 -30.5t-69 30.5t-19 74.5zM402 1146q7 43 41.5 73.5t77.5 30.5t70 -30.5t20 -73.5q-5 -43 -40 -73.5t-78 -30.5q-29 0 -51 14t-32.5 37.5t-7.5 52.5z " />
<glyph unicode="&#x192;" horiz-adv-x="658" d="M-338 -440l53 139q6 -5 17 -12.5t48.5 -20.5t78.5 -13q79 0 140 59t76 160l148 1053h-163l19 139h162l28 197q23 163 130 261t256 98q47 0 91 -11.5t66 -22.5l21 -12l-53 -139q-6 5 -17.5 13t-49.5 20.5t-79 12.5q-52 0 -97 -25.5t-76.5 -76t-41.5 -118.5l-28 -197h289 l-18 -139h-289l-148 -1053q-24 -163 -130.5 -260.5t-253.5 -97.5q-47 0 -91.5 11.5t-65.5 23.5z" />
<glyph unicode="&#x2c6;" horiz-adv-x="797" d="M128 1238l325 359h105l228 -359h-139l-152 231h-11l-217 -231h-139z" />
<glyph unicode="&#x2da;" horiz-adv-x="601" d="M144 1365q13 96 90 164t173 68t154.5 -68t45.5 -164q-8 -63 -46.5 -116t-97 -83.5t-121.5 -30.5q-95 0 -152.5 67t-45.5 163zM247 1365q-6 -60 25.5 -99.5t83.5 -39.5q53 0 96 39.5t50 99.5q8 60 -23 99.5t-83 39.5q-53 0 -96.5 -39.5t-52.5 -99.5z" />
<glyph unicode="&#x2dc;" horiz-adv-x="728" d="M141 1342l9 58q12 94 65.5 145.5t133.5 51.5q39 0 67.5 -14.5t45 -35t30.5 -41t31.5 -34.5t39.5 -14q26 0 50 21.5t28 48.5l9 57h116l-9 -57q-12 -94 -66.5 -145.5t-134.5 -51.5q-28 0 -51 7.5t-38 20t-27 27t-22 29t-20 27t-23.5 20t-29.5 7.5q-27 0 -51 -21.5 t-27 -47.5l-10 -58h-116z" />
<glyph unicode="&#x401;" horiz-adv-x="1365" d="M58 0l222 1597h1146l-21 -151h-984l-79 -567h776l-21 -150h-775l-81 -579h983l-21 -150h-1145zM618 1956q5 35 37 63.5t67 28.5q23 0 43 -13.5t31 -34.5t7 -44q-5 -35 -38.5 -64t-68.5 -29t-59 29t-19 64zM1011 1956q5 35 37.5 63.5t66.5 28.5q35 0 61 -28.5t21 -63.5 t-38.5 -64t-68 -29t-59.5 29t-20 64z" />
<glyph unicode="&#x402;" horiz-adv-x="1665" d="M40 1446l20 151h1099l-20 -151h-510l-64 -474h416q182 0 306.5 -68.5t177 -191t30.5 -284.5l-44 -300q-16 -114 -68.5 -195t-136 -123t-193.5 -42q-30 0 -66 9t-57 18l-20 8l41 139q56 -23 125 -23q88 0 144 53t69 156l44 300q17 116 -22 205t-130.5 139t-222.5 50h-417 l-113 -822h-161l201 1446h-428z" />
<glyph unicode="&#x403;" d="M58 0l222 1597h1076l-20 -151h-915l-201 -1446h-162zM685 1921l386 208l51 -139l-404 -162z" />
<glyph unicode="&#x404;" horiz-adv-x="1746" d="M87 568q-17 111 1 231q16 117 63 230t115.5 208t157 175.5t187 136t207 87t214.5 31.5q114 0 214 -28.5t173.5 -76.5t129.5 -111t88 -131.5t43 -139.5l-165 -23q-14 54 -40.5 104t-70 97t-99 81.5t-131 55t-163.5 20.5q-118 0 -241.5 -52t-224.5 -138t-177 -200.5 t-105 -234.5h718l-23 -150h-717q-6 -137 35 -259t116.5 -209.5t183.5 -139t232 -51.5q117 0 221.5 31.5t184.5 88t141.5 124.5t108.5 150l161 -24q-40 -82 -96.5 -156.5t-135 -141.5t-169 -116t-203.5 -77.5t-235 -28.5q-106 0 -205.5 31t-181 87.5t-148.5 136t-107 175.5 t-57 207z" />
<glyph unicode="&#x405;" horiz-adv-x="1422" d="M9 405l167 23q21 -76 55.5 -137t86.5 -109.5t126.5 -74.5t166.5 -26q105 0 196 28t153.5 75t101.5 107t49 126q7 55 -13 101t-49.5 74.5t-95 58.5t-109 45t-131.5 41q-75 23 -113.5 35.5t-105 39t-102 49t-80.5 59.5t-65 77.5t-30.5 96.5t-1.5 121q12 87 64.5 168.5 t133.5 144.5t194.5 101t240.5 38q122 0 218.5 -32t160 -90.5t103.5 -131.5t59 -163l-167 -35q-21 73 -51 125.5t-75.5 93.5t-113 61t-156.5 20q-92 0 -174 -25.5t-138.5 -68t-92.5 -96.5t-44 -110q-7 -56 13 -101.5t49.5 -74.5t95 -59t109 -44.5t131.5 -40.5 q74 -23 112.5 -35.5t105 -39t102 -49t80.5 -59.5t65 -77.5t31 -96.5t1 -121q-14 -96 -69 -183.5t-142 -155t-209.5 -107.5t-261.5 -40q-131 0 -235 36t-174 101t-112.5 149.5t-59.5 187.5z" />
<glyph unicode="&#x406;" horiz-adv-x="508" d="M58 0l222 1597h162l-222 -1597h-162z" />
<glyph unicode="&#x407;" horiz-adv-x="554" d="M81 0l222 1597h163l-223 -1597h-162zM146 1932.5q5 34.5 37 63.5t67 29t60.5 -29t20.5 -63.5t-38 -63.5t-68 -29t-59.5 29t-19.5 63.5zM539 1932q3 23 19 44.5t39 35t46 13.5t43 -13.5t31 -35t7.5 -44t-20 -44.5t-40 -35t-46.5 -13q-35 0 -59.5 29t-19.5 63z" />
<glyph unicode="&#x408;" horiz-adv-x="1237" d="M-51 301l166 35q21 -112 98 -183.5t202 -71.5q169 0 292 118t152 322l150 1076h162l-151 -1076q-18 -132 -75 -243t-140 -187t-189.5 -118t-222.5 -42q-96 0 -178 31.5t-136.5 84t-88 118t-41.5 136.5z" />
<glyph unicode="&#x409;" horiz-adv-x="2394" d="M-93 0l605 1597h855l-73 -533h451q127 0 232 -42.5t171.5 -114.5t97 -169.5t15.5 -205.5q-15 -107 -73 -204.5t-144.5 -170t-203 -115t-243.5 -42.5h-614l202 1446h-567l-549 -1446h-162zM1166 150h452q93 0 178 30.5t147.5 82.5t103.5 122t53 147q10 78 -12 147.5 t-70 121.5t-124 82.5t-170 30.5h-452z" />
<glyph unicode="&#x40a;" horiz-adv-x="2498" d="M58 0l222 1597h162l-86 -625h845l86 625h162l-86 -625h532q114 0 208.5 -38.5t154.5 -104.5t87 -155t13 -188t-66 -188.5t-130.5 -155t-183.5 -104t-220 -38.5h-694l113 822h-844l-113 -822h-162zM1248 150h532q162 0 279.5 97t137.5 239q13 92 -23 168.5t-115 122 t-187 45.5h-532z" />
<glyph unicode="&#x40b;" horiz-adv-x="1665" d="M40 1446l20 151h1099l-20 -151h-510l-64 -474h416q182 0 306.5 -68.5t177 -191t30.5 -284.5l-60 -428h-163l61 428q17 116 -22 205t-130.5 139t-222.5 50h-417l-113 -822h-161l201 1446h-428z" />
<glyph unicode="&#x40c;" horiz-adv-x="1572" d="M58 0l222 1597h162l-100 -718h544q96 0 167.5 62.5t83.5 157.5l29 208q21 149 115 231t242 82h69l-20 -151h-70q-71 0 -117 -42.5t-56 -119.5l-31 -208q-6 -49 -22 -91t-36.5 -70t-43.5 -50t-44.5 -34t-39 -20t-28.5 -10l-10 -2v-12q8 -2 21 -7.5t45.5 -28.5t55.5 -53.5 t37.5 -86.5t4.5 -124l-30 -221q-3 -26 -1.5 -48t8 -40t17.5 -31.5t26.5 -23t35 -14t42.5 -4.5h69l-21 -151h-70q-148 0 -218.5 82t-49.5 230l30 221q13 95 -39.5 157t-148.5 62h-566l-102 -729h-162zM740 1897l387 209l50 -139l-404 -162z" />
<glyph unicode="&#x40e;" horiz-adv-x="1480" d="M130 1597h162l238 -868h405l467 868h162l-659 -1250q-110 -205 -228 -299t-279 -94h-116l21 150h116q101 0 177 56.5t146 186.5l126 232h-463zM607 2106h126q-10 -78 36.5 -131.5t124.5 -53.5q51 0 97 24.5t76 67t37 93.5h128q-20 -139 -119 -226t-238 -87t-213.5 87 t-54.5 226z" />
<glyph unicode="&#x40f;" horiz-adv-x="1584" d="M58 0l222 1597h162l-201 -1447h914l201 1447h162l-222 -1597h-532l-44 -301h-162l43 301h-543z" />
<glyph unicode="&#x410;" horiz-adv-x="1550" d="M-69 0l615 1597h671l172 -1597h-163l-49 405h-925l-159 -405h-162zM307 556h857l-95 890h-416z" />
<glyph unicode="&#x411;" horiz-adv-x="1526" d="M58 0l222 1597h1122l-20 -151h-961l-63 -450h567q124 0 223 -39t161.5 -106t89.5 -158.5t12.5 -195t-67.5 -195t-133.5 -158.5t-190.5 -105.5t-234 -38.5h-728zM241 150h567q119 0 215.5 46t154.5 124.5t72 176.5q21 154 -71 251t-274 97h-567z" />
<glyph unicode="&#x412;" horiz-adv-x="1561" d="M58 0l222 1597h683q102 0 184.5 -32.5t134.5 -87.5t75.5 -129t12.5 -156q-8 -52 -26 -97t-40.5 -76t-48.5 -56.5t-50 -40.5t-44 -25t-32 -14l-11 -4l-3 -11q5 -1 13 -2t34.5 -6.5t49 -14t56.5 -24t58.5 -37t53.5 -51.5t41.5 -69t23 -89.5t-2.5 -111.5q-14 -95 -64 -179.5 t-125.5 -147.5t-178.5 -99.5t-217 -36.5h-799zM241 150h636q161 0 272 89.5t131 223.5q9 65 -8.5 122t-57.5 99.5t-104 66.5t-145 24h-636zM349 925h521q91 0 164.5 34.5t118 95t55.5 137.5q14 108 -58 181t-208 73h-521z" />
<glyph unicode="&#x413;" d="M58 0l222 1597h1076l-20 -151h-915l-201 -1446h-162z" />
<glyph unicode="&#x414;" horiz-adv-x="1665" d="M-155 -289l60 439h162l549 1447h647l146 -1447h163l-63 -439h-162l42 289h-1343l-41 -289h-160zM229 150h1019l-133 1296h-393z" />
<glyph unicode="&#x415;" horiz-adv-x="1376" d="M58 0l222 1597h1146l-21 -151h-984l-79 -567h776l-21 -150h-775l-81 -579h983l-21 -150h-1145z" />
<glyph unicode="&#x416;" horiz-adv-x="2359" d="M-51 -23l20 151h71q70 0 116 42t56 119l31 221q7 49 25 92.5t40.5 73t48.5 54t50 39t44 24.5t32 14l12 3v12q-7 1 -19 5t-41 23t-49.5 46.5t-33 81t-3.5 121.5l31 208q10 78 -24 120t-104 42h-69l20 151h70q148 0 218.5 -82t49.5 -231l-29 -208q-12 -96 41 -158t149 -62 h404l100 718h161l-99 -718h406q96 0 166.5 62.5t82.5 157.5l31 208q21 149 114.5 231t241.5 82h69l-21 -151h-70q-70 0 -116.5 -42.5t-56.5 -119.5l-30 -208q-7 -49 -23 -91t-36 -70t-43 -50t-44.5 -34t-39 -20t-27.5 -10l-11 -2v-12q8 -2 21.5 -7.5t45.5 -28.5t55 -53.5 t37.5 -86.5t4.5 -124l-31 -221q-10 -77 24 -119t104 -42h69l-20 -151h-69q-148 0 -219 82t-50 230l30 221q14 95 -39 157t-148 62h-428l-102 -729h-163l103 729h-428q-48 0 -91.5 -16.5t-77 -45.5t-56 -69.5t-28.5 -87.5l-30 -221q-21 -148 -115 -230t-242 -82h-69z" />
<glyph unicode="&#x417;" horiz-adv-x="1422" d="M9 405l167 23q21 -76 55.5 -137t86.5 -109.5t126.5 -74.5t166.5 -26q105 0 196 28t153.5 75t101.5 107t49 126q8 66 -14 126t-71 107t-132 75t-188 28h-127l20 150h128q88 0 169 27.5t139 72t95.5 100t44.5 112.5q5 37 -2 74t-25.5 70.5t-49.5 62t-72 49.5t-95 32.5 t-116 11.5q-89 0 -162 -20t-131 -61t-103 -93.5t-88 -125.5l-157 35q44 90 104.5 163.5t141.5 131.5t187 90t228 32q126 0 229 -38t165.5 -101.5t91.5 -144.5t17 -168q-9 -62 -34 -115.5t-58.5 -90t-72.5 -66.5t-76 -47.5t-67 -29.5t-49 -16l-18 -5l-3 -12q8 -2 21 -5 t49.5 -17t69 -32t70 -52t62.5 -75t37.5 -102.5t2.5 -132.5q-14 -96 -69 -183.5t-142 -155t-209.5 -107.5t-261.5 -40q-131 0 -235 36t-174 101t-112.5 149.5t-59.5 187.5z" />
<glyph unicode="&#x418;" horiz-adv-x="1607" d="M58 0l222 1597h162l-185 -1319h12l1098 1319h174l-222 -1597h-162l185 1319h-11l-1099 -1319h-174z" />
<glyph unicode="&#x419;" horiz-adv-x="1607" d="M58 0l222 1597h162l-185 -1319h12l1098 1319h174l-222 -1597h-162l185 1319h-11l-1099 -1319h-174zM678 2118h128q-11 -79 35 -132.5t124 -53.5t139 54t71 132h128q-10 -69 -41 -127.5t-77.5 -99t-107.5 -63.5t-130 -23q-139 0 -213.5 87t-55.5 226z" />
<glyph unicode="&#x41a;" horiz-adv-x="1572" d="M58 0l222 1597h162l-100 -718h544q96 0 167.5 62.5t83.5 157.5l29 208q21 149 115 231t242 82h69l-20 -151h-70q-71 0 -117 -42.5t-56 -119.5l-31 -208q-6 -49 -22 -91t-36.5 -70t-43.5 -50t-44.5 -34t-39 -20t-28.5 -10l-10 -2v-12q8 -2 21 -7.5t45.5 -28.5t55.5 -53.5 t37.5 -86.5t4.5 -124l-30 -221q-3 -26 -1.5 -48t8 -40t17.5 -31.5t26.5 -23t35 -14t42.5 -4.5h69l-21 -151h-70q-148 0 -218.5 82t-49.5 230l30 221q13 95 -39.5 157t-148.5 62h-566l-102 -729h-162z" />
<glyph unicode="&#x41b;" horiz-adv-x="1550" d="M-69 0l615 1597h671l172 -1597h-163l-157 1446h-416l-560 -1446h-162z" />
<glyph unicode="&#x41c;" horiz-adv-x="1943" d="M58 0l222 1597h173l519 -764l731 764h174l-223 -1597h-161l190 1354h-12l-734 -764l-516 764h-12l-189 -1354h-162z" />
<glyph unicode="&#x41d;" horiz-adv-x="1584" d="M58 0l222 1597h162l-100 -718h915l99 718h162l-222 -1597h-161l101 729h-914l-102 -729h-162z" />
<glyph unicode="&#x41e;" horiz-adv-x="1873" d="M82 625.5q-7 84.5 6 173.5q17 115 64 227t116 207t159.5 176t191 137.5t213.5 88.5t223 32q96 0 186 -23.5t166.5 -66t142.5 -103t113 -135t79 -161t40 -182t-5 -197.5q-16 -117 -63 -229t-116.5 -207t-160 -175.5t-191 -137t-213 -88t-223.5 -31.5q-83 0 -163 18 t-149.5 51t-131.5 80.5t-111 106.5t-87 128.5t-58.5 147.5t-27.5 162.5zM249 609.5q14 -91.5 47 -171.5t89 -145.5t123.5 -112.5t150.5 -73t172 -26q132 0 265.5 57.5t240.5 153.5t183 229.5t96 277.5q15 98 1 189.5t-47.5 171t-89.5 145t-124 112.5t-151 72.5t-171 25.5 q-132 0 -265.5 -57t-240.5 -153t-182.5 -229t-95.5 -277q-15 -98 -1 -189.5z" />
<glyph unicode="&#x41f;" horiz-adv-x="1584" d="M58 0l222 1597h1238l-222 -1597h-161l201 1446h-915l-201 -1446h-162z" />
<glyph unicode="&#x420;" horiz-adv-x="1550" d="M58 0l222 1597h671q110 0 202.5 -28t159.5 -79t111 -120.5t60 -156.5t2 -183.5t-54 -183.5t-103.5 -156.5t-144.5 -120.5t-181 -78.5t-210 -27.5h-508l-65 -463h-162zM305 614h510q205 0 343.5 115.5t164.5 299.5q13 91 -8 168t-71 132t-130.5 86t-183.5 31h-509z" />
<glyph unicode="&#x421;" horiz-adv-x="1746" d="M87 569.5q-17 110.5 1 229.5q16 116 63.5 228.5t116 207.5t157 175.5t187 137t206.5 88t214 31.5q114 0 214 -28.5t173.5 -76.5t129.5 -111t88 -131.5t43 -139.5l-165 -23q-14 54 -40.5 104t-70 97t-99 81.5t-131 55t-163.5 20.5q-124 0 -252.5 -57t-233.5 -152.5 t-180 -229.5t-95 -277q-15 -100 -1.5 -191.5t46.5 -171.5t87 -145t119.5 -112t144.5 -72.5t162 -25.5q117 0 221.5 31.5t184.5 88t141.5 124.5t108.5 150l161 -24q-40 -82 -96.5 -156.5t-135 -141.5t-169 -116t-203.5 -77.5t-235 -28.5q-105 0 -204.5 31.5t-181 88 t-148.5 136.5t-107.5 176t-57.5 206.5z" />
<glyph unicode="&#x422;" horiz-adv-x="1341" d="M108 1446l22 151h1296l-21 -151h-568l-201 -1446h-161l201 1446h-568z" />
<glyph unicode="&#x423;" horiz-adv-x="1480" d="M130 1597h162l238 -868h405l467 868h162l-659 -1250q-110 -205 -228 -299t-279 -94h-116l21 150h116q101 0 177 56.5t146 186.5l126 232h-463z" />
<glyph unicode="&#x424;" horiz-adv-x="2036" d="M77 799q16 114 70.5 222t143 199.5t201 160.5t253 108t289.5 39l24 161h161l-22 -161q124 0 235.5 -27.5t198 -76.5t154 -117.5t108 -149t56 -172t1.5 -186.5q-15 -114 -70 -222.5t-143.5 -200t-201 -160.5t-252.5 -108t-290 -39l-23 -162h-162l23 162 q-125 0 -236.5 27.5t-198 76.5t-153.5 117.5t-107.5 149t-56 172.5t-2.5 187zM238 799q-10 -75 2.5 -147.5t45.5 -136.5t87.5 -118t124.5 -93.5t161 -61.5t193 -22l162 1157q-152 0 -290.5 -48t-239 -128t-165.5 -185t-81 -217zM1014 220q152 0 290.5 48.5t238.5 128.5 t165 184.5t81 217.5q10 75 -2.5 147.5t-45.5 136.5t-87.5 118t-124.5 93t-161 61t-193 22z" />
<glyph unicode="&#x425;" horiz-adv-x="1422" d="M-81 0q115 139 347 416.5t348 416.5l-426 764h185l351 -637h12l527 637h186l-639 -764q284 -517 462 -833h-184l-390 706h-11l-583 -706h-185z" />
<glyph unicode="&#x426;" horiz-adv-x="1596" d="M58 0l222 1597h162l-201 -1447h868l201 1447h162l-202 -1447h185l-62 -439h-161l40 289h-1214z" />
<glyph unicode="&#x427;" horiz-adv-x="1515" d="M183 1064l74 533h162l-74 -533q-25 -176 75 -284.5t298 -108.5h439l130 926h162l-223 -1597h-162l73 521h-441q-182 0 -307 68.5t-177 190.5t-29 284z" />
<glyph unicode="&#x428;" horiz-adv-x="2267" d="M58 0l222 1597h162l-201 -1447h717l201 1447h162l-201 -1447h717l202 1447h162l-222 -1597h-1921z" />
<glyph unicode="&#x429;" horiz-adv-x="2325" d="M58 0l222 1597h162l-201 -1447h717l201 1447h162l-201 -1447h717l202 1447h162l-202 -1447h185l-62 -439h-161l41 289h-1944z" />
<glyph unicode="&#x42a;" horiz-adv-x="1643" d="M86 1446l20 151h521l-74 -533h440q127 0 232 -42.5t171.5 -114.5t96.5 -169.5t16 -205.5q-16 -107 -73.5 -204.5t-144 -170t-203 -115t-243.5 -42.5h-602l201 1446h-358zM426 150h440q93 0 177.5 30.5t147 82.5t104 122t52.5 147q10 78 -11.5 147.5t-69.5 121.5 t-124.5 82.5t-169.5 30.5h-440z" />
<glyph unicode="&#x42b;" horiz-adv-x="1919" d="M58 0l222 1597h162l-74 -533h416q127 0 232 -42.5t171.5 -114.5t97 -169.5t16.5 -205.5q-16 -107 -73.5 -204.5t-144 -170t-203.5 -115t-244 -42.5h-578zM241 150h417q93 0 177.5 30.5t147 82.5t104 122t52.5 147q7 52 -0.5 101t-27.5 91t-53.5 77t-77 60t-99 39 t-117.5 14h-417zM1469 0l223 1597h161l-221 -1597h-163z" />
<glyph unicode="&#x42c;" horiz-adv-x="1504" d="M58 0l222 1597h162l-74 -533h486q127 0 232 -42.5t171.5 -114.5t96.5 -169.5t16 -205.5q-16 -107 -73.5 -204.5t-144 -170t-203 -115t-243.5 -42.5h-648zM241 150h486q93 0 177.5 30.5t147 82.5t104 122t52.5 147q10 78 -11.5 147.5t-69.5 121.5t-124.5 82.5t-169.5 30.5 h-486z" />
<glyph unicode="&#x42d;" horiz-adv-x="1746" d="M16 451l165 24q20 -66 50 -121.5t76.5 -107t105 -87t139 -57t175.5 -21.5q123 0 246 51.5t223.5 139t176 210t106.5 258.5h-717l22 150h718q3 120 -40.5 234.5t-120 200.5t-184.5 138t-227 52q-108 0 -207.5 -31t-174.5 -83t-131 -114t-93 -130l-160 23q31 71 82.5 139.5 t125.5 131.5t161 111t195.5 76.5t222.5 28.5q107 0 206.5 -31t181 -87.5t148.5 -136t107 -176t57 -207t-1 -230.5q-17 -118 -63.5 -230.5t-115 -207.5t-157 -175.5t-187 -136t-207 -87t-214.5 -31.5q-121 0 -226 28.5t-181.5 77.5t-135.5 116t-94.5 141.5t-52.5 156.5z" />
<glyph unicode="&#x42e;" horiz-adv-x="2279" d="M58 0l222 1597h162l-100 -718h313q33 171 116 318t198.5 250t260.5 161.5t300 58.5q103 0 198 -29t172.5 -83t139 -131t98 -173.5t50 -210.5t-5.5 -241q-21 -150 -80.5 -285.5t-146.5 -240.5t-194.5 -182.5t-229.5 -118.5t-246 -41q-155 0 -283.5 58.5t-215 162 t-127.5 253t-25 324.5h-312l-102 -729h-162zM793 798.5q-22 -156.5 9.5 -292t102.5 -227.5t175 -145t225 -53q97 0 193 33t182 97t156 150t118.5 199t65.5 239q22 156 -9 291.5t-102 228t-175 144.5t-225.5 52t-240.5 -52.5t-216.5 -144.5t-167 -227.5t-91.5 -292z" />
<glyph unicode="&#x42f;" horiz-adv-x="1572" d="M23 0l430 521q-15 5 -39 16t-83.5 54.5t-102 97t-70.5 148.5t-12 205q15 112 73.5 213t147 177t210.5 120.5t258 44.5h671l-221 -1597h-163l68 486h-579l-403 -486h-185zM307 1042q-11 -78 12 -151.5t73.5 -129.5t131.5 -90.5t178 -34.5h508l113 810h-508 q-97 0 -187.5 -34t-156.5 -90t-109.5 -129.5t-54.5 -150.5z" />
<glyph unicode="&#x430;" d="M40 532q13 99 53 189t98 160t129 122.5t150.5 80t158.5 27.5q50 0 95 -11t77.5 -28.5t60 -38.5t45.5 -41.5t30.5 -38t17.5 -28.5l5 -11h12l21 150h151l-148 -1064h-151l21 150h-12q-6 -8 -17 -21t-49 -47t-79.5 -60t-107 -47t-133.5 -21q-99 0 -186 43.5t-146.5 119 t-86.5 184.5t-9 231zM190 532q-14 -97 4.5 -180.5t61.5 -139.5t105.5 -87.5t135.5 -31.5q50 0 98.5 14t86.5 36.5t73 49.5t59.5 54t43 49.5t27.5 36.5l9 14l51 371q-2 5 -5.5 14t-16.5 35.5t-28.5 50.5t-43 53.5t-58.5 50.5t-76 35.5t-94 14.5q-59 0 -117 -20t-110 -58.5 t-94 -91t-71.5 -122.5t-40.5 -148z" />
<glyph unicode="&#x431;" d="M79 486l71 510q26 183 134 293t276 146l370 80q36 9 62 36.5t33 68.5l7 47h151l-12 -70q-12 -95 -64.5 -145t-161.5 -75l-371 -81q-102 -22 -179.5 -103t-93.5 -197l-28 -197q6 9 16.5 23.5t48.5 52.5t82 67t115.5 52.5t149.5 23.5q82 0 155.5 -26t129.5 -75t94.5 -114 t53 -147t2.5 -170q-21 -148 -107 -270.5t-215.5 -192t-272.5 -69.5q-106 0 -196.5 41t-150.5 111.5t-87 169.5t-12 210zM229 485.5q-16 -113.5 20.5 -203.5t113.5 -139.5t181 -49.5q103 0 194.5 49t153 139t78.5 205q16 113 -20.5 203.5t-113.5 140t-180.5 49.5t-195 -49.5 t-153.5 -140t-78 -204z" />
<glyph unicode="&#x432;" horiz-adv-x="1110" d="M23 0l149 1064h475q149 0 225 -74.5t60 -190.5q-5 -36 -17.5 -66t-28.5 -49.5t-34.5 -35t-35.5 -24t-30.5 -14t-22.5 -7.5l-8 -2l-2 -11q5 -1 14.5 -2t36 -8.5t50 -18.5t51 -33t46 -49.5t27 -71t1.5 -95.5q-9 -64 -42 -120.5t-84 -99t-122.5 -67.5t-151.5 -25h-556z M192 139h405q94 0 158.5 54t75.5 131q12 81 -38 133.5t-146 52.5h-404zM263 647h327q82 0 131.5 38t58 101.5t-29.5 101t-121 37.5h-326z" />
<glyph unicode="&#x433;" horiz-adv-x="901" d="M23 0l149 1064h763l-19 -139h-613l-129 -925h-151z" />
<glyph unicode="&#x434;" horiz-adv-x="1214" d="M-150 -254l53 393h150l327 925h521l66 -925h151l-56 -393h-150l37 254h-914l-37 -254h-148zM203 139h614l-51 786h-289z" />
<glyph unicode="&#x435;" horiz-adv-x="1214" d="M40 532q13 99 53 189t99.5 160t133 122.5t157.5 80t170 27.5q107 0 198.5 -44t153 -119.5t89 -184t10.5 -231.5l-79 -69h-844q-4 -103 37.5 -187.5t121 -133.5t181.5 -49q75 0 141 19.5t115 54t85 77t59 92.5l146 -31q-31 -69 -82 -130.5t-121 -111.5t-163 -79.5 t-197 -29.5q-112 0 -207 43.5t-157.5 119t-90 184t-9.5 231.5zM199 601h764q3 103 -38 188t-118 134t-173.5 49t-187 -49t-156 -134t-91.5 -188z" />
<glyph unicode="&#x436;" horiz-adv-x="1746" d="M-51 -23l20 138h47q105 0 118 105l16 116q8 51 29 90.5t45.5 58.5t48.5 31t40 14l16 2l2 12q-5 1 -13 3.5t-28.5 15t-34.5 31t-23 54.5t-3 81l16 116q14 104 -90 104h-47l22 139h58q117 0 170.5 -60.5t39.5 -159.5l-16 -115q-8 -70 24 -111t93 -41h267l65 463h150 l-65 -463h267q62 0 106.5 41.5t52.5 110.5l16 115q14 99 86 159.5t190 60.5h58l-21 -139h-46q-105 0 -119 -104l-16 -116q-6 -45 -24 -81t-39 -54.5t-41.5 -31t-34.5 -15.5l-13 -3l-2 -12q6 0 15.5 -2t34 -14t41.5 -31t27.5 -58.5t3.5 -90.5l-16 -116q-14 -105 90 -105h47 l-22 -138h-57q-118 0 -171.5 60t-41.5 160l16 115q10 69 -22 110t-93 41h-290l-65 -463h-150l65 463h-289q-41 0 -75.5 -18t-57.5 -53t-30 -80l-16 -115q-12 -99 -83.5 -159.5t-189.5 -60.5h-58z" />
<glyph unicode="&#x437;" horiz-adv-x="1087" d="M-20 278l154 23q10 -33 26 -62t42 -56.5t59 -47t79 -31t100 -11.5q74 0 138 17.5t105.5 46t66 63t30 70t-10 70t-49 63t-92 46t-133.5 17.5h-115l18 139h116q130 0 212 53t91 121q4 31 -9 61.5t-42.5 55.5t-81.5 40.5t-119 15.5q-187 0 -313 -150l-146 23q25 46 68 90.5 t102 85t139.5 65.5t167.5 25q101 0 180 -26t125.5 -69.5t67 -99.5t11.5 -117q-5 -36 -21.5 -67t-39 -53t-48.5 -40t-50.5 -29t-45 -18.5t-32.5 -10.5l-12 -2l-3 -12q5 -1 14 -3t34 -11.5t47.5 -21.5t48.5 -35t43 -50.5t26 -68t2 -88.5q-9 -66 -47.5 -126t-102 -107 t-156.5 -74.5t-203 -27.5q-96 0 -175 27.5t-132 74.5t-86.5 103t-47.5 119z" />
<glyph unicode="&#x438;" horiz-adv-x="1214" d="M23 0l149 1064h150l-114 -810h12l738 810h151l-149 -1064h-150l113 810h-11l-738 -810h-151z" />
<glyph unicode="&#x439;" horiz-adv-x="1214" d="M23 0l149 1064h150l-114 -810h12l738 810h151l-149 -1064h-150l113 810h-11l-738 -810h-151zM419 1590h115q-10 -78 31.5 -126t119.5 -48t132 48t64 126h117q-15 -121 -111.5 -205t-217.5 -84t-193 83.5t-57 205.5z" />
<glyph unicode="&#x43a;" horiz-adv-x="1168" d="M23 0l149 1064h150l-65 -463h348q61 0 106 41.5t53 110.5l16 115q14 99 86 159.5t189 60.5h58l-20 -139h-47q-105 0 -118 -104l-16 -116q-6 -45 -24 -81t-39.5 -54.5t-42 -31t-33.5 -15.5l-14 -3l-2 -12q6 0 16 -2t34 -14t41 -31t27.5 -58.5t3.5 -90.5l-16 -116 q-13 -105 91 -105h46l-21 -138h-58q-117 0 -171 60t-41 160l15 115q10 69 -21.5 110t-93.5 41h-371l-64 -463h-151z" />
<glyph unicode="&#x43b;" horiz-adv-x="1168" d="M-69 0l379 1064h613l84 -1064h-150q-12 136 -68 925h-382l-326 -925h-150z" />
<glyph unicode="&#x43c;" horiz-adv-x="1387" d="M23 0l149 1064h161l327 -485l460 485h163l-148 -1064h-152l116 833h-11l-461 -486l-326 486h-12l-115 -833h-151z" />
<glyph unicode="&#x43d;" horiz-adv-x="1191" d="M23 0l149 1064h150l-68 -474h614l67 474h151l-149 -1064h-151l64 451h-614l-62 -451h-151z" />
<glyph unicode="&#x43e;" horiz-adv-x="1272" d="M40 532q9 71 32.5 138t58.5 124t80 106.5t98 88t112 66t124 42t131 14.5q115 0 211.5 -43.5t160 -119.5t91.5 -184t11 -232q-24 -165 -115.5 -297.5t-228.5 -206.5t-292 -74q-115 0 -212 43.5t-160.5 119.5t-91.5 184t-10 231zM190 532q-14 -93 7 -175.5t68 -140 t116.5 -90.5t150.5 -33q110 0 210.5 56t170 157.5t87.5 225.5q13 94 -8 176t-67.5 139.5t-116 91t-150.5 33.5q-110 0 -211 -56.5t-170.5 -158t-86.5 -225.5z" />
<glyph unicode="&#x43f;" horiz-adv-x="1191" d="M23 0l149 1064h914l-149 -1064h-151l130 925h-613l-129 -925h-151z" />
<glyph unicode="&#x440;" d="M-44 -463l216 1527h150l-21 -150h11q6 8 17 21.5t49 47t79.5 59.5t107 47.5t133.5 21.5q100 0 186.5 -44t146 -119t86.5 -184t10 -232q-18 -122 -75.5 -231t-138 -184.5t-179 -119t-197.5 -43.5q-50 0 -95 10.5t-77.5 28t-60 38.5t-45 42t-30.5 38.5t-18 27.5l-5 11h-12 l-88 -613h-150zM223 347q1 -5 4.5 -14.5t16.5 -36t28.5 -50.5t43 -53t58.5 -50t75.5 -35.5t94.5 -14.5q73 0 145 31.5t131 87.5t101 139.5t55.5 181t-5 180.5t-61 139.5t-105 88t-136.5 31.5q-50 0 -98.5 -14t-86.5 -36.5t-72.5 -49.5t-59 -54.5t-43 -49.5t-27.5 -36l-9 -14 z" />
<glyph unicode="&#x441;" horiz-adv-x="1191" d="M40 532q9 69 33.5 134.5t60 122.5t80.5 107t98 89t110 67.5t119 43.5t123 15q65 0 123 -12.5t102 -35t80.5 -52t61.5 -65t41 -72.5t23 -75l-156 -35q-8 41 -29 76.5t-55.5 66t-88.5 48t-121 17.5q-103 0 -201 -56t-167.5 -158t-86.5 -226q-10 -63 -3 -120.5t26 -106.5 t50.5 -88t71 -67t87 -42.5t99.5 -14.5q71 0 134.5 19.5t112.5 55t86 80.5t62 99l144 -35q-27 -71 -77 -134.5t-119.5 -114t-163 -80t-198.5 -29.5q-107 0 -200.5 45t-157 122t-92.5 184.5t-12 226.5z" />
<glyph unicode="&#x442;" horiz-adv-x="959" d="M37 925l18 139h915l-19 -139h-381l-130 -925h-151l130 925h-382z" />
<glyph unicode="&#x443;" horiz-adv-x="1098" d="M64 -440l54 139q5 -5 16 -12.5t48.5 -20.5t78.5 -13t77 17t73 56t73 107.5t72 166.5h-394l-83 1064h150l67 -925h313l326 925h151l-380 -1064q-50 -139 -101 -232.5t-107.5 -149.5t-117.5 -80t-137 -24q-46 0 -91 11.5t-66 23.5z" />
<glyph unicode="&#x444;" horiz-adv-x="1422" d="M40 532q13 92 53.5 178.5t102 157t137.5 124.5t164.5 84.5t178.5 34.5l66 486h152l-68 -486q110 -4 206 -51.5t160.5 -124.5t94.5 -182.5t13.5 -220t-76 -220t-145.5 -182.5t-195 -124.5t-220 -51.5l-59 -417h-152l61 417q-111 4 -206.5 51.5t-160 124.5t-94.5 182.5 t-13 219.5zM190 532q-13 -89 8 -169t68 -137.5t116 -93t150 -39.5l126 879q-83 -4 -162.5 -39.5t-142.5 -93t-106.5 -138t-56.5 -169.5zM683 93q110 5 211 63.5t170 157.5t86 218q13 89 -8 169.5t-68 138t-116 93t-150 39.5z" />
<glyph unicode="&#x445;" horiz-adv-x="1052" d="M-81 0l470 556l-287 508h174l221 -393h13l332 393h174l-431 -508l318 -556h-174l-252 440h-11l-373 -440h-174z" />
<glyph unicode="&#x446;" horiz-adv-x="1202" d="M23 0l149 1064h150l-130 -925h567l129 925h152l-130 -925h161l-55 -389h-150l37 250h-880z" />
<glyph unicode="&#x447;" horiz-adv-x="1122" d="M102 740l46 324h150l-46 -324q-16 -124 52 -194.5t212 -70.5h266l84 589h150l-148 -1064h-150l46 336h-267q-136 0 -232 52.5t-138 144t-25 207.5z" />
<glyph unicode="&#x448;" horiz-adv-x="1676" d="M23 0l149 1064h150l-130 -925h475l130 925h150l-130 -925h475l128 925h152l-148 -1064h-1401z" />
<glyph unicode="&#x449;" horiz-adv-x="1735" d="M23 0l149 1064h150l-130 -925h475l130 925h150l-130 -925h475l128 925h152l-130 -925h161l-55 -389h-150l37 250h-1412z" />
<glyph unicode="&#x44a;" horiz-adv-x="1191" d="M14 925l19 139h416l-47 -324h290q124 0 213.5 -49t128.5 -133t24 -187q-12 -78 -51 -146t-99 -118t-142.5 -78.5t-175.5 -28.5h-440l130 925h-266zM320 139h289q119 0 201.5 66.5t96.5 165.5q9 64 -16 116t-82 83t-136 31h-289z" />
<glyph unicode="&#x44b;" horiz-adv-x="1457" d="M23 0l149 1064h150l-46 -324h277q124 0 213.5 -49t128.5 -133t24 -187q-12 -78 -51 -146t-99 -118t-142.5 -78.5t-175.5 -28.5h-428zM192 139h278q59 0 112 18.5t91.5 49.5t63.5 73.5t31 90.5q14 98 -50.5 164t-183.5 66h-277zM1053 0l148 1064h150l-148 -1064h-150z" />
<glyph unicode="&#x44c;" horiz-adv-x="1087" d="M23 0l149 1064h150l-46 -324h312q124 0 213.5 -49t128.5 -133t24 -187q-12 -78 -51 -146t-99 -118t-142.5 -78.5t-175.5 -28.5h-463zM192 139h312q79 0 145 31.5t105.5 84t48.5 116.5t-16 116t-82 83t-135 31h-313z" />
<glyph unicode="&#x44d;" horiz-adv-x="1191" d="M-16 312l157 35q10 -54 34 -99t62.5 -80.5t96.5 -55t129 -19.5q96 0 190.5 51.5t162.5 136.5t94 182h-440l18 138h440q2 98 -41 183t-122.5 136.5t-176.5 51.5q-130 0 -221.5 -60.5t-132.5 -147.5l-146 35q17 38 43.5 75t61.5 72.5t80 65t95.5 52t112 35t126.5 12.5 q107 0 200.5 -45.5t156.5 -122t92.5 -184.5t12.5 -227q-14 -95 -55 -184t-102 -160t-136 -124t-160.5 -81.5t-171.5 -28.5q-71 0 -133 13.5t-110.5 38t-87 57.5t-65.5 73.5t-43 84.5t-21 91z" />
<glyph unicode="&#x44e;" horiz-adv-x="1596" d="M23 0l149 1064h150l-65 -463h209q38 149 124 265t205.5 180.5t250.5 64.5q104 0 191 -42t146 -116.5t84 -184t7.5 -236.5t-73.5 -236t-135.5 -183.5t-179 -116.5t-202.5 -42q-132 0 -233.5 64t-155 180.5t-49.5 264.5h-208l-64 -463h-151zM603.5 380q8.5 -69 34 -122.5 t65 -90t90.5 -55.5t110 -19q74 0 143 30t125.5 85t97 139t55 185.5t-2 185.5t-57.5 139t-102 85t-135 30q-59 0 -115.5 -19t-106 -56t-90 -89.5t-69 -123t-39.5 -152.5q-12 -83 -3.5 -152z" />
<glyph unicode="&#x44f;" horiz-adv-x="1133" d="M-35 0l278 336q-9 3 -23.5 9.5t-50.5 34.5t-61.5 63t-42 99.5t-5.5 140.5q23 168 154 274.5t327 106.5h486l-148 -1064h-150l42 301h-382l-250 -301h-174zM210 683q-14 -107 51 -175t192 -68h336l70 485h-336q-128 0 -213.5 -68t-99.5 -174z" />
<glyph unicode="&#x451;" horiz-adv-x="1214" d="M40 532q13 99 53 189t99.5 160t133 122.5t157.5 80t170 27.5q107 0 198.5 -44t153 -119.5t89 -184t10.5 -231.5l-79 -69h-844q-4 -103 37.5 -187.5t121 -133.5t181.5 -49q75 0 141 19.5t115 54t85 77t59 92.5l146 -31q-31 -69 -82 -130.5t-121 -111.5t-163 -79.5 t-197 -29.5q-112 0 -207 43.5t-157.5 119t-90 184t-9.5 231.5zM199 601h764q3 103 -38 188t-118 134t-173.5 49t-187 -49t-156 -134t-91.5 -188zM382 1426q5 35 37 63.5t67 28.5q23 0 43 -13.5t31 -34.5t7 -44q-5 -35 -38 -64t-68 -29t-59.5 29t-19.5 64zM775 1426 q5 35 37 63.5t67 28.5t61 -28.5t20 -63.5q-5 -35 -38 -64t-67.5 -29t-59.5 29t-20 64z" />
<glyph unicode="&#x452;" horiz-adv-x="1237" d="M46 0l166 1190h-161l18 141h163l37 266h150l-37 -266h289l-18 -141h-289l-59 -415h13q3 4 9 11t26.5 27.5t43 39t58 41.5t71.5 39t83.5 27.5t94.5 11.5q95 0 171 -34t125 -96t69 -153.5t5 -202.5l-58 -417q-23 -155 -129.5 -251t-254.5 -96q-47 0 -92 11.5t-67 23.5 l-22 11l56 139q6 -5 17 -12.5t48 -20.5t78 -13q80 0 141 57t75 151l57 417q23 162 -47.5 254.5t-204.5 92.5q-47 0 -94.5 -14t-85 -36.5t-72 -49.5t-60 -54.5t-44 -49.5t-28.5 -36l-9 -14l-81 -579h-151z" />
<glyph unicode="&#x453;" horiz-adv-x="901" d="M23 0l149 1064h763l-19 -139h-613l-129 -925h-151zM409 1365l388 209l51 -139l-406 -163z" />
<glyph unicode="&#x454;" horiz-adv-x="1191" d="M40 532q9 69 33.5 134.5t60 122.5t80.5 107t98 89t110 67.5t119 43.5t123 15q65 0 123 -12.5t102 -35t80.5 -52t61.5 -65t41 -72.5t23 -75l-156 -35q-8 41 -29 76.5t-55.5 66t-88.5 48t-121 17.5q-97 0 -191.5 -51.5t-162 -136.5t-92.5 -183h439l-18 -138h-439 q-2 -97 41.5 -182t123 -136.5t175.5 -51.5q71 0 134.5 19.5t112.5 55t86 80.5t62 99l144 -35q-27 -71 -77 -134.5t-119.5 -114t-163 -80t-198.5 -29.5q-107 0 -200.5 45t-157 122t-92.5 184.5t-12 226.5z" />
<glyph unicode="&#x455;" horiz-adv-x="1064" d="M-33 278l156 23q12 -42 35 -77.5t59 -65.5t90.5 -47.5t120.5 -17.5q75 0 138.5 17.5t105 46t66.5 63t30 69.5q6 41 -14 71.5t-58.5 50.5t-90 36t-109 30.5t-114.5 30.5t-107.5 40.5t-87.5 56.5t-55 81.5t-9 112.5q9 61 45 117t94.5 99.5t144.5 69.5t187 26 q59 0 112 -11.5t94 -32t75.5 -46.5t58.5 -56t40 -60t24 -60l-156 -23q-77 150 -266 150q-130 0 -211.5 -53t-91.5 -120q-5 -41 15 -71.5t59 -50.5t90.5 -36t109 -30.5t114.5 -30.5t107.5 -40.5t87 -56.5t54.5 -81.5t9 -112.5q-9 -66 -48 -126t-102.5 -107t-157 -74.5 t-202.5 -27.5q-96 0 -175.5 27.5t-132 74.5t-86 103t-48.5 119z" />
<glyph unicode="&#x456;" horiz-adv-x="485" d="M53 0l148 1064h150l-148 -1064h-150zM234 1504q2 21 13 40.5t26.5 33.5t36 22t41.5 8q44 0 70 -30.5t21 -73.5q-5 -28 -21.5 -52t-42 -38t-54.5 -14q-43 0 -70 30.5t-20 73.5z" />
<glyph unicode="&#x457;" horiz-adv-x="485" d="M44 1455.5q5 34.5 37 63.5t67 29t60.5 -29t20.5 -63.5t-38 -63.5t-68 -29t-59.5 29t-19.5 63.5zM58 0l148 1064h150l-148 -1064h-150zM437 1455.5q5 34.5 37.5 63.5t66.5 29q23 0 43 -13.5t31 -35t8 -44.5q-5 -34 -38.5 -63t-68 -29t-59.5 29t-20 63.5z" />
<glyph unicode="&#x458;" horiz-adv-x="466" d="M-384 -440l53 139q6 -5 17 -12.5t48 -20.5t78 -13q79 0 140 57t74 151l168 1203h151l-169 -1203q-22 -155 -128.5 -251t-253.5 -96q-46 0 -90.5 11.5t-66.5 23.5zM227 1504q5 43 39.5 73.5t78.5 30.5q43 0 69 -30.5t21 -73.5q-7 -43 -41 -73.5t-76 -30.5q-44 0 -71 30.5 t-20 73.5z" />
<glyph unicode="&#x459;" horiz-adv-x="1711" d="M-93 0l391 1064h660l-46 -324h300q125 0 214.5 -49t128.5 -133t24 -187q-12 -78 -51 -146t-99 -118t-142.5 -78.5t-175.5 -28.5h-451l129 925h-393l-338 -925h-151zM828 139h301q119 0 202 67t97 165t-50.5 164t-183.5 66h-300z" />
<glyph unicode="&#x45a;" horiz-adv-x="1780" d="M23 0l149 1064h150l-55 -393h543l56 393h150l-56 -393h359q171 0 258.5 -93t65.5 -242q-22 -150 -134 -243t-283 -93h-508l73 532h-544l-73 -532h-151zM886 139h359q103 0 169.5 54.5t78.5 142.5q8 57 -11.5 101.5t-66 69.5t-114.5 25h-359z" />
<glyph unicode="&#x45b;" horiz-adv-x="1237" d="M46 0l166 1190h-161l18 141h163l37 266h150l-37 -266h289l-18 -141h-289l-59 -415h13q3 4 9 11t26.5 27.5t43 39t58 41.5t71.5 39t83.5 27.5t94.5 11.5q95 0 171 -34t125 -96t69 -153.5t5 -202.5l-67 -486h-150l66 486q23 162 -47.5 254.5t-204.5 92.5q-47 0 -94.5 -14 t-85 -36.5t-72 -49.5t-60 -54.5t-44 -49.5t-28.5 -36l-9 -14l-81 -579h-151z" />
<glyph unicode="&#x45c;" horiz-adv-x="1168" d="M23 0l149 1064h150l-65 -463h348q61 0 106 41.5t53 110.5l16 115q14 99 86 159.5t189 60.5h58l-20 -139h-47q-105 0 -118 -104l-16 -116q-6 -45 -24 -81t-39.5 -54.5t-42 -31t-33.5 -15.5l-14 -3l-2 -12q6 0 16 -2t34 -14t41 -31t27.5 -58.5t3.5 -90.5l-16 -116 q-13 -105 91 -105h46l-21 -138h-58q-117 0 -171 60t-41 160l15 115q10 69 -21.5 110t-93.5 41h-371l-64 -463h-151zM455 1365l387 209l52 -139l-406 -163z" />
<glyph unicode="&#x45e;" horiz-adv-x="1144" d="M88 -440l53 139q6 -5 17 -12.5t48.5 -20.5t78.5 -13q40 0 76 17t73 56t73 107.5t72 166.5h-394l-83 1064h150l68 -925h312l326 925h151l-380 -1064q-67 -184 -137 -291t-147 -151t-178 -44q-47 0 -91.5 11.5t-65.5 23.5zM380 1574h115q-7 -51 9.5 -90.5t53 -61.5t88 -22 t93.5 21.5t69 61.5t34 91h116q-15 -121 -111 -205t-218 -84q-79 0 -140 38.5t-90 104.5t-19 146z" />
<glyph unicode="&#x45f;" horiz-adv-x="1191" d="M23 0l149 1064h150l-130 -925h614l129 925h151l-149 -1064h-381l-37 -254h-151l37 254h-382z" />
<glyph unicode="&#x490;" d="M58 0l222 1597h917l35 231h159l-55 -382h-915l-201 -1446h-162z" />
<glyph unicode="&#x491;" horiz-adv-x="901" d="M23 0l149 1064h612l33 232h150l-51 -371h-613l-129 -925h-151z" />
<glyph unicode="&#x2000;" horiz-adv-x="1064" />
<glyph unicode="&#x2001;" horiz-adv-x="2129" />
<glyph unicode="&#x2002;" horiz-adv-x="1064" />
<glyph unicode="&#x2003;" horiz-adv-x="2129" />
<glyph unicode="&#x2004;" horiz-adv-x="709" />
<glyph unicode="&#x2005;" horiz-adv-x="532" />
<glyph unicode="&#x2006;" horiz-adv-x="354" />
<glyph unicode="&#x2007;" horiz-adv-x="354" />
<glyph unicode="&#x2008;" horiz-adv-x="266" />
<glyph unicode="&#x2009;" horiz-adv-x="425" />
<glyph unicode="&#x200a;" horiz-adv-x="118" />
<glyph unicode="&#x2010;" horiz-adv-x="913" d="M18 636l22 150h821l-21 -150h-822z" />
<glyph unicode="&#x2011;" horiz-adv-x="913" d="M18 636l22 150h821l-21 -150h-822z" />
<glyph unicode="&#x2012;" horiz-adv-x="913" d="M18 636l22 150h821l-21 -150h-822z" />
<glyph unicode="&#x2013;" horiz-adv-x="1387" d="M31 556l20 138h1250l-21 -138h-1249z" />
<glyph unicode="&#x2014;" horiz-adv-x="1735" d="M31 556l20 138h1597l-21 -138h-1596z" />
<glyph unicode="&#x2018;" horiz-adv-x="358" d="M139 1319q2 20 13.5 43.5t22.5 36.5l10 12l144 197h69l-97 -197q2 -1 5.5 -3t12.5 -10t15.5 -18t10.5 -26.5t2 -34.5q-7 -44 -42 -74t-78 -30t-69 30.5t-19 73.5z" />
<glyph unicode="&#x2019;" horiz-adv-x="358" d="M123 1215l97 196q-1 1 -2.5 2l-7.5 5t-10 9t-10 13t-9 16.5t-5.5 21t0.5 26.5q5 43 39.5 73.5t78.5 30.5q43 0 69 -30.5t21 -73.5q-3 -21 -15 -44t-23 -36l-10 -13l-144 -196h-69z" />
<glyph unicode="&#x201a;" horiz-adv-x="358" d="M-77 -208l97 197q-2 1 -5.5 3t-12.5 10t-15.5 18t-11 26.5t-1.5 34.5q7 44 42.5 74t78.5 30t69 -30t19 -74q-2 -20 -13.5 -43.5t-22.5 -35.5l-10 -13l-144 -197h-70z" />
<glyph unicode="&#x201c;" horiz-adv-x="682" d="M139 1319q2 20 13.5 43.5t22.5 36.5l10 12l144 197h69l-97 -197q2 -1 5.5 -3t12.5 -10t15.5 -18t10.5 -26.5t2 -34.5q-7 -44 -42 -74t-78 -30t-69 30.5t-19 73.5zM463 1319q2 13 7 27t11.5 25.5t13 20.5t10.5 14l5 5l143 197h69l-97 -197l6 -3t13 -10t15.5 -18 t10.5 -26.5t1 -34.5q-3 -22 -14.5 -41t-27.5 -33t-36.5 -22t-42.5 -8q-43 0 -68 30t-19 74z" />
<glyph unicode="&#x201d;" horiz-adv-x="682" d="M123 1215l97 196q-1 1 -2.5 2l-7.5 5t-10 9t-10 13t-9 16.5t-5.5 21t0.5 26.5q5 43 39.5 73.5t78.5 30.5q43 0 69 -30.5t21 -73.5q-3 -21 -15 -44t-23 -36l-10 -13l-144 -196h-69zM446 1215l98 196q-3 1 -6.5 3.5t-12 10.5t-14.5 17.5t-10 26t-2 35.5q6 43 41 73.5 t78 30.5t69.5 -30.5t21.5 -73.5q-4 -21 -16 -44t-22 -36l-11 -13l-144 -196h-70z" />
<glyph unicode="&#x201e;" horiz-adv-x="682" d="M-77 -208l97 197q-2 1 -5.5 3t-12.5 10t-15.5 18t-11 26.5t-1.5 34.5q7 44 42.5 74t78.5 30t69 -30t19 -74q-2 -20 -13.5 -43.5t-22.5 -35.5l-10 -13l-144 -197h-70zM247 -208l98 197q-3 1 -6.5 3t-12.5 10t-15.5 18t-10.5 26.5t-2 34.5q7 44 42.5 74t78.5 30t69 -30 t19 -74q-2 -20 -13.5 -43.5t-21.5 -35.5l-11 -13l-143 -197h-71z" />
<glyph unicode="&#x2020;" horiz-adv-x="925" d="M69 996l21 150h336l62 451h162l-62 -451h335l-20 -150h-336l-139 -996h-161l138 996h-336z" />
<glyph unicode="&#x2021;" horiz-adv-x="925" d="M-20 358l20 152h336l83 578h-335l20 150h336l48 359h162l-49 -359h336l-21 -150h-335l-84 -578h336l-21 -152h-335l-49 -358h-161l48 358h-335z" />
<glyph unicode="&#x2022;" horiz-adv-x="623" d="M141 683q4 29 20 57t39 48.5t52.5 32.5t59.5 12q61 0 99.5 -45t30 -106t-59 -105.5t-111.5 -44.5t-99.5 45t-30.5 106z" />
<glyph unicode="&#x2026;" horiz-adv-x="1272" d="M-37 81q6 44 41.5 74t79 30t69.5 -30t19 -74q-5 -43 -40 -73.5t-79 -30.5q-43 0 -69 30.5t-21 73.5zM426 81q7 44 42 74t78 30t69 -30t19 -74q-5 -43 -39.5 -73.5t-78.5 -30.5q-43 0 -69 30.5t-21 73.5zM888 81q7 44 42.5 74t78.5 30t69 -30t19 -74q-5 -43 -40 -73.5 t-78 -30.5q-44 0 -70 30.5t-21 73.5z" />
<glyph unicode="&#x202f;" horiz-adv-x="425" />
<glyph unicode="&#x2030;" horiz-adv-x="2371" d="M128 0l1205 1597h173l-1205 -1597h-173zM128 1250q16 112 76.5 203t146.5 140.5t179 49.5q55 0 104.5 -18.5t87.5 -53t64.5 -83t35 -108.5t0.5 -130q-16 -113 -76.5 -204t-146 -140t-178.5 -49q-69 0 -128.5 29t-100 80t-58.5 125t-6 159zM264 1196q1 -26 6.5 -49.5 t14.5 -43.5t21.5 -36.5t27.5 -30t32 -22.5t35.5 -13.5t38.5 -4.5q81 0 154.5 72.5t88.5 181.5q8 54 -3 102.5t-35.5 81t-59 51.5t-73.5 19q-81 0 -155 -72.5t-90 -181.5q-4 -28 -3 -54zM777 347q16 113 76.5 204t146 140t177.5 49q70 0 129.5 -29t100.5 -80t59 -125t6 -159 q-16 -113 -77 -204t-147 -140t-179 -49q-69 0 -128 29t-99.5 80t-58.5 125t-6 159zM915.5 263q5.5 -39 21.5 -70.5t39 -53.5t52 -34t60 -12q81 0 155 72.5t90 181.5q8 55 -3.5 103t-36.5 80.5t-60 51.5t-74 19q-81 0 -154.5 -72.5t-88.5 -181.5q-6 -45 -0.5 -84zM1541 347 q16 113 76.5 204t146 140t177.5 49q69 0 128.5 -29t100.5 -80t59 -125t6 -159q-16 -113 -77 -204t-147 -140t-178 -49q-69 0 -128.5 29t-99.5 80t-58 125t-6 159zM1680 347q-16 -109 37 -181.5t134 -72.5t155 72.5t90 181.5q8 55 -3.5 103t-36 80.5t-59.5 51.5t-74 19 q-81 0 -154.5 -72.5t-88.5 -181.5z" />
<glyph unicode="&#x2039;" horiz-adv-x="762" d="M28 532l606 532l81 -92l-490 -440l365 -439l-104 -93z" />
<glyph unicode="&#x203a;" horiz-adv-x="762" d="M-35 93l490 439l-365 440l104 92l459 -532l-607 -532z" />
<glyph unicode="&#x2044;" horiz-adv-x="1157" d="M-115 0l1205 1597h173l-1205 -1597h-173z" />
<glyph unicode="&#x205f;" horiz-adv-x="532" />
<glyph unicode="&#x20ac;" horiz-adv-x="1873" d="M9 567l19 139h162q-5 47 2 93q3 21 9.5 43.5t11.5 35.5l5 12h-163l20 139h184q77 184 215.5 329t312 227t350.5 82q95 0 181 -20t153 -55t122.5 -81.5t94 -101.5t63 -112.5t33.5 -116.5l-164 -23q-14 54 -40.5 104t-70.5 97t-99 81.5t-131.5 55t-163.5 20.5 q-131 0 -264.5 -63t-243 -174t-174.5 -249h625l-18 -139h-660q-20 -45 -26 -91q-3 -21 -3.5 -44t-0.5 -36l1 -13h660l-18 -139h-625q27 -138 104.5 -248.5t193 -174t246.5 -63.5q117 0 221.5 31.5t185 88t142 124.5t109.5 150l159 -24q-40 -82 -97 -156.5t-135 -141.5 t-168.5 -116t-203.5 -77.5t-235 -28.5q-132 0 -252 47.5t-211 131.5t-152.5 202t-80.5 255h-185z" />
<glyph unicode="&#x2122;" horiz-adv-x="1643" d="M111 1458l19 139h625l-19 -139h-243l-81 -579h-139l81 579h-243zM748 879l100 718h150l210 -325l298 325h151l-100 -718h-139l70 498l-313 -335l-219 335l-70 -498h-138z" />
<glyph unicode="&#x25fc;" horiz-adv-x="1064" d="M0 0v1064h1064v-1064h-1064z" />
</font>
</defs>
</svg>
