<?xml version="1.0" standalone="no"?>
<!DOCTYPE svg PUBLIC "-//W3C//DTD SVG 1.1//EN" "http://www.w3.org/Graphics/SVG/1.1/DTD/svg11.dtd" >
<svg xmlns="http://www.w3.org/2000/svg">
<metadata></metadata>
<defs>
<font id="tt_firsmedium" horiz-adv-x="1248" >
<font-face units-per-em="2048" ascent="1638" descent="-410" />
<missing-glyph horiz-adv-x="404" />
<glyph horiz-adv-x="0" />
<glyph horiz-adv-x="0" />
<glyph horiz-adv-x="682" />
<glyph unicode="&#xd;" horiz-adv-x="0" />
<glyph unicode=" "  horiz-adv-x="404" />
<glyph unicode="&#x09;" horiz-adv-x="404" />
<glyph unicode="&#xa0;" horiz-adv-x="404" />
<glyph unicode="!" horiz-adv-x="554" d="M174 81.5q0 43.5 30.5 73.5t73.5 30t73.5 -30t30.5 -73.5t-30.5 -74t-73.5 -30.5t-73.5 30.5t-30.5 74zM197 786v811h161v-811l-34 -314h-92z" />
<glyph unicode="&#x22;" horiz-adv-x="740" d="M139 1285v312h128v-312l-24 -243h-81zM475 1285v312h126v-312l-22 -243h-82z" />
<glyph unicode="#" horiz-adv-x="1504" d="M46 451v139h301l116 417h-266v139h313l126 451h150l-126 -451h382l126 451h151l-127 -451h266v-139h-312l-117 -417h278v-139h-324l-126 -451h-151l127 451h-382l-127 -451h-150l127 451h-255zM497 590h382l117 417h-382z" />
<glyph unicode="$" horiz-adv-x="1237" d="M93 510l150 22q84 -231 371 -231q87 0 157.5 19.5t113 53t65 74t22.5 84.5t-28 76.5t-75.5 52.5t-109.5 35.5t-130 29.5t-136 31t-129.5 43.5t-109.5 62.5t-76 93.5t-28 131.5q0 142 107.5 240.5t286.5 106.5v232h150v-232q165 -8 273.5 -96.5t154.5 -227.5l-150 -23 q-19 46 -45.5 81.5t-67 65t-100 45.5t-134.5 16q-165 0 -244.5 -57.5t-79.5 -150.5q0 -48 28 -83.5t75.5 -57.5t109 -38.5t129.5 -31t136.5 -31t130 -42t109 -59.5t75.5 -88t28 -125q0 -65 -31.5 -128t-86.5 -114t-136 -85.5t-174 -42.5v-231h-150v231q-88 4 -163.5 34 t-130 80t-93.5 108t-64 126z" />
<glyph unicode="%" horiz-adv-x="1643" d="M69 1249.5q0 84.5 28.5 159t76 125.5t111 80t132.5 29t132.5 -29t110.5 -80t75.5 -125t28.5 -159t-28.5 -159t-75.5 -125t-110.5 -80t-132.5 -29t-132.5 29t-111 80t-76 125t-28.5 158.5zM208 1250q0 -109 64 -181.5t145 -72.5t144.5 72.5t63.5 181.5t-63.5 181.5 t-144.5 72.5t-145 -72.5t-64 -181.5zM243 0l983 1597h174l-983 -1597h-174zM879 347q0 85 28.5 159t75.5 125t110.5 80t132.5 29t132.5 -29t111 -80t76 -125t28.5 -159t-28.5 -159t-76 -125t-111 -80t-132.5 -29t-132.5 29t-110.5 80t-75.5 125t-28.5 159zM1018 347 q0 -109 63.5 -181.5t144.5 -72.5t145 72.5t64 181.5t-64 181.5t-145 72.5t-144.5 -72.5t-63.5 -181.5z" />
<glyph unicode="&#x26;" horiz-adv-x="1365" d="M93 405q0 87 24 165.5t63 134t85.5 102.5t93.5 76.5t86 50.5t63 29l24 9v11l-289 452v162h925v-151h-740v-11l937 -1435h-185l-92 139h-12q-7 -8 -19.5 -22.5t-56.5 -50t-93.5 -63t-129 -50t-163.5 -22.5q-115 0 -213 36.5t-165.5 100t-105 150.5t-37.5 187zM254 405 q0 -65 27.5 -124t74.5 -103t114 -70.5t144 -26.5q64 0 127.5 20.5t107.5 49.5t78.5 57.5t51.5 49.5l17 20l-382 579q-8 -3 -21 -8t-50 -23.5t-71 -41t-75.5 -61t-71.5 -82.5t-50.5 -106t-20.5 -130z" />
<glyph unicode="'" horiz-adv-x="404" d="M139 1285v312h128v-312l-24 -243h-81z" />
<glyph unicode="(" horiz-adv-x="797" d="M139 671q0 112 18 219.5t48 195t69 169.5t82 146t86.5 119t82.5 94t69 67t48 41l18 14l69 -116q-9 -7 -24.5 -21t-60 -62t-85 -101t-90 -138.5t-85 -175.5t-59.5 -209t-24 -242q0 -96 14.5 -190.5t39 -172t57 -150.5t68 -130.5t71 -107.5t67.5 -86t57 -61.5t39 -37.5 l15 -13l-69 -115q-11 8 -29.5 22.5t-73 67t-103.5 111t-109 153.5t-103.5 196t-73 237t-29.5 277z" />
<glyph unicode=")" horiz-adv-x="797" d="M69 -278q9 7 24.5 21t60 62t85 101.5t89.5 138.5t84.5 175t60 209.5t24.5 241.5q0 97 -14.5 191t-39.5 171.5t-57 150.5t-67.5 130.5t-71 107.5t-67.5 86t-57 61.5t-39 38.5l-15 12l70 116q11 -8 29.5 -23t73 -67t103.5 -111t109 -153.5t103.5 -195.5t73 -237t29.5 -278 q0 -111 -18 -218.5t-48 -195.5t-69 -170t-82.5 -145.5t-86.5 -119t-82 -94.5t-69 -66.5t-48 -41.5l-18 -13z" />
<glyph unicode="*" horiz-adv-x="855" d="M93 1215v116h278v266h115v-266h278v-116h-232l162 -232l-93 -69l-173 243l-174 -243l-92 69l162 232h-231z" />
<glyph unicode="+" horiz-adv-x="971" d="M46 636v150h371v382h139v-382h369v-150h-369v-382h-139v382h-371z" />
<glyph unicode="," horiz-adv-x="358" d="M69 -208l70 197l-6 3t-14 10t-17.5 18t-14 26.5t-6.5 34.5q0 44 30.5 74t74 30t73.5 -30t30 -74q0 -20 -8.5 -43.5t-17.5 -35.5l-9 -13l-115 -197h-70z" />
<glyph unicode="-" horiz-adv-x="913" d="M46 636v150h822v-150h-822z" />
<glyph unicode="." horiz-adv-x="346" d="M69 81q0 43 31 73.5t74 30.5t73.5 -30t30.5 -73.5t-30.5 -74t-73.5 -30.5t-74 30.5t-31 73.5z" />
<glyph unicode="/" horiz-adv-x="879" d="M46 0l625 1597h162l-625 -1597h-162z" />
<glyph unicode="0" horiz-adv-x="1665" d="M115 798.5q0 127.5 27.5 245t76.5 212t116.5 172.5t146.5 130t169 80.5t182 28.5t181.5 -28.5t169 -80.5t147 -130t116 -172.5t76 -212t27.5 -245t-27.5 -244.5t-76 -211.5t-116 -172.5t-147 -130t-169 -80.5t-181.5 -28.5t-182 28.5t-169 80.5t-146.5 130t-116.5 172.5 t-76.5 211.5t-27.5 244.5zM278 799q0 -128 31 -243t84.5 -200t124 -148t151 -95t164 -32t164.5 32t151.5 95t124.5 148t85 200t31 243t-31 242.5t-85 200t-124.5 148t-151.5 94t-164.5 31.5t-164 -31.5t-151 -94t-124 -148t-84.5 -200t-31 -242.5z" />
<glyph unicode="1" horiz-adv-x="693" d="M69 1180v139q79 0 149 39.5t111.5 104t41.5 134.5h150v-1597h-163v1296q-4 -5 -11 -12.5t-34 -27.5t-57.5 -35.5t-81 -28t-105.5 -12.5z" />
<glyph unicode="2" horiz-adv-x="1341" d="M81 0v139q0 100 34 186t90.5 150t130.5 119.5t155.5 100.5t163 87t155 86t130.5 90.5t90.5 106t33.5 127.5q0 140 -106.5 231.5t-274.5 91.5q-330 0 -440 -300l-162 23q27 91 77 166.5t123 135.5t176 93.5t226 33.5q119 0 221 -36.5t172.5 -99.5t110 -150.5t39.5 -188.5 q0 -58 -16.5 -111.5t-39 -94.5t-67 -84.5t-78.5 -72t-97.5 -67t-100.5 -59t-109 -58.5q-68 -36 -103 -55t-94.5 -55.5t-91.5 -62t-73.5 -65t-62 -76t-35.5 -83.5t-15 -98h995v-150h-1157z" />
<glyph unicode="3" horiz-adv-x="1365" d="M58 393l162 35q32 -76 75 -137.5t101 -109t133.5 -74t164.5 -26.5t167 30.5t132.5 82.5t86 122t31.5 147.5t-31.5 147.5t-86 121.5t-132.5 82t-167 30.5h-219v151l497 439v11h-775v151h1018v-151l-497 -439v-11q119 0 222.5 -41.5t176 -112.5t114 -169t41.5 -210 t-42 -210t-116.5 -169t-183.5 -112t-236 -41q-126 0 -233.5 36t-185 100t-132 146t-85.5 180z" />
<glyph unicode="4" horiz-adv-x="1365" d="M69 358v152l556 1087h174l-556 -1087h717v450h162v-450h220v-152h-220v-358h-162v358h-891z" />
<glyph unicode="5" horiz-adv-x="1330" d="M23 393l162 35q32 -76 75.5 -137.5t101 -109t133.5 -74t165 -26.5t167 30.5t132 82.5t85.5 122t31.5 147.5t-31.5 147.5t-85.5 121.5t-132 82t-167 30.5h-428l126 752h810v-151h-671l-80 -450h243q128 0 236.5 -41.5t183 -112.5t116.5 -169t42 -210t-42 -210t-116.5 -169 t-183 -112t-236.5 -41q-126 0 -233.5 36t-185.5 100t-132.5 146t-85.5 180z" />
<glyph unicode="6" horiz-adv-x="1365" d="M93 510q0 64 14 128.5t34.5 110t41 82t34.5 54.5l15 18l532 694h185l-417 -544h12q6 4 19 10t57.5 15.5t94.5 9.5q121 0 228.5 -45t185 -122t122.5 -184.5t45 -226.5q0 -120 -45.5 -227t-125 -184.5t-191.5 -122.5t-240 -45t-240 45t-191 122.5t-124.5 184.5t-45.5 227z M254 509.5q0 -120.5 56.5 -218t157.5 -154t226 -56.5t226 56.5t158 154.5t57 218t-57 217.5t-158 153.5t-226 56t-226 -56t-157.5 -153.5t-56.5 -218z" />
<glyph unicode="7" horiz-adv-x="1098" d="M23 1446v151h1041v-162l-671 -1435h-173l670 1435v11h-867z" />
<glyph unicode="8" horiz-adv-x="1433" d="M93 428q0 58 12.5 109.5t34 89.5t49.5 71.5t58.5 56t61 41t58.5 29.5t49.5 18.5t34.5 10.5l12 3v11q-6 1 -17 4t-42 16t-59.5 29.5t-63.5 46t-60 64.5t-42 87t-17 111q0 83 40 162t111 141t177 100t227.5 38t227.5 -38t176.5 -100t110.5 -141t40 -162q0 -59 -16.5 -110.5 t-43 -87t-58.5 -64.5t-64 -46.5t-58.5 -29t-43.5 -16.5l-16 -4v-11q8 -2 21 -5.5t51.5 -17.5t73.5 -33t78 -54t73.5 -77t51.5 -105.5t21 -136.5q0 -95 -44.5 -184.5t-123.5 -159t-198.5 -111.5t-258 -42t-258 42t-198.5 111.5t-123.5 159t-44.5 184.5zM254 428 q0 -65 32.5 -127t90.5 -111t147 -79t193.5 -30t193.5 30t146.5 79t90 111t32.5 127q0 70 -32 134.5t-90 114.5t-146.5 79.5t-194 29.5t-194 -29.5t-146.5 -79.5t-90.5 -114.5t-32.5 -134.5zM324 1226.5q0 -52.5 28 -104t77.5 -93t125 -67t163 -25.5t163.5 25.5t125 67t77 93 t28 104t-28 103.5t-77 92.5t-125 67t-163.5 25.5t-163 -25.5t-125 -67t-77.5 -92.5t-28 -103.5z" />
<glyph unicode="9" horiz-adv-x="1365" d="M69 1088q0 120 45.5 227t125 184.5t191.5 122.5t240 45t240 -45t191 -122.5t124.5 -184.5t45.5 -227q0 -65 -14 -129.5t-34.5 -110t-40.5 -82t-34 -54.5l-14 -18l-534 -694h-184l416 544h-11q-7 -4 -20 -10t-58 -15t-97 -9q-119 0 -226.5 45t-184.5 122t-122 184.5 t-45 226.5zM232 1088q0 -120 56 -218t157 -154t226 -56t226 56t157.5 154t56.5 218t-56.5 218t-157.5 153.5t-226 55.5t-226 -55.5t-157 -153.5t-56 -218z" />
<glyph unicode=":" horiz-adv-x="346" d="M69 81q0 43 31 73.5t74 30.5t73.5 -30t30.5 -73.5t-30.5 -74t-73.5 -30.5t-74 30.5t-31 73.5zM69 995.5q0 43.5 31 73.5t74 30t73.5 -30t30.5 -73.5t-30.5 -74.5t-73.5 -31t-74 31t-31 74.5z" />
<glyph unicode=";" horiz-adv-x="358" d="M69 -208l70 197l-6 3t-14 10t-17.5 18t-14 26.5t-6.5 34.5q0 44 30.5 74t74 30t73.5 -30t30 -74q0 -20 -8.5 -43.5t-17.5 -35.5l-9 -13l-115 -197h-70zM81 995.5q0 43.5 30.5 73.5t74 30t73.5 -30t30 -73.5t-30.5 -74.5t-73.5 -31t-73.5 31t-30.5 74.5z" />
<glyph unicode="&#x3c;" horiz-adv-x="1122" d="M93 440v174l936 404v-150l-775 -336v-11l775 -336v-150z" />
<glyph unicode="=" horiz-adv-x="994" d="M93 428v139h810v-139h-810zM93 845v138h810v-138h-810z" />
<glyph unicode="&#x3e;" horiz-adv-x="1122" d="M93 35v150l775 336v11l-775 336v150l936 -404v-174z" />
<glyph unicode="?" horiz-adv-x="1214" d="M23 1238q26 94 74 170.5t118.5 135t169 91t216.5 32.5q114 0 212.5 -36.5t165.5 -97t105 -140.5t38 -167q0 -63 -14 -117.5t-38.5 -93t-57 -73.5t-69.5 -61t-75.5 -53.5t-75 -52t-69 -57t-57 -67t-38.5 -83t-14 -105.5h-139q0 78 16.5 142.5t44.5 110t64.5 84t77 68 t80.5 57.5t76.5 57.5t64.5 63t44.5 79.5t16.5 101q0 52 -27 104t-73.5 93t-115 66.5t-143.5 25.5q-165 0 -267 -80.5t-149 -219.5zM440 81.5q0 43.5 30 73.5t73.5 30t73.5 -30t30 -73.5t-30 -74t-73.5 -30.5t-73.5 30.5t-30 74z" />
<glyph unicode="@" horiz-adv-x="1885" d="M93 740q0 184 66 345t180.5 276t276 181t344.5 66q153 0 289 -38t238.5 -105t177.5 -156.5t113.5 -196.5t38.5 -222q0 -107 -41.5 -202.5t-114.5 -165.5t-177 -110.5t-223 -40.5h-104v80h-11q-3 -4 -8.5 -11t-26 -25t-43.5 -32t-61.5 -25t-81.5 -11q-68 0 -133.5 31 t-115 83t-79.5 125.5t-30 154t30 154t79.5 126t115 83.5t133.5 31q43 0 81 -11t62.5 -26.5t43 -31t26.5 -26.5l8 -11h11v82h150v-601q158 0 259 104.5t101 275.5q0 118 -49.5 222.5t-138.5 184t-223.5 126t-295.5 46.5q-149 0 -282 -55.5t-228.5 -152t-151 -232 t-55.5 -289.5t55.5 -289.5t151 -231.5t228.5 -152t282 -56q76 0 150 12t126 29t93.5 34.5t61.5 29.5l20 12v-139q-7 -5 -21 -13t-60 -28t-95 -35.5t-124 -28t-151 -12.5q-183 0 -344.5 66.5t-276 181t-180.5 275.5t-66 345zM718 740q0 -102 71.5 -178t159.5 -76 q39 0 75 14.5t59 34.5t40.5 40.5t25.5 35.5l8 14v232q-3 5 -8.5 14.5t-24.5 33.5t-41.5 42t-58.5 33.5t-75 15.5q-88 0 -159.5 -77t-71.5 -179z" />
<glyph unicode="A" horiz-adv-x="1550" d="M46 0l394 1597h671l393 -1597h-162l-104 405h-926l-104 -405h-162zM347 556h856l-220 890h-416z" />
<glyph unicode="B" horiz-adv-x="1561" d="M174 0v1597h683q101 0 188.5 -32.5t147 -87.5t93 -129t33.5 -156q0 -52 -11.5 -97t-30 -76t-40.5 -56.5t-44.5 -40.5t-40.5 -25t-30 -14l-11 -4v-11q8 -1 21.5 -3t53.5 -13t76 -26.5t80 -47.5t75.5 -72.5t53.5 -103.5t22 -139q0 -94 -38 -179t-105 -148t-165.5 -99.5 t-212.5 -36.5h-798zM336 150h636q162 0 260.5 90t98.5 223.5t-98.5 222.5t-260.5 89h-636v-625zM336 925h521q137 0 218.5 74.5t81.5 192.5q0 108 -82.5 181t-217.5 73h-521v-521z" />
<glyph unicode="C" horiz-adv-x="1746" d="M93 799q0 116 31 228.5t86 207.5t133 175.5t168 137t194 88t209 31.5q114 0 218.5 -28.5t184.5 -76.5t145 -111t107 -131.5t63 -139.5l-163 -23q-21 54 -55 104t-84 97t-110.5 81.5t-139.5 55t-166 20.5q-124 0 -244.5 -57t-211.5 -152.5t-147.5 -229.5t-56.5 -277 q0 -97 26 -191t71 -172t107.5 -144.5t135 -112.5t155 -72t165.5 -26q95 0 178.5 21.5t147 57.5t117.5 87t91.5 107t66.5 121l163 -24q-29 -82 -75 -156.5t-114.5 -141.5t-152 -116t-192 -77.5t-230.5 -28.5q-105 0 -209 31.5t-194 88t-168 137t-133 175.5t-86 207.5 t-31 228.5z" />
<glyph unicode="D" horiz-adv-x="1596" d="M174 0v1597h486q188 0 346.5 -60t267.5 -165.5t169.5 -253t60.5 -319.5t-60.5 -320t-169.5 -253.5t-267.5 -165.5t-346.5 -60h-486zM336 150h324q154 0 282 48t216 133t136 205.5t48 262.5t-48 262t-136 205t-216 132.5t-282 47.5h-324v-1296z" />
<glyph unicode="E" horiz-adv-x="1365" d="M174 0v1597h1145v-151h-983v-567h775v-150h-775v-579h983v-150h-1145z" />
<glyph unicode="F" horiz-adv-x="1307" d="M174 0v1597h1098v-151h-936v-613h752v-150h-752v-683h-162z" />
<glyph unicode="G" horiz-adv-x="1793" d="M93 798.5q0 117.5 31 230.5t86 208t132 175.5t167.5 136t194.5 87t210 31.5q114 0 218.5 -28.5t184.5 -76.5t145 -111t107 -131.5t63 -139.5l-163 -23q-21 54 -55 104t-84 97t-110.5 81.5t-139.5 55t-166 20.5q-83 0 -165.5 -25.5t-155 -71.5t-135 -112t-107.5 -144 t-71 -172t-26 -191t26 -191t71 -172t107.5 -144.5t135 -112.5t155 -72t165.5 -26q127 0 244 48t199.5 125.5t132 178t49.5 203.5h-532v150h694v-68q0 -167 -60 -313t-164 -250t-250 -164t-313 -60q-106 0 -210 31.5t-194.5 87t-167.5 136t-132 175.5t-86 207.5t-31 230z" />
<glyph unicode="H" horiz-adv-x="1584" d="M174 0v1597h162v-718h914v718h161v-1597h-161v729h-914v-729h-162z" />
<glyph unicode="I" horiz-adv-x="508" d="M174 0v1597h162v-1597h-162z" />
<glyph unicode="J" horiz-adv-x="1237" d="M23 301l162 35q37 -112 124.5 -183.5t211.5 -71.5q83 0 153 30t120.5 85.5t79.5 139t29 185.5v1076h161v-1076q0 -132 -41 -243t-113 -187t-172.5 -118t-216.5 -42q-97 0 -183.5 31.5t-149 84t-105.5 118t-60 136.5z" />
<glyph unicode="K" horiz-adv-x="1433" d="M174 0v1597h162v-879l844 879h209l-603 -625l625 -972h-185l-555 857l-335 -347v-510h-162z" />
<glyph unicode="L" horiz-adv-x="1283" d="M174 0v1597h162v-1447h925v-150h-1087z" />
<glyph unicode="M" horiz-adv-x="1943" d="M174 0v1597h173l625 -764l625 764h174v-1597h-163v1354h-11l-625 -764l-625 764h-11v-1354h-162z" />
<glyph unicode="N" horiz-adv-x="1607" d="M174 0v1597h173l914 -1319h11v1319h163v-1597h-174l-914 1319h-11v-1319h-162z" />
<glyph unicode="O" horiz-adv-x="1873" d="M93 799q0 115 31 227t87 207t135 176t171.5 137.5t200.5 88.5t219 32t219 -31.5t200.5 -88t171.5 -137t135 -175.5t87.5 -207.5t31.5 -229t-31.5 -228.5t-87.5 -207t-135 -175.5t-171.5 -137t-200.5 -88t-219 -31.5t-219 31.5t-200.5 88t-171.5 137t-135 175.5t-87 207 t-31 229zM254 799q0 -144 57 -277.5t150 -229.5t218.5 -153.5t257.5 -57.5t257.5 57.5t219 153.5t150 229.5t56.5 277.5t-56.5 277t-150 229t-219 153t-257.5 57t-257.5 -57t-219 -153t-150 -229t-56.5 -277z" />
<glyph unicode="P" horiz-adv-x="1550" d="M174 0v1597h671q137 0 252 -43.5t194 -119t123 -180t44 -225t-44 -225t-123 -180t-194 -118.5t-252 -43h-509v-463h-162zM336 614h509q206 0 328.5 115.5t122.5 299.5q0 91 -31.5 168t-89 132t-142.5 86t-188 31h-509v-832z" />
<glyph unicode="Q" horiz-adv-x="1885" d="M93 799q0 115 31 227t87 207t135 176t171.5 137.5t200.5 88.5t219 32t219 -31.5t200.5 -88t171.5 -137t135 -175.5t87.5 -207.5t31.5 -228.5q0 -97 -21.5 -191.5t-52 -159.5t-61 -116t-51.5 -76l-22 -24l243 -243l-116 -117l-243 243q-9 -7 -25 -19.5t-69 -44.5 t-109.5 -56t-143.5 -44t-174 -20q-111 0 -219 31.5t-200.5 88t-171.5 137t-135 175.5t-87 207t-31 229zM254 799q0 -144 57 -277.5t150 -229.5t218.5 -153.5t257.5 -57.5q71 0 140 15.5t117 38t85.5 44.5t55.5 37l19 16l-162 161l115 117l162 -163q6 7 16.5 20.5t36.5 58.5 t46 94t36 125t16 154q0 144 -56.5 277t-150 229t-219 153t-257.5 57t-257.5 -57t-219 -153t-150 -229t-56.5 -277z" />
<glyph unicode="R" horiz-adv-x="1572" d="M174 0v1597h716q128 0 235 -39.5t179.5 -108.5t113 -165t40.5 -208q0 -65 -12.5 -123t-33 -101.5t-47.5 -81t-56.5 -64t-59.5 -47.5t-57 -33.5t-47.5 -21t-32.5 -11.5l-13 -3l325 -590h-174l-313 556h-601v-556h-162zM336 706h554q90 0 166 28.5t128.5 78t82 117.5 t29.5 145.5t-29.5 145.5t-82 118t-128.5 78.5t-166 28.5h-554v-740z" />
<glyph unicode="S" horiz-adv-x="1422" d="M69 405l163 23q31 -76 74.5 -137t102.5 -109t137.5 -74.5t171.5 -26.5q105 0 191.5 28t142.5 75t86 107t30 126q0 40 -13.5 75t-32 60.5t-57 50.5t-67.5 40t-85 35t-88.5 30t-97.5 29q-61 18 -92 27.5t-88 28.5t-88.5 33.5t-78 39t-73 47.5t-58.5 56t-48.5 68.5t-27.5 81 t-11 96.5q0 87 40.5 168t112 144.5t180 101.5t234.5 38q122 0 223.5 -32t174 -90.5t122.5 -131.5t82 -163l-163 -35q-32 73 -69 125.5t-89 93.5t-122 61t-159 20q-92 0 -170 -25.5t-128.5 -68t-78.5 -96t-28 -110.5q0 -40 14 -75t32.5 -60.5t56.5 -50.5t67.5 -40.5t85 -35 t88.5 -29.5t98 -29q61 -18 92 -27.5t87.5 -29t88 -33.5t78.5 -38.5t73.5 -47.5t58.5 -56t48 -68.5t27.5 -81t11.5 -96.5q0 -96 -43 -183.5t-120 -155t-194 -107.5t-256 -40q-131 0 -240.5 36t-188.5 101t-134 149.5t-86 187.5z" />
<glyph unicode="T" horiz-adv-x="1341" d="M23 1446v151h1296v-151h-566v-1446h-163v1446h-567z" />
<glyph unicode="U" horiz-adv-x="1596" d="M174 590v1007h162v-1007q0 -115 35 -211t96.5 -161t146.5 -101t184.5 -36t185 36t146.5 101t96 161t35 211v1007h163v-1007q0 -150 -46 -273.5t-127.5 -208t-197.5 -131t-254 -46.5t-254 46.5t-198 131t-127.5 208t-45.5 273.5z" />
<glyph unicode="V" horiz-adv-x="1572" d="M69 1597h163l347 -1447h417l346 1447h162l-382 -1597h-671z" />
<glyph unicode="W" horiz-adv-x="2140" d="M69 1597h163l300 -1447h82l311 1447h290l313 -1447h80l302 1447h161l-335 -1597h-336l-312 1435h-35l-313 -1435h-335z" />
<glyph unicode="X" horiz-adv-x="1422" d="M35 0q262 374 579 833l-533 764h186l439 -637h12l439 637h185l-532 -764q317 -459 579 -833h-186l-485 706h-12l-486 -706h-185z" />
<glyph unicode="Y" horiz-adv-x="1480" d="M23 1597h180l533 -879h9l532 879h181l-636 -1065v-532h-162v532z" />
<glyph unicode="Z" horiz-adv-x="1376" d="M69 0v162l1030 1273v11h-995v151h1192v-162l-1029 -1273v-12h1040v-150h-1238z" />
<glyph unicode="[" horiz-adv-x="728" d="M174 -324v1991h509v-152h-347v-1689h347v-150h-509z" />
<glyph unicode="\" horiz-adv-x="879" d="M46 1597h162l625 -1597h-162z" />
<glyph unicode="]" horiz-adv-x="728" d="M46 -174h347v1689h-347v152h510v-1991h-510v150z" />
<glyph unicode="^" horiz-adv-x="994" d="M93 857l335 740h139l336 -740h-150l-251 554h-9l-250 -554h-150z" />
<glyph unicode="_" horiz-adv-x="821" d="M0 -278h822v-150h-822v150z" />
<glyph unicode="`" horiz-adv-x="566" d="M69 1469l70 139l358 -208l-46 -93z" />
<glyph unicode="a" d="M81 532.5q0 122.5 42.5 231.5t112 184t162.5 119t192 44q49 0 96 -11t81.5 -28.5t65.5 -38.5t51.5 -41.5t35.5 -38t22 -28.5l7 -11h11v150h151v-1064h-151v150h-11q-5 -8 -14 -21t-42.5 -47t-71.5 -60t-100.5 -47t-130.5 -21q-99 0 -192 43.5t-162.5 119t-112 184.5 t-42.5 231.5zM232 532.5q0 -97.5 30 -181t80.5 -139.5t118 -87.5t140.5 -31.5q39 0 76.5 8.5t67.5 23t57.5 34t48.5 40.5t39.5 42t31 40t21.5 34t13 23l4 9v371q-2 5 -6.5 14t-21.5 35.5t-36.5 50.5t-51 53.5t-66 50.5t-81 35.5t-96.5 14.5q-73 0 -140.5 -31.5t-118 -88 t-80.5 -139.5t-30 -180.5z" />
<glyph unicode="b" horiz-adv-x="1261" d="M150 0v1597h151v-683h11q5 8 14 21.5t42.5 47t71.5 59.5t100.5 47.5t130.5 21.5q99 0 192 -44t163 -119t112 -184t42 -231.5t-42 -231.5t-112 -184.5t-163 -119t-192 -43.5q-49 0 -96 10.5t-81.5 28t-65.5 38.5t-51.5 42t-35.5 38.5t-22 27.5l-7 11h-11v-150h-151z M301 347q2 -5 6.5 -14.5t21.5 -36t36.5 -50.5t51 -53t66 -50t81 -35.5t96.5 -14.5q73 0 140.5 31.5t118 87.5t80.5 139.5t30 181t-30 180.5t-80.5 139.5t-118 88t-140.5 31.5q-50 0 -96.5 -14t-81.5 -36.5t-65.5 -49.5t-51 -54.5t-36 -49.5t-21.5 -36l-7 -14v-371z" />
<glyph unicode="c" horiz-adv-x="1191" d="M81 532q0 119 44.5 227t118.5 184.5t174 122t207 45.5q96 0 179.5 -27.5t141.5 -73t96.5 -99.5t56.5 -112l-150 -35q-14 41 -40 76.5t-65 66t-95.5 48t-123.5 17.5q-77 0 -149 -33.5t-126 -91t-86 -140t-32 -175.5t32 -175.5t86 -140t126 -90.5t149 -33q139 0 230 70.5 t128 183.5l152 -35q-18 -71 -59.5 -134.5t-104 -114t-152 -80t-194.5 -29.5q-107 0 -207 45t-174 122t-118.5 184.5t-44.5 226.5z" />
<glyph unicode="d" horiz-adv-x="1261" d="M81 532.5q0 122.5 42.5 231.5t112 184t162.5 119t192 44q49 0 96 -11t81.5 -28.5t65.5 -38.5t51.5 -41.5t35.5 -38t22 -28.5l7 -11h11v683h151v-1597h-151v150h-11q-5 -8 -14 -21t-42.5 -47t-71.5 -60t-100.5 -47t-130.5 -21q-99 0 -192 43.5t-162.5 119t-112 184.5 t-42.5 231.5zM232 532.5q0 -97.5 30 -181t80.5 -139.5t118 -87.5t140.5 -31.5q39 0 76.5 8.5t67.5 23t57.5 34t48.5 40.5t39.5 42t31 40t21.5 34t13 23l4 9v371q-2 5 -6.5 14t-21.5 35.5t-36.5 50.5t-51 53.5t-66 50.5t-81 35.5t-96.5 14.5q-73 0 -140.5 -31.5t-118 -88 t-80.5 -139.5t-30 -180.5z" />
<glyph unicode="e" horiz-adv-x="1214" d="M81 532q0 123 43 231.5t115 184t169.5 119.5t205 44t205 -44t169.5 -119.5t115 -184t43 -231.5l-70 -69h-844q11 -103 64.5 -187.5t140 -133.5t188.5 -49q75 0 138.5 19.5t107.5 54t74 77t46 92.5l150 -31q-20 -69 -62.5 -130.5t-105.5 -111.5t-152.5 -79.5t-193.5 -29.5 q-112 0 -212.5 43.5t-174 119t-116.5 184t-43 231.5zM232 601h764q-12 103 -65 188t-137 134t-180.5 49t-180.5 -49t-137 -134t-64 -188z" />
<glyph unicode="f" horiz-adv-x="658" d="M46 925v139h162v197q0 164 93 261.5t243 97.5q46 0 92 -11.5t70 -22.5l23 -12l-35 -139q-7 5 -19 13t-51 20.5t-80 12.5q-81 0 -133.5 -59t-52.5 -161v-197h289v-139h-289v-925h-150v925h-162z" />
<glyph unicode="g" d="M81 556q0 114 42.5 217.5t112 177t162.5 117t192 43.5q49 0 96 -11t81.5 -28.5t65.5 -38.5t51.5 -41.5t35.5 -38t22 -28.5l7 -11h11v150h151v-1053q0 -106 -37 -199t-101.5 -158t-154.5 -102.5t-193 -37.5q-96 0 -177.5 25.5t-139 70.5t-96.5 99t-62 117l151 35 q83 -208 324 -208q149 0 242 97.5t93 260.5v186h-11q-5 -8 -14 -21.5t-42.5 -47.5t-71.5 -59.5t-100.5 -47t-130.5 -21.5q-99 0 -192 43.5t-162.5 117t-112 177.5t-42.5 218zM232 556q0 -89 30 -167.5t80.5 -132.5t118 -85.5t140.5 -31.5q50 0 96.5 14t81.5 36.5t65.5 49.5 t51.5 54t36 49.5t22 36.5l6 14v325q-2 5 -6.5 14t-21.5 35.5t-36.5 50.5t-51 53.5t-66 50.5t-81 35.5t-96.5 14.5q-73 0 -140.5 -31.5t-118 -85.5t-80.5 -132t-30 -167z" />
<glyph unicode="h" horiz-adv-x="1237" d="M150 0v1597h151v-683h11q5 8 15 21.5t44.5 47t73 59.5t100 47.5t126.5 21.5q95 0 176 -34t139.5 -96t91.5 -153.5t33 -202.5v-625h-151v625q0 162 -83 254.5t-217 92.5q-47 0 -92.5 -14t-80.5 -36.5t-66 -49.5t-52.5 -54.5t-37 -49.5t-23.5 -36l-7 -14v-718h-151z" />
<glyph unicode="i" horiz-adv-x="485" d="M139 1504q0 43 30.5 73.5t73.5 30.5t73.5 -30.5t30.5 -73.5t-30.5 -73.5t-73.5 -30.5t-73.5 30.5t-30.5 73.5zM170 0v1064h150v-1064h-150z" />
<glyph unicode="j" horiz-adv-x="466" d="M-208 -440l34 139q7 -5 19 -12.5t51.5 -20.5t80.5 -13q80 0 132.5 57t52.5 151v1203h150v-1203q0 -155 -93 -251t-242 -96q-46 0 -92 11.5t-70 23.5zM132 1504q0 43 30.5 73.5t73.5 30.5t73.5 -30.5t30.5 -73.5t-30.5 -73.5t-73.5 -30.5t-73.5 30.5t-30.5 73.5z" />
<glyph unicode="k" horiz-adv-x="1098" d="M150 0v1597h151v-1100l556 567h185l-395 -404l441 -660h-163l-369 556h-12l-243 -244v-312h-151z" />
<glyph unicode="l" horiz-adv-x="508" d="M23 1458v139h335v-1597h-150v1458h-185z" />
<glyph unicode="m" horiz-adv-x="1804" d="M139 0v1064h150v-150h12q3 8 10.5 21.5t34 47t57.5 59.5t81.5 47.5t105.5 21.5q52 0 98.5 -11.5t79.5 -30t61 -40.5t46 -44.5t30 -40.5t18 -30l5 -11h11q2 4 5 11.5t16 29t29 41.5t43.5 44t58.5 41t75.5 29t94.5 12q91 0 167.5 -32t132 -91t86.5 -146.5t31 -194.5v-647 h-150v647q0 148 -73 236.5t-194 88.5t-199.5 -89.5t-78.5 -235.5v-647h-150v647q0 72 -22 134t-57.5 103t-81 64.5t-93.5 23.5q-41 0 -78.5 -14t-65.5 -36.5t-52.5 -49.5t-41.5 -54.5t-29 -49.5t-17 -36l-6 -14v-718h-150z" />
<glyph unicode="n" horiz-adv-x="1226" d="M139 0v1064h150v-150h12q5 8 15 21.5t44.5 47t73 59.5t100 47.5t126.5 21.5q95 0 176 -34t139 -96t91 -153.5t33 -202.5v-625h-150v625q0 162 -84 254.5t-218 92.5q-47 0 -92 -14t-80 -36.5t-65.5 -49.5t-52 -54.5t-37.5 -49.5t-23 -36l-8 -14v-718h-150z" />
<glyph unicode="o" horiz-adv-x="1272" d="M81 532.5q0 123.5 43.5 231.5t117.5 184t176.5 119.5t218 43.5t218 -43.5t177 -119.5t117.5 -184t43 -231.5t-43 -231.5t-117.5 -184t-177 -119.5t-218 -43.5t-218 43.5t-176.5 119.5t-117.5 184t-43.5 231.5zM232 532.5q0 -93.5 32.5 -176t87.5 -140t129 -90.5t155 -33 q82 0 156.5 33t129.5 90.5t87.5 140t32.5 175.5t-32.5 175.5t-87.5 140t-129.5 91t-156.5 33.5t-156 -33.5t-129 -91t-87 -139.5t-32 -175.5z" />
<glyph unicode="p" d="M139 -463v1527h150v-150h12q4 8 13.5 21.5t42.5 47t71.5 59.5t101 47.5t130.5 21.5q99 0 191.5 -44t162.5 -119t112 -184t42 -231.5t-42 -231.5t-112 -184.5t-162.5 -119t-191.5 -43.5q-50 0 -96.5 10.5t-81.5 28t-65.5 38.5t-51 42t-36 38.5t-21.5 27.5l-7 11h-12v-613 h-150zM289 347q3 -5 7.5 -14.5t21.5 -36t36 -50.5t50.5 -53t65.5 -50t81 -35.5t96 -14.5q74 0 141.5 31.5t118.5 87.5t81 139.5t30 181t-30 180.5t-81 139.5t-118.5 88t-141.5 31.5q-49 0 -95.5 -14t-81.5 -36.5t-65.5 -49.5t-51 -54.5t-35.5 -49.5t-22 -36l-7 -14v-371z " />
<glyph unicode="q" d="M81 532.5q0 122.5 42.5 231.5t112 184t162.5 119t192 44q49 0 96 -11t81.5 -28.5t65.5 -38.5t51.5 -41.5t35.5 -38t22 -28.5l7 -11h11v150h151v-1527h-151v613h-11q-5 -8 -14 -21t-42.5 -47t-71.5 -60t-100.5 -47t-130.5 -21q-99 0 -192 43.5t-162.5 119t-112 184.5 t-42.5 231.5zM232 532.5q0 -97.5 30 -181t80.5 -139.5t118 -87.5t140.5 -31.5q39 0 76.5 8.5t67.5 23t57.5 34t48.5 40.5t39.5 42t31 40t21.5 34t13 23l4 9v371q-2 5 -6.5 14t-21.5 35.5t-36.5 50.5t-51 53.5t-66 50.5t-81 35.5t-96.5 14.5q-73 0 -140.5 -31.5t-118 -88 t-80.5 -139.5t-30 -180.5z" />
<glyph unicode="r" horiz-adv-x="705" d="M139 0v1064h150v-150h12q5 8 14.5 21.5t43.5 47t71.5 59.5t96.5 47.5t120 21.5h36v-151h-47q-45 0 -88.5 -13t-77 -34.5t-63.5 -47.5t-51 -52t-36.5 -47.5t-22.5 -34.5l-8 -13v-718h-150z" />
<glyph unicode="s" horiz-adv-x="1064" d="M46 278l151 23q18 -42 46 -77.5t68.5 -65.5t97.5 -47.5t123 -17.5q75 0 136.5 17.5t99 46t57.5 63t20 69.5q0 41 -24.5 71.5t-66 50.5t-95.5 36t-113.5 30.5t-119 30.5t-113 40.5t-95 56.5t-66 81.5t-24.5 112.5q0 61 28 117t81 99.5t135.5 69.5t183.5 26q87 0 164 -25 t130.5 -65.5t90 -85t55.5 -90.5l-151 -23q-101 150 -289 150q-130 0 -204 -53t-74 -120q0 -41 24.5 -71.5t66 -50.5t95.5 -36t113.5 -30.5t119 -30.5t113 -40.5t95 -56.5t66.5 -81.5t25 -112.5q0 -66 -31 -126t-88 -107t-146.5 -74.5t-198.5 -27.5q-96 0 -179.5 27.5 t-142.5 74.5t-100 103t-64 119z" />
<glyph unicode="t" horiz-adv-x="775" d="M46 925v139h162v301h150v-301h289v-139h-289v-613q0 -102 52.5 -160.5t133.5 -58.5q41 0 78.5 11.5t54.5 22.5l17 12l35 -139q-9 -5 -25.5 -13t-65 -20.5t-94.5 -12.5q-150 0 -243 97t-93 261v613h-162z" />
<glyph unicode="u" horiz-adv-x="1237" d="M139 440v624h150v-624q0 -162 83.5 -254.5t217.5 -92.5q37 0 73 8.5t65.5 23t57 34t49.5 40.5t40.5 42t32 40t23 34t14.5 23l4 9v717h150v-1064h-150v150h-12q-5 -8 -15 -21t-44.5 -47t-73 -60t-100 -47t-125.5 -21q-95 0 -176 34t-139.5 96t-91.5 153.5t-33 202.5z" />
<glyph unicode="v" horiz-adv-x="1144" d="M69 1064h151l197 -925h312l196 925h151l-231 -1064h-544z" />
<glyph unicode="w" horiz-adv-x="1619" d="M69 1064h151l197 -925h69l197 925h254l198 -925h68l197 925h150l-219 -1064h-313l-196 925h-23l-198 -925h-312z" />
<glyph unicode="x" horiz-adv-x="1029" d="M23 0l394 556l-359 508h174l278 -393h11l278 393h173l-358 -508l393 -556h-174l-312 440h-11l-313 -440h-174z" />
<glyph unicode="y" horiz-adv-x="1144" d="M69 1064h151l197 -925h312l196 925h151l-231 -1064q-40 -184 -95.5 -291t-126 -151t-172.5 -44q-46 0 -92 11.5t-69 23.5l-23 11l34 139q6 -5 18 -12.5t51.5 -20.5t80.5 -13t74 17t64 56t57.5 107.5t47.5 166.5h-393z" />
<glyph unicode="z" horiz-adv-x="1029" d="M58 0v150l695 764v11h-672v139h868v-150l-695 -764v-11h718v-139h-914z" />
<glyph unicode="{" horiz-adv-x="714" d="M115 601v152h68q51 0 89 35.5t38 79.5q0 46 -52 260t-52 261q0 140 79 214.5t234 74.5h126v-150h-126q-77 0 -120 -38.5t-43 -100.5q0 -47 58 -261t58 -260q0 -45 -13 -81t-32 -54.5t-37.5 -31t-31.5 -15.5l-13 -3v-12q5 -1 13.5 -3.5t30.5 -15.5t39 -31t30.5 -54 t13.5 -81q0 -46 -58 -260.5t-58 -260.5q0 -62 43 -100.5t120 -38.5h126v-150h-126q-155 0 -234 74.5t-79 214.5q0 46 52 260.5t52 260.5q0 44 -38 79.5t-89 35.5h-68z" />
<glyph unicode="|" horiz-adv-x="578" d="M208 -232v1968h163v-1968h-163z" />
<glyph unicode="}" horiz-adv-x="714" d="M69 -174h128q76 0 118.5 38t42.5 101q0 46 -57.5 260.5t-57.5 260.5q0 45 13 81t32 54.5t37.5 30.5t31.5 16l14 3v12q-6 0 -14.5 3t-30.5 15.5t-38.5 31t-30.5 54.5t-14 81q0 46 57.5 260t57.5 261q0 62 -42.5 100.5t-118.5 38.5h-128v150h128q154 0 233.5 -74.5 t79.5 -214.5q0 -47 -52.5 -261t-52.5 -260q0 -44 38 -79.5t89 -35.5h67v-152h-67q-51 0 -89 -35.5t-38 -79.5q0 -46 52.5 -260.5t52.5 -260.5q0 -140 -79.5 -214.5t-233.5 -74.5h-128v150z" />
<glyph unicode="~" horiz-adv-x="971" d="M69 625q0 102 71.5 178t160.5 76q51 0 95 -19t76 -46.5t61.5 -54.5t64.5 -46t73 -19t73 46.5t42 127.5l117 -58q0 -102 -71.5 -178t-160.5 -76q-51 0 -95.5 19t-76 46t-61 54t-64.5 46t-73 19q-39 0 -73.5 -46t-42.5 -127z" />
<glyph unicode="&#xa2;" horiz-adv-x="1191" d="M81 532q0 108 37 207t99 173.5t147 125t180 66.5v203h150v-201q81 -9 151.5 -39t120.5 -73t83.5 -92.5t49.5 -102.5l-150 -35q-14 41 -40 76.5t-65 66t-95.5 48t-123.5 17.5q-77 0 -149 -33.5t-126 -91t-86 -140t-32 -175.5t32 -175.5t86 -140t126 -90.5t149 -33 q139 0 230 70.5t128 183.5l152 -35q-17 -66 -53.5 -124.5t-90.5 -107t-130.5 -80.5t-166.5 -42v-196h-150v198q-95 16 -180 66.5t-147 125t-99 173.5t-37 207z" />
<glyph unicode="&#xa3;" horiz-adv-x="1157" d="M46 0v150h104q87 0 147.5 61t60.5 147v428h-184v151h184v359q0 149 92.5 236.5t255.5 87.5q46 0 92.5 -11.5t68.5 -22.5l23 -12l-22 -150q-8 5 -22 12.5t-56.5 20t-83.5 12.5q-86 0 -135.5 -47t-49.5 -126v-359h289v-151h-289v-428q0 -39 -9.5 -73.5t-23 -56t-27.5 -37.5 t-23 -23l-10 -6v-12h707v-150h-1089z" />
<glyph unicode="&#xa5;" horiz-adv-x="1387" d="M23 1597h180l486 -879h9l487 879h180l-532 -961h302v-139h-360v-161h360v-139h-360v-197h-161v197h-360v139h360v161h-360v139h302z" />
<glyph unicode="&#xa7;" horiz-adv-x="1110" d="M69 267l151 22q39 -97 120 -158.5t204 -61.5q139 0 220 55.5t81 129.5q0 41 -24 73t-65 53.5t-94 40t-111.5 36t-117 37t-111.5 46.5t-94 61t-65 84.5t-24 113.5q0 33 8 64t21.5 55t30.5 45.5t36.5 37.5t38.5 29t36.5 22t31 15t21.5 8l8 3v10q-4 1 -11.5 3.5t-27.5 13 t-39 23t-41.5 34.5t-39 48t-27.5 63.5t-11 80.5q0 61 28 117t79.5 100t131.5 70t177 26q79 0 151 -25t125 -66.5t91 -89t61 -97.5l-150 -24q-93 163 -278 163q-123 0 -194.5 -53.5t-71.5 -120.5q0 -43 23 -76.5t62 -56.5t89.5 -42t106 -37t111 -37.5t106 -46.5t89.5 -61 t62 -84.5t23 -113.5q0 -43 -13 -81t-33.5 -65.5t-45 -51t-49.5 -38.5t-45.5 -25t-32.5 -15l-13 -4v-9q5 -2 13 -4.5t32.5 -12.5t46 -22t48.5 -33.5t46 -46.5t32.5 -61t13.5 -76q0 -66 -29 -124t-84 -102.5t-142.5 -70.5t-196.5 -26q-93 0 -173.5 27.5t-139 75.5t-99.5 106.5 t-63 126.5zM289 799q0 -38 17.5 -70.5t45 -54.5t60.5 -39.5t66.5 -27.5t61 -17t44.5 -9l17 -2q5 1 14 3.5t34.5 11.5t48.5 20t51 30t48 40.5t34 51.5t14 63q0 38 -17 70.5t-44.5 54t-61 39t-67 27.5t-61 17t-45.5 9l-17 2q-5 -1 -13.5 -3.5t-34 -11.5t-48.5 -20t-51 -30 t-48 -40t-34 -51t-14 -63z" />
<glyph unicode="&#xa8;" horiz-adv-x="716" d="M69 1504q0 35 29 64t63.5 29t63.5 -29t29 -64t-29 -64t-63.5 -29t-63.5 29t-29 64zM463 1504q0 35 29 64t64 29t63 -29t28 -64t-28 -64t-63 -29t-64 29t-29 64z" />
<glyph unicode="&#xa9;" horiz-adv-x="2082" d="M93 660q0 131 34 255.5t95.5 230t149.5 194t192 150.5t227 96t251 34t250.5 -34t226.5 -96t192 -150.5t149 -194t95.5 -230t34.5 -255.5t-34.5 -256t-95.5 -230t-149 -193.5t-192 -150.5t-226.5 -96.5t-250.5 -34.5t-251 34.5t-227 96.5t-192 150.5t-149.5 193.5 t-95.5 230t-34 256zM243 660q0 -111 29.5 -217.5t82 -196.5t127.5 -166t162.5 -129t189.5 -83t207.5 -30t208 30t190 83t162 129t127 166t82 196.5t29.5 217.5t-29.5 217.5t-82 196t-127 166t-162 129.5t-190 82.5t-208 29.5t-207.5 -29.5t-189.5 -82.5t-162.5 -129.5 t-127.5 -166t-82 -196t-29.5 -217.5zM671 660q0 108 49 196t134 137t188 49q123 0 210.5 -69.5t124.5 -173.5l-127 -13q-20 51 -74.5 89.5t-133.5 38.5q-98 0 -165 -71.5t-67 -182.5t67.5 -183t164.5 -72q96 0 153.5 40t76.5 99l128 -12q-38 -113 -128.5 -183.5 t-229.5 -70.5q-103 0 -188 49t-134 137t-49 196z" />
<glyph unicode="&#xaa;" horiz-adv-x="797" d="M69 1064q0 103 77 167.5t212 64.5h221q0 87 -49.5 136t-136.5 49q-64 0 -103 -27t-70 -77l-105 34q30 78 101.5 132t176.5 54q139 0 226 -85t87 -216v-439h-127v92h-12q-4 -5 -11 -12.5t-31 -27.5t-50.5 -35.5t-67.5 -28t-83 -12.5q-111 0 -183 67t-72 164zM197 1064 q0 -53 35.5 -84t103.5 -31q39 0 78 13t67.5 31.5t51 37.5t34.5 32l12 13v104h-208q-174 0 -174 -116z" />
<glyph unicode="&#xab;" horiz-adv-x="971" d="M69 532l255 440h162l-254 -440l254 -439h-162zM486 532l254 440h163l-256 -440l256 -439h-163z" />
<glyph unicode="&#xac;" horiz-adv-x="925" d="M46 718v152h811v-407h-151v255h-660z" />
<glyph unicode="&#xad;" horiz-adv-x="913" d="M46 636v150h822v-150h-822z" />
<glyph unicode="&#xae;" horiz-adv-x="2082" d="M93 660q0 131 34 255.5t95.5 230t149.5 194t192 150.5t227 96t251 34t250.5 -34t226.5 -96t192 -150.5t149 -194t95.5 -230t34.5 -255.5t-34.5 -256t-95.5 -230t-149 -193.5t-192 -150.5t-226.5 -96.5t-250.5 -34.5t-251 34.5t-227 96.5t-192 150.5t-149.5 193.5 t-95.5 230t-34 256zM243 660q0 -111 29.5 -217.5t82 -196.5t127.5 -166t162.5 -129t189.5 -83t207.5 -30t208 30t190 83t162 129t127 166t82 196.5t29.5 217.5t-29.5 217.5t-82 196t-127 166t-162 129.5t-190 82.5t-208 29.5t-207.5 -29.5t-189.5 -82.5t-162.5 -129.5 t-127.5 -166t-82 -196t-29.5 -217.5zM753 289v740h393q120 0 192.5 -70t72.5 -184q0 -49 -14 -89.5t-34.5 -63.5t-41 -39t-34.5 -21l-15 -6l174 -267h-161l-150 232h-245v-232h-137zM890 647h256q60 0 99.5 37.5t39.5 90.5t-39.5 90.5t-99.5 37.5h-256v-256z" />
<glyph unicode="&#xb0;" horiz-adv-x="740" d="M69 1307.5q0 122.5 86 206t215.5 83.5t215 -83.5t85.5 -206t-85.5 -206t-215 -83.5t-215.5 83.5t-86 206zM185 1307q0 -78 54 -131.5t132 -53.5t131.5 53.5t53.5 131.5t-53.5 132t-131.5 54t-132 -54t-54 -132z" />
<glyph unicode="&#xb1;" horiz-adv-x="994" d="M69 139v139h359v382h-359v150h359v382h139v-382h358v-150h-358v-382h358v-139h-856z" />
<glyph unicode="&#xb4;" horiz-adv-x="566" d="M69 1400l359 208l69 -139l-382 -162z" />
<glyph unicode="&#xb5;" horiz-adv-x="1237" d="M139 -463v1527h150v-624q0 -162 83.5 -254.5t217.5 -92.5q37 0 73 8.5t65.5 23t57 34t49.5 40.5t40.5 42t32 40t23 34t14.5 23l4 9v717h150v-1064h-150v150h-12q-5 -8 -15 -21t-44 -47t-71 -60t-96 -47t-121 -21t-114.5 16.5t-83.5 40t-53 47.5t-30 41l-8 16h-12v-578 h-150z" />
<glyph unicode="&#xb6;" horiz-adv-x="913" d="M93 1180q0 81 35 157.5t94 133.5t141.5 91.5t173.5 34.5h331v-151h-208v-1909h-150v1227q-81 0 -158 34t-133.5 90.5t-91 133.5t-34.5 158z" />
<glyph unicode="&#xb7;" horiz-adv-x="393" d="M93 810q0 43 30 73.5t73.5 30.5t74 -30.5t30.5 -73.5t-30.5 -73.5t-74 -30.5t-73.5 30.5t-30 73.5z" />
<glyph unicode="&#xb8;" horiz-adv-x="554" d="M69 -463l70 81q5 -5 14.5 -13t39.5 -20.5t61 -12.5q51 0 84 30t33 74t-33 74t-84 30h-80l104 243h115l-57 -151q6 -1 16 -4.5t36 -18t45.5 -34.5t36 -57t16.5 -82q0 -97 -64 -158.5t-168 -61.5q-33 0 -64 8.5t-52 20.5t-37.5 23.5t-23.5 19.5z" />
<glyph unicode="&#xba;" horiz-adv-x="832" d="M69 1215q0 171 99 276.5t249 105.5t248.5 -105.5t98.5 -276.5t-98.5 -276.5t-248.5 -105.5t-249 105.5t-99 276.5zM197 1214.5q0 -117.5 65 -191.5t155 -74t154.5 74t64.5 191.5t-64.5 192t-154.5 74.5t-155 -74.5t-65 -192z" />
<glyph unicode="&#xbb;" horiz-adv-x="971" d="M69 93l255 439l-255 440h163l254 -440l-254 -439h-163zM486 93l254 439l-254 440h161l256 -440l-256 -439h-161z" />
<glyph unicode="&#xf7;" horiz-adv-x="925" d="M46 636v139h833v-139h-833zM358 266.5q0 43.5 31 74t74.5 30.5t73.5 -30.5t30 -74t-30.5 -74t-73.5 -30.5t-74 30.5t-31 74zM358 1146q0 43 31 73.5t74.5 30.5t73.5 -30.5t30 -73.5t-30 -73.5t-73.5 -30.5t-74.5 30.5t-31 73.5z" />
<glyph unicode="&#x192;" horiz-adv-x="658" d="M-162 -440l34 139q7 -5 19 -12.5t51 -20.5t81 -13q80 0 132.5 59t52.5 160v1053h-162v139h162v197q0 164 93 261.5t243 97.5q46 0 92 -11.5t70 -22.5l23 -12l-35 -139q-7 5 -19 13t-51 20.5t-80 12.5q-81 0 -133.5 -59t-52.5 -161v-197h289v-139h-289v-1053 q0 -163 -93 -260.5t-242 -97.5q-47 0 -93 11.5t-69 23.5z" />
<glyph unicode="&#x2c6;" horiz-adv-x="797" d="M69 1238l278 359h104l278 -359h-139l-185 231h-12l-185 -231h-139z" />
<glyph unicode="&#x2da;" horiz-adv-x="601" d="M69 1365q0 96 68 164t163.5 68t163.5 -68t68 -164t-68 -163t-163.5 -67t-163.5 67t-68 163zM174 1365q0 -60 37 -99.5t89.5 -39.5t90 39.5t37.5 99.5t-37.5 99.5t-90 39.5t-89.5 -39.5t-37 -99.5z" />
<glyph unicode="&#x2dc;" horiz-adv-x="728" d="M69 1342v58q0 94 47 145.5t127 51.5q38 0 69 -14.5t50 -35t35.5 -41t36 -34.5t41.5 -14q26 0 47.5 21.5t21.5 48.5v57h116v-57q0 -94 -47 -145.5t-127 -51.5q-39 0 -69.5 14.5t-49.5 34.5t-35.5 40.5t-36 34.5t-41.5 14q-26 0 -47.5 -21.5t-21.5 -47.5v-58h-116z" />
<glyph unicode="&#x401;" horiz-adv-x="1365" d="M174 0v1597h1145v-151h-983v-567h775v-150h-775v-579h983v-150h-1145zM461 1956q0 35 28.5 63.5t63 28.5t63.5 -28.5t29 -63.5t-29 -64t-63.5 -29t-63 29t-28.5 64zM854 1956q0 35 29 63.5t64 28.5t64 -28.5t29 -63.5t-29 -64t-64 -29t-64 29t-29 64z" />
<glyph unicode="&#x402;" horiz-adv-x="1665" d="M-46 1446v151h1099v-151h-509v-474h416q137 0 248.5 -39.5t186.5 -111t115 -172t40 -221.5v-300q0 -172 -90.5 -266t-256.5 -94q-30 0 -67.5 9t-60.5 18l-22 8l23 139q59 -23 127 -23q88 0 137 53t49 156v300q0 176 -115.5 285t-313.5 109h-416v-822h-162v1446h-428z" />
<glyph unicode="&#x403;" d="M174 0v1597h1076v-151h-914v-1446h-162zM532 1921l358 208l70 -139l-381 -162z" />
<glyph unicode="&#x404;" horiz-adv-x="1746" d="M93 798.5q0 117.5 31 230.5t86 208t132 175.5t167.5 136t194.5 87t210 31.5q114 0 218.5 -28.5t184.5 -76.5t145 -111t107 -131.5t63 -139.5l-163 -23q-21 54 -55 104t-84 97t-110.5 81.5t-139.5 55t-166 20.5q-118 0 -234 -52t-204.5 -138t-148.5 -200.5t-73 -234.5h718 v-150h-718q13 -137 71 -259t146 -209.5t203.5 -139t239.5 -51.5q95 0 178.5 21.5t147 57.5t117.5 87t91.5 107t66.5 121l163 -24q-29 -82 -75 -156.5t-114.5 -141.5t-152 -116t-192 -77.5t-230.5 -28.5q-106 0 -210 31.5t-194.5 87t-167.5 136t-132 175.5t-86 207.5t-31 230 z" />
<glyph unicode="&#x405;" horiz-adv-x="1422" d="M69 405l163 23q31 -76 74.5 -137t102.5 -109t137.5 -74.5t171.5 -26.5q105 0 191.5 28t142.5 75t86 107t30 126q0 40 -13.5 75t-32 60.5t-57 50.5t-67.5 40t-85 35t-88.5 30t-97.5 29q-61 18 -92 27.5t-88 28.5t-88.5 33.5t-78 39t-73 47.5t-58.5 56t-48.5 68.5t-27.5 81 t-11 96.5q0 87 40.5 168t112 144.5t180 101.5t234.5 38q122 0 223.5 -32t174 -90.5t122.5 -131.5t82 -163l-163 -35q-32 73 -69 125.5t-89 93.5t-122 61t-159 20q-92 0 -170 -25.5t-128.5 -68t-78.5 -96t-28 -110.5q0 -40 14 -75t32.5 -60.5t56.5 -50.5t67.5 -40.5t85 -35 t88.5 -29.5t98 -29q61 -18 92 -27.5t87.5 -29t88 -33.5t78.5 -38.5t73.5 -47.5t58.5 -56t48 -68.5t27.5 -81t11.5 -96.5q0 -96 -43 -183.5t-120 -155t-194 -107.5t-256 -40q-131 0 -240.5 36t-188.5 101t-134 149.5t-86 187.5z" />
<glyph unicode="&#x406;" horiz-adv-x="508" d="M174 0v1597h162v-1597h-162z" />
<glyph unicode="&#x407;" horiz-adv-x="554" d="M-11 1932.5q0 34.5 29 63.5t63.5 29t63.5 -29t29 -63.5t-29 -63.5t-63.5 -29t-63.5 29t-29 63.5zM197 0v1597h161v-1597h-161zM382 1932.5q0 34.5 29 63.5t63.5 29t63.5 -29t29 -63.5t-29 -63.5t-63.5 -29t-63.5 29t-29 63.5z" />
<glyph unicode="&#x408;" horiz-adv-x="1237" d="M23 301l162 35q37 -112 124.5 -183.5t211.5 -71.5q83 0 153 30t120.5 85.5t79.5 139t29 185.5v1076h161v-1076q0 -132 -41 -243t-113 -187t-172.5 -118t-216.5 -42q-97 0 -183.5 31.5t-149 84t-105.5 118t-60 136.5z" />
<glyph unicode="&#x409;" horiz-adv-x="2394" d="M23 0l382 1597h856v-533h452q127 0 238 -42.5t187.5 -114.5t120.5 -169.5t44 -205t-44 -205t-120.5 -170t-187.5 -115t-238 -42.5h-614v1446h-567l-347 -1446h-162zM1261 150h452q93 0 173.5 30.5t136 82.5t86.5 122t31 147.5t-31 147t-86.5 121.5t-136 82.5t-173.5 30.5 h-452v-764z" />
<glyph unicode="&#x40a;" horiz-adv-x="2498" d="M174 0v1597h162v-625h844v625h162v-625h533q114 0 214 -38.5t169 -104.5t109 -155t40 -188t-40 -188.5t-109 -155t-169 -104t-214 -38.5h-695v822h-844v-822h-162zM1342 150h533q81 0 150.5 26.5t117.5 72t75 107t27 130.5t-27 130.5t-75 107t-117.5 72t-150.5 26.5h-533 v-672z" />
<glyph unicode="&#x40b;" horiz-adv-x="1665" d="M-46 1446v151h1099v-151h-509v-474h416q137 0 248.5 -39.5t186.5 -111t115 -172t40 -221.5v-428h-161v428q0 176 -115.5 285t-313.5 109h-416v-822h-162v1446h-428z" />
<glyph unicode="&#x40c;" horiz-adv-x="1572" d="M174 0v1597h162v-718h543q96 0 158 62.5t62 157.5v208q0 149 82.5 231t229.5 82h70v-151h-70q-70 0 -110 -42t-40 -120v-208q0 -49 -10 -91t-26.5 -70t-36.5 -50t-39.5 -34t-36 -20t-26.5 -10l-10 -2v-12q4 -1 11.5 -3.5t29.5 -13.5t41.5 -24.5t43.5 -38.5t41.5 -54.5 t29.5 -73t12 -92.5v-221q0 -77 40 -119t110 -42h69v-151h-69q-148 0 -230.5 82t-82.5 230v221q0 95 -61.5 157t-157.5 62h-567v-729h-162zM590 1897l359 209l69 -139l-382 -162z" />
<glyph unicode="&#x40e;" horiz-adv-x="1480" d="M23 1597h162l359 -868h405l347 868h162l-486 -1250q-80 -205 -184.5 -299t-266.5 -94h-116v150h116q102 0 170 56.5t119 186.5l93 232h-463zM428 2106h128q0 -78 53 -131.5t131 -53.5t131.5 53.5t53.5 131.5h128q0 -139 -87 -226t-226 -87t-225.5 87t-86.5 226z" />
<glyph unicode="&#x40f;" horiz-adv-x="1584" d="M174 0v1597h162v-1447h914v1447h161v-1597h-532v-301h-161v301h-544z" />
<glyph unicode="&#x410;" horiz-adv-x="1550" d="M46 0l394 1597h671l393 -1597h-162l-104 405h-926l-104 -405h-162zM347 556h856l-220 890h-416z" />
<glyph unicode="&#x411;" horiz-adv-x="1526" d="M174 0v1597h1122v-151h-960v-450h567q123 0 227.5 -39t176 -106t111.5 -158.5t40 -195t-40 -195t-111.5 -158.5t-176 -105.5t-227.5 -38.5h-729zM336 150h567q179 0 286 98.5t107 248.5q0 154 -105.5 251t-287.5 97h-567v-695z" />
<glyph unicode="&#x412;" horiz-adv-x="1561" d="M174 0v1597h683q101 0 188.5 -32.5t147 -87.5t93 -129t33.5 -156q0 -52 -11.5 -97t-30 -76t-40.5 -56.5t-44.5 -40.5t-40.5 -25t-30 -14l-11 -4v-11q8 -1 21.5 -3t53.5 -13t76 -26.5t80 -47.5t75.5 -72.5t53.5 -103.5t22 -139q0 -94 -38 -179t-105 -148t-165.5 -99.5 t-212.5 -36.5h-798zM336 150h636q162 0 260.5 90t98.5 223.5t-98.5 222.5t-260.5 89h-636v-625zM336 925h521q137 0 218.5 74.5t81.5 192.5q0 108 -82.5 181t-217.5 73h-521v-521z" />
<glyph unicode="&#x413;" d="M174 0v1597h1076v-151h-914v-1446h-162z" />
<glyph unicode="&#x414;" horiz-adv-x="1665" d="M0 150h162l348 1447h647l347 -1447h163v-439h-163v289h-1342v-289h-162v439zM324 150h1018l-313 1296h-393z" />
<glyph unicode="&#x415;" horiz-adv-x="1376" d="M174 0v1597h1145v-151h-983v-567h775v-150h-775v-579h983v-150h-1145z" />
<glyph unicode="&#x416;" horiz-adv-x="2359" d="M69 -23v151h70q70 0 110 42t40 119v221q0 49 11.5 92.5t30 73t40.5 54t44.5 39t40.5 24.5t30 14l11 3v12q-4 0 -10.5 2t-26 10.5t-37 20t-38.5 33.5t-36.5 50t-26 70t-10.5 91v208q0 78 -40 120t-110 42h-69v151h69q147 0 230 -82t83 -231v-208q0 -95 61.5 -157.5 t157.5 -62.5h405v718h162v-718h406q95 0 157 62.5t62 157.5v208q0 149 82.5 231t230.5 82h69v-151h-69q-70 0 -110.5 -42.5t-40.5 -119.5v-208q0 -49 -10.5 -91t-26.5 -70t-36 -50t-39.5 -34t-35.5 -20t-26 -10l-11 -2v-12q5 -1 12.5 -3.5t29 -13.5t41 -24.5t43.5 -38.5 t41.5 -54.5t29 -73t11.5 -92.5v-221q0 -77 40 -119t111 -42h70v-151h-70q-148 0 -230 82t-82 230v221q0 95 -62.5 157t-158.5 62h-428v-729h-162v729h-428q-96 0 -158 -62t-62 -157v-221q0 -148 -82 -230t-230 -82h-70z" />
<glyph unicode="&#x417;" horiz-adv-x="1422" d="M69 405l163 23q31 -76 74.5 -137t102.5 -109t137.5 -74.5t171.5 -26.5q105 0 191.5 28t142.5 75t86 107t30 126t-30 126t-86 107t-142.5 75t-191.5 28h-128v150h128q87 0 164.5 27.5t129 72t81 100t29.5 112.5t-28 110.5t-78.5 96t-128 68t-169.5 25.5q-90 0 -160 -20 t-121.5 -61t-89 -93.5t-69.5 -125.5l-163 35q32 90 82.5 163t123 131.5t173.5 90.5t224 32q126 0 234 -38t180 -101.5t112.5 -144.5t40.5 -168q0 -62 -18 -115.5t-46.5 -90t-63 -66.5t-69.5 -47.5t-63.5 -29.5t-46.5 -16l-18 -5v-12q8 -2 21.5 -5t52 -17t73.5 -32t77.5 -52 t73.5 -75t52 -102.5t21 -132.5q0 -96 -43 -183.5t-120 -155t-194 -107.5t-256 -40q-131 0 -240.5 36t-188.5 101t-134 149.5t-86 187.5z" />
<glyph unicode="&#x418;" horiz-adv-x="1607" d="M174 0v1597h162v-1319h11l914 1319h174v-1597h-163v1319h-11l-914 -1319h-173z" />
<glyph unicode="&#x419;" horiz-adv-x="1607" d="M174 0v1597h162v-1319h11l914 1319h174v-1597h-163v1319h-11l-914 -1319h-173zM497 2118h128q0 -78 53.5 -132t131.5 -54t132 54t54 132h126q0 -139 -86.5 -226t-225.5 -87t-226 87t-87 226z" />
<glyph unicode="&#x41a;" horiz-adv-x="1572" d="M174 0v1597h162v-718h543q96 0 158 62.5t62 157.5v208q0 149 82.5 231t229.5 82h70v-151h-70q-70 0 -110 -42t-40 -120v-208q0 -49 -10 -91t-26.5 -70t-36.5 -50t-39.5 -34t-36 -20t-26.5 -10l-10 -2v-12q4 -1 11.5 -3.5t29.5 -13.5t41.5 -24.5t43.5 -38.5t41.5 -54.5 t29.5 -73t12 -92.5v-221q0 -77 40 -119t110 -42h69v-151h-69q-148 0 -230.5 82t-82.5 230v221q0 95 -61.5 157t-157.5 62h-567v-729h-162z" />
<glyph unicode="&#x41b;" horiz-adv-x="1550" d="M46 0l394 1597h671l393 -1597h-162l-359 1446h-416l-359 -1446h-162z" />
<glyph unicode="&#x41c;" horiz-adv-x="1943" d="M174 0v1597h173l625 -764l625 764h174v-1597h-163v1354h-11l-625 -764l-625 764h-11v-1354h-162z" />
<glyph unicode="&#x41d;" horiz-adv-x="1584" d="M174 0v1597h162v-718h914v718h161v-1597h-161v729h-914v-729h-162z" />
<glyph unicode="&#x41e;" horiz-adv-x="1873" d="M93 799q0 115 31 227t87 207t135 176t171.5 137.5t200.5 88.5t219 32t219 -31.5t200.5 -88t171.5 -137t135 -175.5t87.5 -207.5t31.5 -229t-31.5 -228.5t-87.5 -207t-135 -175.5t-171.5 -137t-200.5 -88t-219 -31.5t-219 31.5t-200.5 88t-171.5 137t-135 175.5t-87 207 t-31 229zM254 799q0 -144 57 -277.5t150 -229.5t218.5 -153.5t257.5 -57.5t257.5 57.5t219 153.5t150 229.5t56.5 277.5t-56.5 277t-150 229t-219 153t-257.5 57t-257.5 -57t-219 -153t-150 -229t-56.5 -277z" />
<glyph unicode="&#x41f;" horiz-adv-x="1584" d="M174 0v1597h1237v-1597h-161v1446h-914v-1446h-162z" />
<glyph unicode="&#x420;" horiz-adv-x="1550" d="M174 0v1597h671q137 0 252 -43.5t194 -119t123 -180t44 -225t-44 -225t-123 -180t-194 -118.5t-252 -43h-509v-463h-162zM336 614h509q206 0 328.5 115.5t122.5 299.5q0 91 -31.5 168t-89 132t-142.5 86t-188 31h-509v-832z" />
<glyph unicode="&#x421;" horiz-adv-x="1746" d="M93 799q0 116 31 228.5t86 207.5t133 175.5t168 137t194 88t209 31.5q114 0 218.5 -28.5t184.5 -76.5t145 -111t107 -131.5t63 -139.5l-163 -23q-21 54 -55 104t-84 97t-110.5 81.5t-139.5 55t-166 20.5q-124 0 -244.5 -57t-211.5 -152.5t-147.5 -229.5t-56.5 -277 q0 -97 26 -191t71 -172t107.5 -144.5t135 -112.5t155 -72t165.5 -26q95 0 178.5 21.5t147 57.5t117.5 87t91.5 107t66.5 121l163 -24q-29 -82 -75 -156.5t-114.5 -141.5t-152 -116t-192 -77.5t-230.5 -28.5q-105 0 -209 31.5t-194 88t-168 137t-133 175.5t-86 207.5 t-31 228.5z" />
<glyph unicode="&#x422;" horiz-adv-x="1341" d="M23 1446v151h1296v-151h-566v-1446h-163v1446h-567z" />
<glyph unicode="&#x423;" horiz-adv-x="1480" d="M23 1597h162l359 -868h405l347 868h162l-486 -1250q-80 -205 -184.5 -299t-266.5 -94h-116v150h116q102 0 170 56.5t119 186.5l93 232h-463z" />
<glyph unicode="&#x424;" horiz-adv-x="2036" d="M81 799q0 95 28.5 186.5t80 172t128.5 149t170 117.5t208.5 76.5t240.5 27.5v161h162v-161q125 0 240.5 -27.5t209 -76.5t170.5 -117.5t128.5 -149t80 -172t28.5 -186.5t-28.5 -187t-80 -172.5t-128.5 -149t-170.5 -117.5t-209 -76.5t-240.5 -27.5v-162h-162v162 q-125 0 -240.5 27.5t-208.5 76.5t-170 117.5t-128.5 149t-80 172.5t-28.5 187zM243 798.5q0 -112.5 50.5 -217t139.5 -184.5t220.5 -128.5t283.5 -48.5v1157q-152 0 -283.5 -48t-220.5 -128t-139.5 -185t-50.5 -217.5zM1099 220q152 0 284 48.5t220.5 128.5t139 184.5 t50.5 217t-50.5 217.5t-139 185t-220.5 128t-284 48v-1157z" />
<glyph unicode="&#x425;" horiz-adv-x="1422" d="M35 0q262 374 579 833l-533 764h186l439 -637h12l439 637h185l-532 -764q317 -459 579 -833h-186l-485 706h-12l-486 -706h-185z" />
<glyph unicode="&#x426;" horiz-adv-x="1596" d="M174 0v1597h162v-1447h867v1447h162v-1447h185v-439h-161v289h-1215z" />
<glyph unicode="&#x427;" horiz-adv-x="1515" d="M150 1064v533h162v-533q0 -176 115.5 -284.5t312.5 -108.5h440v926h162v-1597h-162v521h-440q-137 0 -248 39.5t-186 110.5t-115.5 171.5t-40.5 221.5z" />
<glyph unicode="&#x428;" horiz-adv-x="2267" d="M174 0v1597h162v-1447h717v1447h162v-1447h717v1447h162v-1597h-1920z" />
<glyph unicode="&#x429;" horiz-adv-x="2325" d="M174 0v1597h162v-1447h717v1447h162v-1447h717v1447h162v-1447h185v-439h-161v289h-1944z" />
<glyph unicode="&#x42a;" horiz-adv-x="1643" d="M0 1446v151h521v-533h439q128 0 238.5 -42.5t187.5 -114.5t120.5 -169.5t43.5 -205t-43.5 -205t-120.5 -170t-187.5 -115t-238.5 -42.5h-602v1446h-358zM521 150h439q94 0 174.5 30.5t136 82.5t87 122t31.5 147.5t-31.5 147t-87 121.5t-136 82.5t-174.5 30.5h-439v-764z " />
<glyph unicode="&#x42b;" horiz-adv-x="1919" d="M174 0v1597h162v-533h417q127 0 237.5 -42.5t187.5 -114.5t120.5 -169.5t43.5 -205t-43.5 -205t-120.5 -170t-187.5 -115t-237.5 -42.5h-579zM336 150h417q93 0 173.5 30.5t135.5 82.5t86.5 122t31.5 147.5t-31.5 147t-86.5 121.5t-135.5 82.5t-173.5 30.5h-417v-764z M1585 0v1597h162v-1597h-162z" />
<glyph unicode="&#x42c;" horiz-adv-x="1504" d="M174 0v1597h162v-533h486q127 0 237.5 -42.5t187.5 -114.5t120.5 -169.5t43.5 -205t-43.5 -205t-120.5 -170t-187.5 -115t-237.5 -42.5h-648zM336 150h486q93 0 173.5 30.5t136 82.5t87 122t31.5 147.5t-31.5 147t-87 121.5t-136 82.5t-173.5 30.5h-486v-764z" />
<glyph unicode="&#x42d;" horiz-adv-x="1746" d="M69 451l163 24q29 -65 66.5 -121t91.5 -107t117.5 -87t147 -57.5t178.5 -21.5q124 0 239.5 51.5t203.5 139t146 209.5t71 259h-718v150h718q-13 120 -73 234.5t-148.5 200.5t-204.5 138t-234 52q-87 0 -166 -20.5t-139.5 -55t-110.5 -81.5t-84 -97t-55 -104l-163 23 q21 71 63 139.5t107 131.5t145 111t184.5 76.5t218.5 28.5q106 0 210 -31.5t194.5 -87t167.5 -136t132 -175.5t86 -208t31 -230.5t-31 -230t-86 -207.5t-132 -175.5t-167.5 -136t-194.5 -87t-210 -31.5q-122 0 -230.5 28.5t-192 77.5t-152 116t-115 141.5t-74.5 156.5z" />
<glyph unicode="&#x42e;" horiz-adv-x="2279" d="M174 0v1597h162v-718h311q9 171 71 318t163 250t238.5 161.5t291.5 58.5q104 0 202.5 -29.5t184 -82.5t157.5 -131.5t123 -173t80 -210.5t29 -241t-29 -241t-80 -211t-123 -173t-157.5 -131.5t-184 -82.5t-202.5 -29q-154 0 -291.5 58.5t-238.5 162t-163 253t-71 324.5 h-311v-729h-162zM799 798.5q0 -156.5 50 -292t134.5 -227.5t195.5 -145t232 -53t232.5 53t196 145t135 228t50.5 292t-50.5 291.5t-135 227.5t-196 144.5t-232.5 52.5t-232 -52t-195.5 -144.5t-134.5 -228t-50 -292z" />
<glyph unicode="&#x42f;" horiz-adv-x="1572" d="M115 1042q0 112 44.5 213t123 177t194.5 120.5t252 44.5h671v-1597h-162v486h-578l-336 -486h-185l358 521q-8 3 -21.5 8t-53.5 26.5t-76 47t-80 69.5t-75.5 94.5t-53.5 123t-22 152.5zM278 1042q0 -78 33.5 -151.5t91.5 -129.5t143.5 -90.5t182.5 -34.5h509v810h-509 q-97 0 -182.5 -34t-143.5 -90t-91.5 -129t-33.5 -151z" />
<glyph unicode="&#x430;" d="M81 532.5q0 122.5 42.5 231.5t112 184t162.5 119t192 44q49 0 96 -11t81.5 -28.5t65.5 -38.5t51.5 -41.5t35.5 -38t22 -28.5l7 -11h11v150h151v-1064h-151v150h-11q-5 -8 -14 -21t-42.5 -47t-71.5 -60t-100.5 -47t-130.5 -21q-99 0 -192 43.5t-162.5 119t-112 184.5 t-42.5 231.5zM232 532.5q0 -97.5 30 -181t80.5 -139.5t118 -87.5t140.5 -31.5q39 0 76.5 8.5t67.5 23t57.5 34t48.5 40.5t39.5 42t31 40t21.5 34t13 23l4 9v371q-2 5 -6.5 14t-21.5 35.5t-36.5 50.5t-51 53.5t-66 50.5t-81 35.5t-96.5 14.5q-73 0 -140.5 -31.5t-118 -88 t-80.5 -139.5t-30 -180.5z" />
<glyph unicode="&#x431;" d="M128 486v510q0 184 92 293.5t255 145.5l358 80q36 9 58.5 36.5t22.5 68.5v47h150v-70q0 -95 -45.5 -145t-150.5 -75l-358 -81q-100 -22 -166 -102.5t-66 -197.5v-197q2 4 6.5 12t20.5 31t35.5 43.5t52.5 46t69.5 43.5t88.5 30.5t109 12.5q103 0 196.5 -41t162 -111.5 t109 -170t40.5 -209.5q0 -111 -41 -210t-110.5 -169.5t-166 -111.5t-203 -41t-203 41t-166 111.5t-110 169.5t-40.5 210zM278 485.5q0 -113.5 49 -203.5t133 -139.5t187 -49.5q78 0 146 28.5t118 79.5t78.5 125t28.5 160q0 113 -49 203.5t-133.5 140t-188 49.5t-187.5 -49.5 t-133 -140t-49 -204z" />
<glyph unicode="&#x432;" horiz-adv-x="1110" d="M139 0v1064h477q149 0 235 -74.5t86 -190.5q0 -49 -15.5 -87t-37.5 -58t-44.5 -33t-37.5 -16l-16 -4v-11q6 -1 15.5 -2t37.5 -8.5t53 -18.5t56 -33t53 -49.5t37 -71t15 -95.5q0 -64 -25.5 -120.5t-71 -99t-114 -67.5t-148.5 -25h-555zM289 139h405q94 0 151.5 54 t57.5 131q0 82 -56.5 134t-152.5 52h-405v-371zM289 647h327q82 0 126 38t44 101t-44 101t-126 38h-327v-278z" />
<glyph unicode="&#x433;" horiz-adv-x="901" d="M139 0v1064h764v-139h-614v-925h-150z" />
<glyph unicode="&#x434;" horiz-adv-x="1214" d="M0 139h150l197 925h521l196 -925h151v-393h-151v254h-914v-254h-150v393zM301 139h613l-161 786h-290z" />
<glyph unicode="&#x435;" horiz-adv-x="1214" d="M81 532q0 123 43 231.5t115 184t169.5 119.5t205 44t205 -44t169.5 -119.5t115 -184t43 -231.5l-70 -69h-844q11 -103 64.5 -187.5t140 -133.5t188.5 -49q75 0 138.5 19.5t107.5 54t74 77t46 92.5l150 -31q-20 -69 -62.5 -130.5t-105.5 -111.5t-152.5 -79.5t-193.5 -29.5 q-112 0 -212.5 43.5t-174 119t-116.5 184t-43 231.5zM232 601h764q-12 103 -65 188t-137 134t-180.5 49t-180.5 -49t-137 -134t-64 -188z" />
<glyph unicode="&#x436;" horiz-adv-x="1746" d="M69 -23v138h46q52 0 78.5 27t26.5 78v116q0 51 15.5 90.5t37.5 58.5t44.5 31t37.5 14l16 2v12q-6 1 -14.5 3.5t-30.5 15t-38.5 31t-30.5 54.5t-14 81v116q0 104 -104 104h-46v139h57q118 0 180.5 -60.5t62.5 -159.5v-115q0 -69 39 -110.5t100 -41.5h267v463h150v-463h266 q61 0 100 41.5t39 110.5v115q0 99 62.5 159.5t180.5 60.5h57v-139h-46q-104 0 -104 -104v-116q0 -45 -13 -81t-31.5 -54.5t-37 -31t-31.5 -15.5l-14 -3v-12q7 0 17 -2t36 -14t45.5 -31t36 -58.5t16.5 -90.5v-116q0 -105 104 -105h46v-138h-58q-117 0 -180 60t-63 160v115 q0 69 -38.5 110t-100.5 41h-289v-463h-150v463h-289q-62 0 -100.5 -41t-38.5 -110v-115q0 -100 -63 -160t-180 -60h-59z" />
<glyph unicode="&#x437;" horiz-adv-x="1087" d="M58 278l150 23q18 -42 46.5 -77.5t68.5 -65.5t97 -47.5t124 -17.5q74 0 135.5 17.5t99 46t58 63t20.5 70t-20.5 70t-58 63t-99 46t-135.5 17.5h-116v139h116q129 0 203.5 53t74.5 120.5t-74 120.5t-204 53q-189 0 -290 -150l-150 23q18 46 54.5 90.5t90.5 85t131 65.5 t164 25q100 0 183 -26t135.5 -69.5t81 -99.5t28.5 -117q0 -36 -12 -67t-31.5 -53t-43 -40t-47 -29t-42.5 -18.5t-31 -10.5l-12 -2v-12q5 -1 14 -3t35.5 -11.5t50.5 -21.5t53.5 -35t50.5 -50.5t35.5 -68t14.5 -88.5q0 -66 -31 -126t-87.5 -107t-146 -74.5t-198.5 -27.5 q-97 0 -180 27.5t-142.5 74.5t-100.5 103t-63 119z" />
<glyph unicode="&#x438;" horiz-adv-x="1214" d="M139 0v1064h150v-810h12l624 810h151v-1064h-151v810h-11l-625 -810h-150z" />
<glyph unicode="&#x439;" horiz-adv-x="1214" d="M139 0v1064h150v-810h12l624 810h151v-1064h-151v810h-11l-625 -810h-150zM315 1590h116q0 -78 48 -126t125.5 -48t125 48t47.5 126h117q0 -121 -84 -205t-205.5 -84t-205.5 84t-84 205z" />
<glyph unicode="&#x43a;" horiz-adv-x="1168" d="M139 0v1064h150v-463h347q62 0 100.5 41.5t38.5 110.5v115q0 99 63 159.5t180 60.5h58v-139h-47q-104 0 -104 -104v-116q0 -45 -13 -81t-31.5 -54.5t-37 -31t-31.5 -15.5l-13 -3v-12q6 0 16 -2t36 -14t46 -31t36 -58.5t16 -90.5v-116q0 -105 104 -105h46v-138h-57 q-118 0 -180.5 60t-62.5 160v115q0 69 -38.5 110t-100.5 41h-371v-463h-150z" />
<glyph unicode="&#x43b;" horiz-adv-x="1168" d="M46 0l232 1064h612l232 -1064h-150q-28 127 -197 925h-382l-196 -925h-151z" />
<glyph unicode="&#x43c;" horiz-adv-x="1387" d="M139 0v1064h162l393 -485l394 485h162v-1064h-151v833h-11l-394 -486l-393 486h-12v-833h-150z" />
<glyph unicode="&#x43d;" horiz-adv-x="1191" d="M139 0v1064h150v-474h614v474h150v-1064h-150v451h-614v-451h-150z" />
<glyph unicode="&#x43e;" horiz-adv-x="1272" d="M81 532.5q0 123.5 43.5 231.5t117.5 184t176.5 119.5t218 43.5t218 -43.5t177 -119.5t117.5 -184t43 -231.5t-43 -231.5t-117.5 -184t-177 -119.5t-218 -43.5t-218 43.5t-176.5 119.5t-117.5 184t-43.5 231.5zM232 532.5q0 -93.5 32.5 -176t87.5 -140t129 -90.5t155 -33 q82 0 156.5 33t129.5 90.5t87.5 140t32.5 175.5t-32.5 175.5t-87.5 140t-129.5 91t-156.5 33.5t-156 -33.5t-129 -91t-87 -139.5t-32 -175.5z" />
<glyph unicode="&#x43f;" horiz-adv-x="1191" d="M139 0v1064h914v-1064h-150v925h-614v-925h-150z" />
<glyph unicode="&#x440;" d="M139 -463v1527h150v-150h12q4 8 13.5 21.5t42.5 47t71.5 59.5t101 47.5t130.5 21.5q99 0 191.5 -44t162.5 -119t112 -184t42 -231.5t-42 -231.5t-112 -184.5t-162.5 -119t-191.5 -43.5q-50 0 -96.5 10.5t-81.5 28t-65.5 38.5t-51 42t-36 38.5t-21.5 27.5l-7 11h-12v-613 h-150zM289 347q3 -5 7.5 -14.5t21.5 -36t36 -50.5t50.5 -53t65.5 -50t81 -35.5t96 -14.5q74 0 141.5 31.5t118.5 87.5t81 139.5t30 181t-30 180.5t-81 139.5t-118.5 88t-141.5 31.5q-49 0 -95.5 -14t-81.5 -36.5t-65.5 -49.5t-51 -54.5t-35.5 -49.5t-22 -36l-7 -14v-371z " />
<glyph unicode="&#x441;" horiz-adv-x="1191" d="M81 532q0 119 44.5 227t118.5 184.5t174 122t207 45.5q96 0 179.5 -27.5t141.5 -73t96.5 -99.5t56.5 -112l-150 -35q-14 41 -40 76.5t-65 66t-95.5 48t-123.5 17.5q-77 0 -149 -33.5t-126 -91t-86 -140t-32 -175.5t32 -175.5t86 -140t126 -90.5t149 -33q139 0 230 70.5 t128 183.5l152 -35q-18 -71 -59.5 -134.5t-104 -114t-152 -80t-194.5 -29.5q-107 0 -207 45t-174 122t-118.5 184.5t-44.5 226.5z" />
<glyph unicode="&#x442;" horiz-adv-x="959" d="M23 925v139h914v-139h-381v-925h-151v925h-382z" />
<glyph unicode="&#x443;" horiz-adv-x="1098" d="M46 1064h151l196 -925h313l197 925h150l-231 -1064q-41 -184 -96 -291t-125.5 -151t-172.5 -44q-46 0 -92.5 11.5t-69.5 23.5l-23 11l35 139q6 -5 18.5 -12.5t51.5 -20.5t80 -13t74.5 17t64.5 56t57 107.5t47 166.5h-393z" />
<glyph unicode="&#x444;" horiz-adv-x="1422" d="M81 532.5q0 114.5 45 220t120 182.5t177 124.5t213 51.5v486h150v-486q112 -4 214 -51.5t177.5 -124.5t120 -182.5t44.5 -220t-44.5 -220t-120 -182.5t-177.5 -124.5t-214 -51.5v-417h-150v417q-111 4 -213 51.5t-177 124.5t-120 182.5t-45 220zM232 532q0 -89 32 -169 t87 -137.5t129 -93t156 -39.5v879q-82 -4 -156 -39.5t-129 -93t-87 -138t-32 -169.5zM786 93q82 4 156.5 39.5t129.5 93t87.5 137.5t32.5 169t-32.5 169.5t-87.5 138t-129.5 93t-156.5 39.5v-879z" />
<glyph unicode="&#x445;" horiz-adv-x="1052" d="M35 0l393 556l-359 508h174l278 -393h11l278 393h173l-358 -508l393 -556h-173l-313 440h-11l-313 -440h-173z" />
<glyph unicode="&#x446;" horiz-adv-x="1202" d="M139 0v1064h150v-925h568v925h150v-925h161v-389h-150v250h-879z" />
<glyph unicode="&#x447;" horiz-adv-x="1122" d="M115 740v324h152v-324q0 -123 77.5 -194t222.5 -71h266v589h150v-1064h-150v336h-266q-102 0 -187.5 30.5t-143 84.5t-89.5 128.5t-32 160.5z" />
<glyph unicode="&#x448;" horiz-adv-x="1676" d="M139 0v1064h150v-925h475v925h150v-925h475v925h150v-1064h-1400z" />
<glyph unicode="&#x449;" horiz-adv-x="1735" d="M139 0v1064h150v-925h475v925h150v-925h475v925h150v-925h162v-389h-151v250h-1411z" />
<glyph unicode="&#x44a;" horiz-adv-x="1191" d="M0 925v139h417v-324h289q94 0 172.5 -28.5t131.5 -78t82.5 -117.5t29.5 -145.5t-29.5 -145.5t-82.5 -118t-131.5 -78.5t-172.5 -28.5h-439v925h-267zM417 139h289q119 0 192.5 66.5t73.5 165t-73.5 164.5t-192.5 66h-289v-462z" />
<glyph unicode="&#x44b;" horiz-adv-x="1457" d="M139 0v1064h150v-324h278q94 0 172.5 -28.5t131.5 -78t82.5 -117.5t29.5 -145.5t-29.5 -145.5t-82.5 -118t-131.5 -78.5t-172.5 -28.5h-428zM289 139h278q119 0 192.5 66.5t73.5 165t-73.5 164.5t-192.5 66h-278v-462zM1168 0v1064h151v-1064h-151z" />
<glyph unicode="&#x44c;" horiz-adv-x="1087" d="M139 0v1064h150v-324h312q94 0 172.5 -28.5t132 -78t83 -117.5t29.5 -145.5t-29.5 -145.5t-83 -118t-132 -78.5t-172.5 -28.5h-462zM289 139h312q119 0 193 67t74 165t-74 164t-193 66h-312v-462z" />
<glyph unicode="&#x44d;" horiz-adv-x="1191" d="M58 312l150 35q37 -113 128.5 -183.5t230.5 -70.5q96 0 183.5 51.5t143 136.5t66.5 182h-439v138h439q-11 98 -66 183t-142.5 136.5t-184.5 51.5q-67 0 -123.5 -17.5t-95.5 -48t-65 -66t-40 -76.5l-150 35q18 58 57 112t97 99.5t141 73t179 27.5q107 0 207 -45.5 t174 -122t118.5 -184.5t44.5 -227t-44.5 -226.5t-118.5 -184.5t-174 -122t-207 -45q-105 0 -194.5 29.5t-152 80t-104 114t-58.5 134.5z" />
<glyph unicode="&#x44e;" horiz-adv-x="1596" d="M139 0v1064h150v-463h208q18 149 88 265t180 180.5t242 64.5q103 0 196 -42t162 -116.5t109.5 -184t40.5 -236.5t-40.5 -236t-109.5 -183.5t-162 -116.5t-196 -42q-132 0 -242 64t-180 180.5t-88 264.5h-208v-463h-150zM647 532.5q0 -101.5 28.5 -185.5t78 -139 t114.5 -85t139 -30t139 30t113.5 85t77 139t28.5 185.5t-28.5 185.5t-77 139t-113.5 85t-139 30t-139 -30t-114.5 -85t-78 -139t-28.5 -185.5z" />
<glyph unicode="&#x44f;" horiz-adv-x="1133" d="M81 0l231 336q-5 1 -13.5 4.5t-32 16.5t-45.5 29.5t-48.5 45.5t-45.5 63t-32.5 83t-13.5 105q0 168 116 274.5t313 106.5h486v-1064h-151v301h-382l-209 -301h-173zM232 682.5q0 -106.5 75 -174.5t203 -68h335v485h-335q-128 0 -203 -68t-75 -174.5z" />
<glyph unicode="&#x451;" horiz-adv-x="1214" d="M81 532q0 123 43 231.5t115 184t169.5 119.5t205 44t205 -44t169.5 -119.5t115 -184t43 -231.5l-70 -69h-844q11 -103 64.5 -187.5t140 -133.5t188.5 -49q75 0 138.5 19.5t107.5 54t74 77t46 92.5l150 -31q-20 -69 -62.5 -130.5t-105.5 -111.5t-152.5 -79.5t-193.5 -29.5 q-112 0 -212.5 43.5t-174 119t-116.5 184t-43 231.5zM232 601h764q-12 103 -65 188t-137 134t-180.5 49t-180.5 -49t-137 -134t-64 -188zM298 1426q0 35 29 63.5t64 28.5t64 -28.5t29 -63.5t-29 -64t-64 -29t-64 29t-29 64zM692 1426q0 35 28.5 63.5t63.5 28.5t64 -28.5 t29 -63.5t-29 -64t-64 -29t-63.5 29t-28.5 64z" />
<glyph unicode="&#x452;" horiz-adv-x="1237" d="M0 1190v141h162v266h150v-266h289v-141h-289v-415h12q5 8 15 21.5t44.5 47t73 59.5t100 47.5t126.5 21.5q94 0 175 -34t139.5 -96t91.5 -153.5t33 -202.5v-417q0 -155 -93.5 -251t-242.5 -96q-46 0 -92 11.5t-70 23.5l-23 11l35 139q7 -5 19 -12.5t51 -20.5t80 -13 q80 0 133 57t53 151v417q0 162 -83.5 254.5t-217.5 92.5q-47 0 -92.5 -14t-80 -36.5t-65.5 -49.5t-52.5 -54.5t-37.5 -49.5t-24 -36l-7 -14v-579h-150v1190h-162z" />
<glyph unicode="&#x453;" horiz-adv-x="901" d="M139 0v1064h764v-139h-614v-925h-150zM336 1365l358 209l70 -139l-382 -163z" />
<glyph unicode="&#x454;" horiz-adv-x="1191" d="M81 532q0 119 44.5 227t118.5 184.5t174 122t207 45.5q96 0 179.5 -27.5t141.5 -73t96.5 -99.5t56.5 -112l-150 -35q-14 41 -40 76.5t-65 66t-95.5 48t-123.5 17.5q-97 0 -184 -51.5t-142.5 -136.5t-66.5 -183h439v-138h-439q11 -97 67 -182t143 -136.5t183 -51.5 q139 0 230 70.5t128 183.5l152 -35q-18 -71 -59.5 -134.5t-104 -114t-152 -80t-194.5 -29.5q-107 0 -207 45t-174 122t-118.5 184.5t-44.5 226.5z" />
<glyph unicode="&#x455;" horiz-adv-x="1064" d="M46 278l151 23q18 -42 46 -77.5t68.5 -65.5t97.5 -47.5t123 -17.5q75 0 136.5 17.5t99 46t57.5 63t20 69.5q0 41 -24.5 71.5t-66 50.5t-95.5 36t-113.5 30.5t-119 30.5t-113 40.5t-95 56.5t-66 81.5t-24.5 112.5q0 61 28 117t81 99.5t135.5 69.5t183.5 26q87 0 164 -25 t130.5 -65.5t90 -85t55.5 -90.5l-151 -23q-101 150 -289 150q-130 0 -204 -53t-74 -120q0 -41 24.5 -71.5t66 -50.5t95.5 -36t113.5 -30.5t119 -30.5t113 -40.5t95 -56.5t66.5 -81.5t25 -112.5q0 -66 -31 -126t-88 -107t-146.5 -74.5t-198.5 -27.5q-96 0 -179.5 27.5 t-142.5 74.5t-100 103t-64 119z" />
<glyph unicode="&#x456;" horiz-adv-x="485" d="M139 1504q0 43 30.5 73.5t73.5 30.5t73.5 -30.5t30.5 -73.5t-30.5 -73.5t-73.5 -30.5t-73.5 30.5t-30.5 73.5zM170 0v1064h150v-1064h-150z" />
<glyph unicode="&#x457;" horiz-adv-x="485" d="M-46 1455.5q0 34.5 29 63.5t63.5 29t63.5 -29t29 -63.5t-29 -63.5t-63.5 -29t-63.5 29t-29 63.5zM174 0v1064h150v-1064h-150zM347 1455.5q0 34.5 29 63.5t63.5 29t63.5 -29t29 -63.5t-29 -63.5t-63.5 -29t-63.5 29t-29 63.5z" />
<glyph unicode="&#x458;" horiz-adv-x="466" d="M-208 -440l34 139q7 -5 19 -12.5t51.5 -20.5t80.5 -13q80 0 132.5 57t52.5 151v1203h150v-1203q0 -155 -93 -251t-242 -96q-46 0 -92 11.5t-70 23.5zM132 1504q0 43 30.5 73.5t73.5 30.5t73.5 -30.5t30.5 -73.5t-30.5 -73.5t-73.5 -30.5t-73.5 30.5t-30.5 73.5z" />
<glyph unicode="&#x459;" horiz-adv-x="1711" d="M23 0l244 1064h658v-324h301q93 0 172 -28.5t132.5 -78t83 -117.5t29.5 -145.5t-29.5 -145.5t-83 -118t-132.5 -78.5t-172 -28.5h-451v925h-393l-208 -925h-151zM925 139h301q119 0 193 67t74 165t-74 164t-193 66h-301v-462z" />
<glyph unicode="&#x45a;" horiz-adv-x="1780" d="M139 0v1064h150v-393h544v393h150v-393h359q172 0 271.5 -93t99.5 -242.5t-99.5 -242.5t-271.5 -93h-509v532h-544v-532h-150zM983 139h359q103 0 161.5 54t58.5 142.5t-58.5 142.5t-161.5 54h-359v-393z" />
<glyph unicode="&#x45b;" horiz-adv-x="1237" d="M0 1190v141h162v266h150v-266h289v-141h-289v-415h12q5 8 15 21.5t44.5 47t73 59.5t100 47.5t126.5 21.5q94 0 175 -34t139.5 -96t91.5 -153.5t33 -202.5v-486h-150v486q0 162 -83.5 254.5t-217.5 92.5q-47 0 -92.5 -14t-80 -36.5t-65.5 -49.5t-52.5 -54.5t-37.5 -49.5 t-24 -36l-7 -14v-579h-150v1190h-162z" />
<glyph unicode="&#x45c;" horiz-adv-x="1168" d="M139 0v1064h150v-463h347q62 0 100.5 41.5t38.5 110.5v115q0 99 63 159.5t180 60.5h58v-139h-47q-104 0 -104 -104v-116q0 -45 -13 -81t-31.5 -54.5t-37 -31t-31.5 -15.5l-13 -3v-12q6 0 16 -2t36 -14t46 -31t36 -58.5t16 -90.5v-116q0 -105 104 -105h46v-138h-57 q-118 0 -180.5 60t-62.5 160v115q0 69 -38.5 110t-100.5 41h-371v-463h-150zM382 1365l358 209l70 -139l-382 -163z" />
<glyph unicode="&#x45e;" horiz-adv-x="1144" d="M69 1064h151l197 -925h312l196 925h151l-231 -1064q-40 -184 -95.5 -291t-126 -151t-172.5 -44q-46 0 -92 11.5t-69 23.5l-23 11l34 139q6 -5 18 -12.5t51.5 -20.5t80.5 -13t74 17t64 56t57.5 107.5t47.5 166.5h-393zM278 1574h115q0 -78 48 -126t126 -48t125.5 48 t47.5 126h117q0 -121 -84.5 -205t-205.5 -84t-205 84t-84 205z" />
<glyph unicode="&#x45f;" horiz-adv-x="1191" d="M139 0v1064h150v-925h614v925h150v-1064h-382v-254h-150v254h-382z" />
<glyph unicode="&#x490;" d="M174 0v1597h916v231h160v-382h-914v-1446h-162z" />
<glyph unicode="&#x491;" horiz-adv-x="901" d="M139 0v1064h614v232h150v-371h-614v-925h-150z" />
<glyph unicode="&#x2000;" horiz-adv-x="1064" />
<glyph unicode="&#x2001;" horiz-adv-x="2129" />
<glyph unicode="&#x2002;" horiz-adv-x="1064" />
<glyph unicode="&#x2003;" horiz-adv-x="2129" />
<glyph unicode="&#x2004;" horiz-adv-x="709" />
<glyph unicode="&#x2005;" horiz-adv-x="532" />
<glyph unicode="&#x2006;" horiz-adv-x="354" />
<glyph unicode="&#x2007;" horiz-adv-x="354" />
<glyph unicode="&#x2008;" horiz-adv-x="266" />
<glyph unicode="&#x2009;" horiz-adv-x="425" />
<glyph unicode="&#x200a;" horiz-adv-x="118" />
<glyph unicode="&#x2010;" horiz-adv-x="913" d="M46 636v150h822v-150h-822z" />
<glyph unicode="&#x2011;" horiz-adv-x="913" d="M46 636v150h822v-150h-822z" />
<glyph unicode="&#x2012;" horiz-adv-x="913" d="M46 636v150h822v-150h-822z" />
<glyph unicode="&#x2013;" horiz-adv-x="1387" d="M69 556v138h1250v-138h-1250z" />
<glyph unicode="&#x2014;" horiz-adv-x="1735" d="M69 556v138h1598v-138h-1598z" />
<glyph unicode="&#x2018;" horiz-adv-x="358" d="M69 1319q0 20 8.5 43.5t17.5 36.5l9 12l116 197h69l-69 -197q3 -1 6.5 -3t13.5 -10t18 -18t14 -26.5t6 -34.5q0 -44 -30.5 -74t-73.5 -30t-74 30.5t-31 73.5z" />
<glyph unicode="&#x2019;" horiz-adv-x="358" d="M69 1215l70 196q-2 1 -6 3.5t-14 10.5t-17.5 17.5t-14 26t-6.5 35.5q0 43 30.5 73.5t74 30.5t73.5 -30.5t30 -73.5q0 -21 -8.5 -44t-17.5 -36l-9 -13l-115 -196h-70z" />
<glyph unicode="&#x201a;" horiz-adv-x="358" d="M69 -208l70 197l-6 3t-14 10t-17.5 18t-14 26.5t-6.5 34.5q0 44 30.5 74t74 30t73.5 -30t30 -74q0 -20 -8.5 -43.5t-17.5 -35.5l-9 -13l-115 -197h-70z" />
<glyph unicode="&#x201c;" horiz-adv-x="682" d="M69 1319q0 20 8.5 43.5t17.5 36.5l9 12l116 197h69l-69 -197q3 -1 6.5 -3t13.5 -10t18 -18t14 -26.5t6 -34.5q0 -44 -30.5 -74t-73.5 -30t-74 30.5t-31 73.5zM393 1319q0 20 9 43.5t18 36.5l8 12l116 197h70l-70 -197l6 -3t14 -10t17.5 -18t13.5 -26.5t6 -34.5 q0 -44 -30.5 -74t-73.5 -30t-73.5 30t-30.5 74z" />
<glyph unicode="&#x201d;" horiz-adv-x="682" d="M69 1215l70 196q-2 1 -6 3.5t-14 10.5t-17.5 17.5t-14 26t-6.5 35.5q0 43 30.5 73.5t74 30.5t73.5 -30.5t30 -73.5q0 -21 -8.5 -44t-17.5 -36l-9 -13l-115 -196h-70zM393 1215l70 196q-2 1 -6 3.5t-14 10.5t-18 17.5t-14 26t-6 35.5q0 43 30.5 73.5t74 30.5t74 -30.5 t30.5 -73.5q0 -21 -9 -44t-18 -36l-8 -13l-116 -196h-70z" />
<glyph unicode="&#x201e;" horiz-adv-x="682" d="M69 -208l70 197l-6 3t-14 10t-17.5 18t-14 26.5t-6.5 34.5q0 44 30.5 74t74 30t73.5 -30t30 -74q0 -20 -8.5 -43.5t-17.5 -35.5l-9 -13l-115 -197h-70zM393 -208l70 197l-6 3t-14 10t-18 18t-14 26.5t-6 34.5q0 43 30.5 73.5t74 30.5t74 -30t30.5 -74q0 -20 -9 -43.5 t-18 -35.5l-8 -13l-116 -197h-70z" />
<glyph unicode="&#x2020;" horiz-adv-x="925" d="M46 996v150h336v451h162v-451h335v-150h-335v-996h-162v996h-336z" />
<glyph unicode="&#x2021;" horiz-adv-x="925" d="M46 358v152h336v578h-336v150h336v359h162v-359h335v-150h-335v-578h335v-152h-335v-358h-162v358h-336z" />
<glyph unicode="&#x2022;" horiz-adv-x="623" d="M162 682.5q0 61.5 44.5 106t105.5 44.5t106 -45t45 -105.5t-45 -105.5t-106 -45t-105.5 44.5t-44.5 106z" />
<glyph unicode="&#x2026;" horiz-adv-x="1272" d="M69 81q0 43 31 73.5t74 30.5t73.5 -30t30.5 -73.5t-30.5 -74t-73.5 -30.5t-74 30.5t-31 73.5zM532 81.5q0 43.5 30.5 73.5t73.5 30t73.5 -30t30.5 -73.5t-30.5 -74t-73.5 -30.5t-73.5 30.5t-30.5 74zM996 81.5q0 43.5 30 73.5t73.5 30t73.5 -30t30 -73.5t-30 -74 t-73.5 -30.5t-73.5 30.5t-30 74z" />
<glyph unicode="&#x202f;" horiz-adv-x="425" />
<glyph unicode="&#x2030;" horiz-adv-x="2371" d="M69 1249.5q0 84.5 28.5 159t76 125.5t111 80t132.5 29t132.5 -29t110.5 -80t75.5 -125t28.5 -159t-28.5 -159t-75.5 -125t-110.5 -80t-132.5 -29t-132.5 29t-111 80t-76 125t-28.5 158.5zM208 1250q0 -109 64 -181.5t145 -72.5t144.5 72.5t63.5 181.5t-63.5 181.5 t-144.5 72.5t-145 -72.5t-64 -181.5zM243 0l983 1597h174l-983 -1597h-174zM845 347q0 85 28.5 159t76 125t110.5 80t132 29t132.5 -29t111 -80t75.5 -125t28 -159t-28 -159t-75.5 -125t-111 -80t-132.5 -29t-132 29t-110.5 80t-76 125t-28.5 159zM983 347q0 -109 64 -181.5 t145 -72.5t144.5 72.5t63.5 181.5t-63.5 181.5t-144.5 72.5t-145 -72.5t-64 -181.5zM1608 347q0 85 28.5 159t76 125t111 80t132.5 29t132.5 -29t110.5 -80t75.5 -125t28.5 -159t-28.5 -159t-75.5 -125t-110.5 -80t-132.5 -29t-132.5 29t-111 80t-76 125t-28.5 159z M1747 347q0 -109 64 -181.5t145 -72.5t144.5 72.5t63.5 181.5t-63.5 181.5t-144.5 72.5t-145 -72.5t-64 -181.5z" />
<glyph unicode="&#x2039;" horiz-adv-x="762" d="M69 532l532 532l93 -92l-427 -440l427 -439l-93 -93z" />
<glyph unicode="&#x203a;" horiz-adv-x="762" d="M69 93l428 439l-428 440l93 92l532 -532l-532 -532z" />
<glyph unicode="&#x2044;" horiz-adv-x="1157" d="M0 0l983 1597h174l-983 -1597h-174z" />
<glyph unicode="&#x205f;" horiz-adv-x="532" />
<glyph unicode="&#x20ac;" horiz-adv-x="1873" d="M46 567v139h162q-11 47 -11 93q0 21 2.5 43.5t5.5 35.5l3 12h-162v139h186q51 184 168.5 329t279.5 227t338 82q114 0 218.5 -28.5t184.5 -76.5t145 -111t107 -131.5t63 -139.5l-162 -23q-21 54 -55 104.5t-84 97t-110.5 81t-140 55t-166.5 20.5q-131 0 -255.5 -63 t-218.5 -174t-139 -249h624v-139h-658q-13 -45 -13 -91q0 -21 3 -44t7 -36l3 -13h658v-139h-624q45 -138 139 -248.5t218.5 -174t255.5 -63.5q95 0 178.5 21.5t147.5 57.5t118 87t91.5 107t66.5 121l162 -24q-29 -82 -75 -156.5t-114.5 -141.5t-152 -116t-192 -77.5 t-230.5 -28.5q-177 0 -338.5 81.5t-279 226.5t-168.5 328h-186z" />
<glyph unicode="&#x2122;" horiz-adv-x="1643" d="M23 1458v139h624v-139h-242v-579h-138v579h-244zM740 879v718h150l256 -325l254 325h150v-718h-139v498l-265 -335l-267 335v-498h-139z" />
<glyph unicode="&#x25fc;" horiz-adv-x="1064" d="M0 0v1064h1064v-1064h-1064z" />
</font>
</defs>
</svg>
